<svg width="280" height="197" viewBox="0 0 280 197" fill="none" xmlns="http://www.w3.org/2000/svg">
    <path
        d="M155 175.5C155 182.956 148.956 189 141.5 189C134.045 189 128 182.956 128 175.5C128 168.044 134.045 162 141.5 162C148.956 162 155 168.044 155 175.5Z"
        fill="#F43F5E" />
    <path
        d="M143.103 175.501L145.666 172.937C145.771 172.831 145.855 172.707 145.912 172.569C145.97 172.431 145.999 172.284 145.999 172.135C145.999 171.986 145.97 171.838 145.912 171.7C145.855 171.563 145.771 171.438 145.666 171.333C145.561 171.227 145.436 171.144 145.298 171.086C145.161 171.029 145.013 171 144.864 171C144.715 171 144.568 171.029 144.43 171.086C144.293 171.144 144.168 171.227 144.063 171.333L141.5 173.897L138.937 171.333C138.832 171.227 138.707 171.144 138.57 171.086C138.432 171.029 138.285 171 138.136 171C137.987 171 137.839 171.029 137.702 171.086C137.564 171.144 137.439 171.227 137.334 171.333C137.229 171.438 137.145 171.563 137.088 171.7C137.03 171.838 137.001 171.986 137.001 172.135C137.001 172.284 137.03 172.431 137.088 172.569C137.145 172.707 137.229 172.831 137.334 172.937L139.897 175.501L137.334 178.066C137.175 178.224 137.066 178.426 137.022 178.646C136.978 178.866 137 179.095 137.086 179.302C137.172 179.51 137.318 179.687 137.505 179.811C137.692 179.935 137.911 180.001 138.136 180C138.425 180 138.715 179.891 138.937 179.67L141.5 177.105L144.063 179.67C144.285 179.891 144.575 180 144.864 180C145.089 180.001 145.308 179.935 145.495 179.811C145.682 179.687 145.828 179.51 145.914 179.302C146 179.095 146.022 178.866 145.978 178.646C145.934 178.426 145.825 178.224 145.666 178.066L143.103 175.501Z"
        fill="white" />
    <path
        d="M241.717 153.996H38.2832C32.6155 153.996 28 149.422 28 143.796V22.2005C28 16.5784 32.6105 12 38.2832 12H241.717C247.384 12 252 16.5744 252 22.2005V143.799C252 149.422 247.388 154 241.717 154V153.996ZM38.2832 14.324C33.9012 14.324 30.3378 17.8587 30.3378 22.2055V143.799C30.3378 148.146 33.9012 151.681 38.2832 151.681H241.717C246.098 151.681 249.661 148.146 249.661 143.799V22.2005C249.661 17.8547 246.098 14.32 241.717 14.32H38.2832V14.324Z"
        fill="#F43F5E" />
    <path opacity="0.3"
        d="M226.892 29H47.1079C42.0777 29 38 33.0654 38 38.0803V133.92C38 138.935 42.0777 143 47.1079 143H226.892C231.922 143 236 138.935 236 133.92V38.0803C236 33.0654 231.922 29 226.892 29Z"
        fill="#142641" />
    <path
        d="M230.892 23H51.1079C46.0777 23 42 27.0654 42 32.0803V127.92C42 132.935 46.0777 137 51.1079 137H230.892C235.922 137 240 132.935 240 127.92V32.0803C240 27.0654 235.922 23 230.892 23Z"
        fill="white" />
    <path
        d="M230.741 138.995H51.2589C45.6046 138.995 41 134.375 41 128.691V32.3041C41 26.6249 45.6 22 51.2589 22H230.741C236.395 22 241 26.6202 241 32.3041V128.696C241 134.375 236.4 139 230.741 139V138.995ZM51.2589 24.3429C46.8876 24.3429 43.3326 27.9135 43.3326 32.3041V128.696C43.3326 133.087 46.8876 136.657 51.2589 136.657H230.741C235.112 136.657 238.667 133.087 238.667 128.696V32.3041C238.667 27.9135 235.112 24.3429 230.741 24.3429H51.2589Z"
        fill="black" />
    <path
        d="M200.852 125C193.765 125 188 119.169 188 112C188 104.831 193.765 99 200.852 99C201.486 99 202 99.52 202 100.161C202 100.801 201.486 101.321 200.852 101.321C195.032 101.321 190.295 106.113 190.295 112C190.295 117.887 195.032 122.679 200.852 122.679C201.486 122.679 202 123.199 202 123.839C202 124.48 201.486 125 200.852 125Z"
        fill="black" />
    <path
        d="M214 125C206.831 125 201 119.169 201 112C201 104.831 206.831 99 214 99C221.169 99 227 104.831 227 112C227 119.169 221.169 125 214 125ZM214 101.321C208.113 101.321 203.321 106.113 203.321 112C203.321 117.887 208.113 122.679 214 122.679C219.887 122.679 224.679 117.887 224.679 112C224.679 106.113 219.887 101.321 214 101.321Z"
        fill="black" />
    <path
        d="M164.836 113H61.1636C60.5213 113 60 112.552 60 112C60 111.448 60.5213 111 61.1636 111H164.836C165.479 111 166 111.448 166 112C166 112.552 165.479 113 164.836 113Z"
        fill="black" />
    <path
        d="M62.5 74C63.8807 74 65 72.8807 65 71.5C65 70.1193 63.8807 69 62.5 69C61.1193 69 60 70.1193 60 71.5C60 72.8807 61.1193 74 62.5 74Z"
        fill="black" />
    <path
        d="M71.5 74C72.8807 74 74 72.8807 74 71.5C74 70.1193 72.8807 69 71.5 69C70.1193 69 69 70.1193 69 71.5C69 72.8807 70.1193 74 71.5 74Z"
        fill="black" />
    <path
        d="M79.5 74C80.8807 74 82 72.8807 82 71.5C82 70.1193 80.8807 69 79.5 69C78.1193 69 77 70.1193 77 71.5C77 72.8807 78.1193 74 79.5 74Z"
        fill="black" />
    <path
        d="M88.5 74C89.8807 74 91 72.8807 91 71.5C91 70.1193 89.8807 69 88.5 69C87.1193 69 86 70.1193 86 71.5C86 72.8807 87.1193 74 88.5 74Z"
        fill="black" />
    <path
        d="M101.5 74C102.881 74 104 72.8807 104 71.5C104 70.1193 102.881 69 101.5 69C100.119 69 99 70.1193 99 71.5C99 72.8807 100.119 74 101.5 74Z"
        fill="black" />
    <path
        d="M110.5 74C111.881 74 113 72.8807 113 71.5C113 70.1193 111.881 69 110.5 69C109.119 69 108 70.1193 108 71.5C108 72.8807 109.119 74 110.5 74Z"
        fill="black" />
    <path
        d="M118.5 74C119.881 74 121 72.8807 121 71.5C121 70.1193 119.881 69 118.5 69C117.119 69 116 70.1193 116 71.5C116 72.8807 117.119 74 118.5 74Z"
        fill="black" />
    <path
        d="M127.5 74C128.881 74 130 72.8807 130 71.5C130 70.1193 128.881 69 127.5 69C126.119 69 125 70.1193 125 71.5C125 72.8807 126.119 74 127.5 74Z"
        fill="black" />
    <path
        d="M141.5 74C142.881 74 144 72.8807 144 71.5C144 70.1193 142.881 69 141.5 69C140.119 69 139 70.1193 139 71.5C139 72.8807 140.119 74 141.5 74Z"
        fill="black" />
    <path
        d="M150.5 74C151.881 74 153 72.8807 153 71.5C153 70.1193 151.881 69 150.5 69C149.119 69 148 70.1193 148 71.5C148 72.8807 149.119 74 150.5 74Z"
        fill="black" />
    <path
        d="M158.5 74C159.881 74 161 72.8807 161 71.5C161 70.1193 159.881 69 158.5 69C157.119 69 156 70.1193 156 71.5C156 72.8807 157.119 74 158.5 74Z"
        fill="black" />
    <path
        d="M167.5 74C168.881 74 170 72.8807 170 71.5C170 70.1193 168.881 69 167.5 69C166.119 69 165 70.1193 165 71.5C165 72.8807 166.119 74 167.5 74Z"
        fill="black" />
    <path
        d="M179.778 67.9212H179.731L177 69.6551V67.7963L179.767 66H182V76H179.773V67.9212H179.778Z"
        fill="black" />
    <path
        d="M184.109 74.593L187.461 71.3447C187.867 70.9481 188.176 70.6223 188.386 70.3579C188.595 70.0935 188.741 69.8621 188.818 69.6544C188.896 69.4466 188.932 69.2295 188.932 69.0028V68.9887C188.932 68.7148 188.873 68.4788 188.75 68.271C188.627 68.0633 188.459 67.9027 188.245 67.7847C188.031 67.6667 187.785 67.6053 187.502 67.6053C187.179 67.6053 186.892 67.6714 186.646 67.8083C186.4 67.9452 186.209 68.1294 186.068 68.3607C185.926 68.5921 185.854 68.8565 185.844 69.1492V69.2106H184V69.1539C184 68.5354 184.15 67.9924 184.455 67.5156C184.756 67.0434 185.17 66.6704 185.699 66.4013C186.227 66.1322 186.824 66 187.489 66C188.154 66 188.746 66.1228 189.256 66.3683C189.766 66.6138 190.162 66.949 190.444 67.3787C190.727 67.8083 190.872 68.2993 190.872 68.8612V68.8754C190.872 69.2767 190.804 69.6449 190.663 69.9802C190.526 70.3201 190.299 70.6742 189.984 71.0519C189.67 71.4297 189.237 71.8782 188.691 72.4023L185.945 74.9991L186.705 73.6157V74.9991L185.949 74.3664H191V76H184.109V74.5883V74.593Z"
        fill="black" />
    <path
        d="M193.959 75.6381C193.377 75.4014 192.918 75.0673 192.582 74.645C192.247 74.2227 192.049 73.7309 192 73.1787V73.0905H194.053L194.068 73.1647C194.102 73.3968 194.201 73.6009 194.364 73.7819C194.527 73.9629 194.749 74.1067 195.025 74.2088C195.302 74.3155 195.627 74.3666 195.998 74.3666C196.368 74.3666 196.688 74.3109 196.96 74.1949C197.231 74.0789 197.439 73.9211 197.592 73.7216C197.74 73.5174 197.814 73.2854 197.814 73.0209V73.007C197.814 72.5476 197.641 72.1949 197.295 71.949C196.95 71.703 196.466 71.5824 195.845 71.5824H194.67V70.1346H195.815C196.175 70.1346 196.486 70.0789 196.753 69.9675C197.014 69.8561 197.221 69.703 197.37 69.5035C197.518 69.3086 197.592 69.0812 197.592 68.8213V68.8074C197.592 68.5429 197.527 68.3202 197.404 68.1299C197.281 67.9443 197.098 67.8005 196.856 67.703C196.614 67.6056 196.328 67.5545 195.993 67.5545C195.657 67.5545 195.366 67.6056 195.109 67.7077C194.853 67.8097 194.65 67.949 194.497 68.1346C194.344 68.3202 194.25 68.5383 194.221 68.7889V68.8538H192.232V68.7657C192.291 68.2088 192.479 67.7216 192.8 67.3086C193.12 66.8956 193.555 66.5708 194.097 66.3434C194.645 66.1114 195.277 66 195.993 66C196.708 66 197.374 66.1067 197.917 66.3202C198.46 66.5336 198.885 66.826 199.181 67.2065C199.482 67.587 199.63 68.0278 199.63 68.5383V68.5522C199.63 68.9559 199.536 69.3086 199.344 69.6148C199.156 69.9211 198.894 70.1717 198.569 70.3666C198.243 70.5615 197.883 70.7007 197.483 70.7749V70.8167C198.248 70.8817 198.86 71.1137 199.314 71.5128C199.773 71.9118 200 72.4362 200 73.0905V73.1044C200 73.6798 199.832 74.1856 199.502 74.6218C199.171 75.058 198.702 75.3968 198.105 75.6381C197.508 75.8794 196.807 76 196.002 76C195.198 76 194.542 75.8793 193.964 75.6427L193.959 75.6381Z"
        fill="black" />
    <path
        d="M205.801 74.1748H201V72.4217C201.255 71.999 201.511 71.5716 201.771 71.1393C202.031 70.7118 202.291 70.2795 202.546 69.8521C202.806 69.4246 203.066 68.9971 203.322 68.5696C203.577 68.1422 203.842 67.7147 204.097 67.2824C204.357 66.8549 204.612 66.4275 204.868 66H207.728V72.4938H209V74.17H207.728V76H205.801V74.17V74.1748ZM205.843 72.5514V67.5226H205.796C205.597 67.854 205.392 68.1854 205.193 68.5168C204.993 68.8482 204.789 69.1796 204.584 69.511C204.38 69.8425 204.176 70.1739 203.976 70.5101C203.772 70.8415 203.568 71.1729 203.368 71.5043C203.168 71.8357 202.964 72.1671 202.76 72.4986V72.5562H205.843V72.5514Z"
        fill="black" />
    <g opacity="0.95">
        <path d="M101.688 22L54 139H101.688L144 22H101.688Z" fill="#F9FAFB" />
        <path d="M157.949 22.0002L110 139L117.756 139L165 22L157.949 22.0002Z" fill="#F9FAFB" />
    </g>
</svg>