<svg width="280" height="197" viewBox="0 0 280 197" fill="none" xmlns="http://www.w3.org/2000/svg">
    <path opacity="0.3"
        d="M227.893 29.001H48.1086C46.9125 29.0009 45.7281 29.2356 44.623 29.6919C43.5179 30.1481 42.5137 30.8169 41.6679 31.6601C40.8221 32.5033 40.1511 33.5043 39.6934 34.606C39.2356 35.7077 39 36.8885 39 38.0809V133.92C39 135.113 39.2356 136.293 39.6934 137.395C40.1511 138.497 40.8221 139.498 41.6679 140.341C42.5137 141.184 43.5179 141.853 44.623 142.309C45.7281 142.765 46.9125 143 48.1086 143H227.892C230.308 143 232.624 142.043 234.332 140.341C236.04 138.638 237 136.328 237 133.92V38.0809C237 36.8885 236.765 35.7076 236.307 34.6059C235.849 33.5041 235.179 32.5031 234.333 31.6598C233.487 30.8166 232.483 30.1476 231.378 29.6913C230.273 29.2349 229.089 29 227.892 29L227.893 29.001Z"
        fill="#142641" />
    <path
        d="M152 175.5C152 182.956 145.956 189 138.5 189C131.045 189 125 182.956 125 175.5C125 168.044 131.045 162 138.5 162C145.956 162 152 168.044 152 175.5Z"
        fill="#F43F5E" />
    <path
        d="M241.717 153.996H38.2832C32.6155 153.996 28 149.422 28 143.796V22.2005C28 16.5784 32.6105 12 38.2832 12H241.717C247.384 12 252 16.5744 252 22.2005V143.799C252 149.422 247.388 154 241.717 154V153.996ZM38.2832 14.324C33.9012 14.324 30.3378 17.8587 30.3378 22.2055V143.799C30.3378 148.146 33.9012 151.681 38.2832 151.681H241.717C246.098 151.681 249.661 148.146 249.661 143.799V22.2005C249.661 17.8547 246.098 14.32 241.717 14.32H38.2832V14.324Z"
        fill="#F43F5E" />
    <path
        d="M140.103 175.501L142.666 172.937C142.771 172.831 142.855 172.707 142.912 172.569C142.97 172.431 142.999 172.284 142.999 172.135C142.999 171.986 142.97 171.838 142.912 171.7C142.855 171.563 142.771 171.438 142.666 171.333C142.561 171.227 142.436 171.144 142.298 171.086C142.161 171.029 142.013 171 141.864 171C141.715 171 141.568 171.029 141.43 171.086C141.293 171.144 141.168 171.227 141.063 171.333L138.5 173.897L135.937 171.333C135.832 171.227 135.707 171.144 135.57 171.086C135.432 171.029 135.285 171 135.136 171C134.987 171 134.839 171.029 134.702 171.086C134.564 171.144 134.439 171.227 134.334 171.333C134.229 171.438 134.145 171.563 134.088 171.7C134.03 171.838 134.001 171.986 134.001 172.135C134.001 172.284 134.03 172.431 134.088 172.569C134.145 172.707 134.229 172.831 134.334 172.937L136.897 175.501L134.334 178.066C134.175 178.224 134.066 178.426 134.022 178.646C133.978 178.866 134 179.095 134.086 179.302C134.172 179.51 134.318 179.687 134.505 179.811C134.692 179.935 134.911 180.001 135.136 180C135.425 180 135.715 179.891 135.937 179.67L138.5 177.105L141.063 179.67C141.285 179.891 141.575 180 141.864 180C142.089 180.001 142.308 179.935 142.495 179.811C142.682 179.687 142.828 179.51 142.914 179.302C143 179.095 143.022 178.866 142.978 178.646C142.934 178.426 142.825 178.224 142.666 178.066L140.103 175.501Z"
        fill="white" />
    <path
        d="M229.892 26H50.1079C45.0777 26 41 30.0654 41 35.0803V130.92C41 135.935 45.0777 140 50.1079 140H229.892C234.922 140 239 135.935 239 130.92V35.0803C239 30.0654 234.922 26 229.892 26Z"
        fill="white" />
    <g opacity="0.4">
        <path
            d="M228.741 141.995H49.2589C43.6046 141.995 39 137.375 39 131.691V35.3041C39 29.6249 43.6 25 49.2589 25H228.741C234.395 25 239 29.6202 239 35.3041V131.696C239 137.375 234.4 142 228.741 142V141.995ZM49.2589 27.3429C44.8876 27.3429 41.3326 30.9135 41.3326 35.3041V131.696C41.3326 136.087 44.8876 139.657 49.2589 139.657H228.741C233.112 139.657 236.667 136.087 236.667 131.696V35.3041C236.667 30.9135 233.112 27.3429 228.741 27.3429H49.2589Z"
            fill="black" />
        <path
            d="M198.852 128C191.765 128 186 122.169 186 115C186 107.831 191.765 102 198.852 102C199.486 102 200 102.52 200 103.161C200 103.801 199.486 104.321 198.852 104.321C193.032 104.321 188.295 109.113 188.295 115C188.295 120.887 193.032 125.679 198.852 125.679C199.486 125.679 200 126.199 200 126.839C200 127.48 199.486 128 198.852 128Z"
            fill="black" />
        <path
            d="M212 128C204.831 128 199 122.169 199 115C199 107.831 204.831 102 212 102C219.169 102 225 107.831 225 115C225 122.169 219.169 128 212 128ZM212 104.321C206.113 104.321 201.321 109.113 201.321 115C201.321 120.887 206.113 125.679 212 125.679C217.887 125.679 222.679 120.887 222.679 115C222.679 109.113 217.887 104.321 212 104.321Z"
            fill="black" />
        <path
            d="M162.836 116H59.1636C58.5213 116 58 115.552 58 115C58 114.448 58.5213 114 59.1636 114H162.836C163.479 114 164 114.448 164 115C164 115.552 163.479 116 162.836 116Z"
            fill="black" />
        <path
            d="M60.5 77C61.8807 77 63 75.8807 63 74.5C63 73.1193 61.8807 72 60.5 72C59.1193 72 58 73.1193 58 74.5C58 75.8807 59.1193 77 60.5 77Z"
            fill="black" />
        <path
            d="M69.5 77C70.8807 77 72 75.8807 72 74.5C72 73.1193 70.8807 72 69.5 72C68.1193 72 67 73.1193 67 74.5C67 75.8807 68.1193 77 69.5 77Z"
            fill="black" />
        <path
            d="M77.5 77C78.8807 77 80 75.8807 80 74.5C80 73.1193 78.8807 72 77.5 72C76.1193 72 75 73.1193 75 74.5C75 75.8807 76.1193 77 77.5 77Z"
            fill="black" />
        <path
            d="M86.5 77C87.8807 77 89 75.8807 89 74.5C89 73.1193 87.8807 72 86.5 72C85.1193 72 84 73.1193 84 74.5C84 75.8807 85.1193 77 86.5 77Z"
            fill="black" />
        <path
            d="M99.5 77C100.881 77 102 75.8807 102 74.5C102 73.1193 100.881 72 99.5 72C98.1193 72 97 73.1193 97 74.5C97 75.8807 98.1193 77 99.5 77Z"
            fill="black" />
        <path
            d="M108.5 77C109.881 77 111 75.8807 111 74.5C111 73.1193 109.881 72 108.5 72C107.119 72 106 73.1193 106 74.5C106 75.8807 107.119 77 108.5 77Z"
            fill="black" />
        <path
            d="M116.5 77C117.881 77 119 75.8807 119 74.5C119 73.1193 117.881 72 116.5 72C115.119 72 114 73.1193 114 74.5C114 75.8807 115.119 77 116.5 77Z"
            fill="black" />
        <path
            d="M125.5 77C126.881 77 128 75.8807 128 74.5C128 73.1193 126.881 72 125.5 72C124.119 72 123 73.1193 123 74.5C123 75.8807 124.119 77 125.5 77Z"
            fill="black" />
        <path
            d="M139.5 77C140.881 77 142 75.8807 142 74.5C142 73.1193 140.881 72 139.5 72C138.119 72 137 73.1193 137 74.5C137 75.8807 138.119 77 139.5 77Z"
            fill="black" />
        <path
            d="M148.5 77C149.881 77 151 75.8807 151 74.5C151 73.1193 149.881 72 148.5 72C147.119 72 146 73.1193 146 74.5C146 75.8807 147.119 77 148.5 77Z"
            fill="black" />
        <path
            d="M156.5 77C157.881 77 159 75.8807 159 74.5C159 73.1193 157.881 72 156.5 72C155.119 72 154 73.1193 154 74.5C154 75.8807 155.119 77 156.5 77Z"
            fill="black" />
        <path
            d="M165.5 77C166.881 77 168 75.8807 168 74.5C168 73.1193 166.881 72 165.5 72C164.119 72 163 73.1193 163 74.5C163 75.8807 164.119 77 165.5 77Z"
            fill="black" />
        <path
            d="M177.778 70.9212H177.731L175 72.6551V70.7964L177.767 69H180V79H177.773V70.9212H177.778Z"
            fill="black" />
        <path
            d="M182.105 77.593L185.457 74.3447C185.862 73.9481 186.172 73.6223 186.386 73.3579C186.595 73.0935 186.741 72.8621 186.818 72.6544C186.896 72.4466 186.932 72.2295 186.932 72.0028V71.9887C186.932 71.7148 186.873 71.4788 186.75 71.271C186.627 71.0633 186.459 70.9027 186.245 70.7847C186.031 70.6667 185.785 70.6053 185.502 70.6053C185.179 70.6053 184.892 70.6714 184.646 70.8083C184.4 70.9452 184.209 71.1294 184.068 71.3607C183.926 71.5921 183.854 71.8565 183.845 72.1492V72.2106H182V72.1539C182 71.5354 182.15 70.9924 182.455 70.5156C182.756 70.0434 183.17 69.6704 183.699 69.4013C184.227 69.1322 184.824 69 185.489 69C186.154 69 186.746 69.1228 187.256 69.3683C187.766 69.6138 188.157 69.949 188.444 70.3787C188.727 70.8083 188.872 71.2993 188.872 71.8612V71.8754C188.872 72.2767 188.804 72.6449 188.663 72.9802C188.526 73.3201 188.299 73.6742 187.984 74.0519C187.67 74.4297 187.237 74.8782 186.691 75.4023L183.945 77.9991L184.705 76.6157V77.9991L183.949 77.3664H189V79H182.109V77.5883L182.105 77.593Z"
            fill="black" />
        <path
            d="M191.959 78.6381C191.377 78.4014 190.918 78.0673 190.582 77.645C190.247 77.2227 190.049 76.7309 190 76.1787V76.0905H192.053L192.068 76.1647C192.102 76.3968 192.201 76.6009 192.364 76.7819C192.527 76.9629 192.749 77.1067 193.025 77.2088C193.302 77.3155 193.627 77.3666 193.998 77.3666C194.368 77.3666 194.688 77.3109 194.96 77.1949C195.231 77.0789 195.439 76.9211 195.592 76.7216C195.74 76.5174 195.814 76.2854 195.814 76.0209V76.007C195.814 75.5476 195.641 75.1949 195.295 74.949C194.95 74.703 194.466 74.5824 193.845 74.5824H192.67V73.1346H193.815C194.175 73.1346 194.486 73.0789 194.753 72.9675C195.019 72.8561 195.221 72.703 195.37 72.5035C195.518 72.3086 195.592 72.0812 195.592 71.8213V71.8074C195.592 71.5429 195.527 71.3202 195.404 71.1299C195.281 70.9443 195.098 70.8005 194.856 70.703C194.619 70.6056 194.328 70.5545 193.993 70.5545C193.657 70.5545 193.366 70.6056 193.109 70.7077C192.853 70.8097 192.65 70.949 192.497 71.1346C192.344 71.3202 192.25 71.5383 192.221 71.7889V71.8538H190.232L190.242 71.7657C190.296 71.2088 190.479 70.7216 190.8 70.3086C191.12 69.8956 191.555 69.5708 192.097 69.3434C192.645 69.1114 193.277 69 193.993 69C194.708 69 195.374 69.1067 195.917 69.3202C196.46 69.5336 196.885 69.826 197.181 70.2065C197.477 70.587 197.63 71.0278 197.63 71.5383V71.5522C197.63 71.9559 197.536 72.3086 197.344 72.6148C197.156 72.9211 196.894 73.1717 196.569 73.3666C196.243 73.5615 195.883 73.7007 195.483 73.7749V73.8167C196.248 73.8817 196.86 74.1137 197.314 74.5128C197.773 74.9118 198 75.4362 198 76.0905V76.1044C198 76.6798 197.832 77.1856 197.502 77.6218C197.171 78.058 196.702 78.3968 196.105 78.6381C195.508 78.8794 194.807 79 194.002 79C193.198 79 192.542 78.8793 191.964 78.6427L191.959 78.6381Z"
            fill="black" />
        <path
            d="M203.801 77.1748H199V75.4217C199.255 74.999 199.511 74.5716 199.771 74.1393C200.031 73.7118 200.291 73.2795 200.546 72.8521C200.806 72.4246 201.066 71.9971 201.322 71.5696C201.582 71.1422 201.842 70.7147 202.097 70.2824C202.357 69.8549 202.612 69.4275 202.868 69H205.728V75.4938H207V77.17H205.728V79H203.801V77.17V77.1748ZM203.843 75.5514V70.5226H203.796C203.597 70.854 203.392 71.1854 203.193 71.5168C202.993 71.8482 202.789 72.1796 202.589 72.511C202.385 72.8425 202.181 73.1739 201.981 73.5101C201.777 73.8415 201.572 74.1729 201.373 74.5043C201.173 74.8357 200.969 75.1671 200.769 75.4986V75.5562H203.847L203.843 75.5514Z"
            fill="black" />
    </g>
    <g opacity="0.3">
        <path
            d="M227.97 142.992L48.0211 138.381C42.3503 138.236 37.8539 133.518 38.0036 127.867L40.4788 31.9861C40.6238 26.3351 45.3588 21.8544 51.0296 22.0036L230.979 26.6149C236.65 26.7594 241.146 31.4779 240.996 37.1289L238.521 133.009C238.376 138.66 233.641 143.141 227.97 142.997V142.992ZM50.9641 24.3302C46.5847 24.2183 42.9258 27.6779 42.8135 32.0467L40.3384 127.927C40.2261 132.291 43.6978 135.938 48.0819 136.049L228.031 140.661C232.411 140.773 236.07 137.313 236.182 132.944L238.657 37.0636C238.769 32.6995 235.298 29.0534 230.913 28.9415L50.9641 24.3302Z"
            fill="black" />
        <path
            d="M199.136 129C191.706 128.814 185.812 122.833 186.005 115.668C186.197 108.503 192.399 102.819 199.829 103.004C200.494 103.023 201.019 103.552 200.999 104.193C200.98 104.834 200.431 105.34 199.767 105.322C193.661 105.168 188.566 109.835 188.412 115.724C188.253 121.612 193.093 126.525 199.199 126.673C199.863 126.692 200.388 127.221 200.369 127.862C200.349 128.503 199.8 129.009 199.136 128.991V129Z"
            fill="black" />
        <path
            d="M211.666 128.996C204.502 128.81 198.819 122.83 199.004 115.666C199.19 108.502 205.17 102.819 212.334 103.004C219.498 103.19 225.181 109.17 224.996 116.334C224.81 123.498 218.83 129.181 211.666 128.996ZM212.274 105.326C206.387 105.173 201.474 109.839 201.326 115.726C201.173 121.613 205.839 126.526 211.726 126.674C217.613 126.827 222.526 122.161 222.674 116.274C222.823 110.387 218.161 105.474 212.274 105.326Z"
            fill="black" />
        <path
            d="M163.796 116L59.1426 113.33C58.494 113.311 57.9817 112.779 58.0005 112.135C58.0193 111.491 58.5551 110.982 59.2037 111L163.857 113.67C164.506 113.689 165.018 114.221 164.999 114.865C164.981 115.509 164.445 116.018 163.796 116Z"
            fill="black" />
        <path
            d="M61.5 74C62.8807 74 64 72.8807 64 71.5C64 70.1193 62.8807 69 61.5 69C60.1193 69 59 70.1193 59 71.5C59 72.8807 60.1193 74 61.5 74Z"
            fill="black" />
        <path
            d="M70.5 74C71.8807 74 73 72.8807 73 71.5C73 70.1193 71.8807 69 70.5 69C69.1193 69 68 70.1193 68 71.5C68 72.8807 69.1193 74 70.5 74Z"
            fill="black" />
        <path
            d="M78.5 74C79.8807 74 81 72.8807 81 71.5C81 70.1193 79.8807 69 78.5 69C77.1193 69 76 70.1193 76 71.5C76 72.8807 77.1193 74 78.5 74Z"
            fill="black" />
        <path
            d="M87.5 75C88.8807 75 90 73.8807 90 72.5C90 71.1193 88.8807 70 87.5 70C86.1193 70 85 71.1193 85 72.5C85 73.8807 86.1193 75 87.5 75Z"
            fill="black" />
        <path
            d="M100.5 75C101.881 75 103 73.8807 103 72.5C103 71.1193 101.881 70 100.5 70C99.1193 70 98 71.1193 98 72.5C98 73.8807 99.1193 75 100.5 75Z"
            fill="black" />
        <path
            d="M109.5 75C110.881 75 112 73.8807 112 72.5C112 71.1193 110.881 70 109.5 70C108.119 70 107 71.1193 107 72.5C107 73.8807 108.119 75 109.5 75Z"
            fill="black" />
        <path
            d="M117.5 75C118.881 75 120 73.8807 120 72.5C120 71.1193 118.881 70 117.5 70C116.119 70 115 71.1193 115 72.5C115 73.8807 116.119 75 117.5 75Z"
            fill="black" />
        <path
            d="M126.5 76C127.881 76 129 74.8807 129 73.5C129 72.1193 127.881 71 126.5 71C125.119 71 124 72.1193 124 73.5C124 74.8807 125.119 76 126.5 76Z"
            fill="black" />
        <path
            d="M140.5 76C141.881 76 143 74.8807 143 73.5C143 72.1193 141.881 71 140.5 71C139.119 71 138 72.1193 138 73.5C138 74.8807 139.119 76 140.5 76Z"
            fill="black" />
        <path
            d="M149.5 76C150.881 76 152 74.8807 152 73.5C152 72.1193 150.881 71 149.5 71C148.119 71 147 72.1193 147 73.5C147 74.8807 148.119 76 149.5 76Z"
            fill="black" />
        <path
            d="M157.5 76C158.881 76 160 74.8807 160 73.5C160 72.1193 158.881 71 157.5 71C156.119 71 155 72.1193 155 73.5C155 74.8807 156.119 76 157.5 76Z"
            fill="black" />
        <path
            d="M166.5 77C167.881 77 169 75.8807 169 74.5C169 73.1193 167.881 72 166.5 72C165.119 72 164 73.1193 164 74.5C164 75.8807 165.119 77 166.5 77Z"
            fill="black" />
        <path
            d="M178.767 70.9073H178.722L176 72.566L176.05 70.7208L178.812 69L181 69.0526L180.733 79L178.55 78.9474L178.767 70.912V70.9073Z"
            fill="black" />
        <path
            d="M183.041 78.2665L186.502 74.8251C186.925 74.4085 187.242 74.0587 187.462 73.7758C187.683 73.4928 187.83 73.2459 187.913 73.0196C187.995 72.7984 188.037 72.5618 188.046 72.3149V72.2994C188.055 72.0011 187.995 71.7387 187.88 71.5124C187.766 71.2861 187.596 71.1009 187.384 70.9671C187.173 70.8334 186.925 70.7614 186.64 70.7511C186.313 70.7408 186.024 70.8077 185.771 70.9466C185.518 71.0855 185.321 71.2809 185.174 71.5278C185.027 71.7747 184.944 72.0628 184.926 72.3817L184.916 72.4486L183.06 72.3972V72.3354C183.078 71.6616 183.244 71.07 183.561 70.5659C183.878 70.0566 184.305 69.6657 184.843 69.3879C185.38 69.1102 185.987 68.9816 186.658 69.0021C187.329 69.0227 187.926 69.1719 188.432 69.4548C188.937 69.7377 189.328 70.1132 189.604 70.5916C189.88 71.0649 190.013 71.6101 189.999 72.2171V72.2326C189.99 72.6698 189.912 73.0659 189.76 73.4311C189.613 73.7963 189.374 74.177 189.048 74.5782C188.721 74.9795 188.276 75.4579 187.71 76.0083L184.875 78.7552L185.679 77.2737L185.642 78.7809L184.898 78.071L189.994 78.2202L189.953 80L183 79.7994L183.037 78.2613L183.041 78.2665Z"
            fill="black" />
        <path
            d="M192.898 79.5482C192.325 79.2725 191.87 78.8946 191.544 78.4196C191.218 77.9447 191.035 77.4033 191 76.7905V76.6935L193.057 76.7496L193.066 76.8314C193.096 77.0867 193.185 77.3165 193.348 77.5208C193.511 77.7251 193.724 77.8885 194.001 78.0111C194.278 78.1336 194.599 78.2 194.97 78.2102C195.34 78.2204 195.662 78.1643 195.939 78.0468C196.215 77.9293 196.428 77.7608 196.581 77.5412C196.735 77.3216 196.819 77.0663 196.824 76.7803V76.765C196.838 76.2594 196.67 75.8661 196.334 75.5853C195.993 75.3044 195.514 75.1563 194.891 75.141L193.714 75.1103L193.754 73.517L194.9 73.5476C195.261 73.5578 195.578 73.5016 195.845 73.3893C196.112 73.2769 196.319 73.1084 196.473 72.899C196.626 72.6845 196.705 72.4394 196.71 72.1534V72.1381C196.72 71.847 196.66 71.5968 196.542 71.3874C196.423 71.178 196.24 71.0146 196.003 70.9022C195.766 70.7899 195.479 70.7286 195.143 70.7184C194.807 70.7082 194.515 70.7592 194.253 70.8614C193.996 70.9635 193.788 71.1167 193.63 71.3159C193.472 71.5151 193.373 71.7551 193.333 72.0257L193.323 72.0972L191.341 72.0462L191.351 71.9491C191.42 71.3363 191.618 70.8052 191.949 70.3609C192.28 69.9115 192.725 69.5693 193.274 69.3293C193.828 69.0893 194.465 68.982 195.182 69.0024C195.899 69.0229 196.562 69.1557 197.1 69.4059C197.639 69.6561 198.055 69.9881 198.341 70.4171C198.628 70.846 198.766 71.3363 198.752 71.893V71.9083C198.742 72.3526 198.638 72.7356 198.435 73.0676C198.237 73.3995 197.97 73.6702 197.639 73.8744C197.308 74.0838 196.942 74.2217 196.542 74.2932V74.3392C197.303 74.4311 197.911 74.7069 198.356 75.1512C198.806 75.6006 199.019 76.1879 198.999 76.908V76.9233C198.984 77.5565 198.801 78.1081 198.46 78.5779C198.114 79.0478 197.639 79.4052 197.036 79.6555C196.433 79.9057 195.726 80.0181 194.925 79.9976C194.124 79.9772 193.467 79.8291 192.893 79.5482H192.898Z"
            fill="black" />
        <path
            d="M204.776 78.1307L200 78.0019L200.042 76.2613C200.305 75.8464 200.568 75.4268 200.841 75.0072C201.109 74.5875 201.376 74.1679 201.644 73.753C201.912 73.3381 202.18 72.9185 202.448 72.5036C202.716 72.0887 202.984 71.6691 203.252 71.2494C203.52 70.8298 203.788 70.4149 204.051 70L206.896 70.0763L206.734 76.5188L208 76.5522L207.958 78.2165L206.693 78.1831L206.647 80L204.73 79.9476L204.776 78.1307ZM204.855 76.5236L204.979 71.5308H204.933C204.725 71.855 204.517 72.1793 204.309 72.4988C204.102 72.8231 203.894 73.1474 203.681 73.4716C203.469 73.7959 203.261 74.1202 203.049 74.4444C202.836 74.7687 202.628 75.093 202.416 75.4173C202.203 75.7415 201.995 76.0658 201.788 76.3901V76.4473L204.85 76.5284L204.855 76.5236Z"
            fill="black" />
    </g>
    <g opacity="0.2">
        <path
            d="M226.159 145.981L46.7326 136.567C41.0771 136.272 36.7198 131.425 37.0141 125.764L42.0485 29.7416C42.3427 24.0809 47.1856 19.7196 52.8411 20.0141L232.267 29.4284C237.923 29.7229 242.28 34.5703 241.986 40.2311L236.956 136.258C236.662 141.919 231.819 146.28 226.164 145.986L226.159 145.981ZM52.7197 22.3466C48.3531 22.1176 44.6124 25.4879 44.3835 29.8585L39.3538 125.886C39.125 130.256 42.4921 134.001 46.8587 134.23L226.285 143.644C230.652 143.873 234.392 140.503 234.621 136.128L239.651 40.1002C239.88 35.7296 236.513 31.9854 232.146 31.7563L52.7197 22.3466Z"
            fill="black" />
        <path
            d="M197.502 130.998C190.238 130.622 184.641 124.491 185.018 117.328C185.395 110.165 191.618 104.646 198.882 105.018C199.532 105.05 200.031 105.598 199.998 106.239C199.965 106.88 199.41 107.373 198.76 107.34C192.791 107.034 187.684 111.567 187.373 117.448C187.062 123.329 191.66 128.369 197.624 128.676C198.274 128.708 198.774 129.257 198.741 129.898C198.708 130.539 198.152 131.031 197.502 130.998Z"
            fill="black" />
        <path
            d="M210.32 130.982C203.161 130.606 197.646 124.478 198.018 117.32C198.394 110.161 204.522 104.646 211.68 105.018C218.839 105.394 224.354 111.522 223.982 118.68C223.606 125.839 217.478 131.354 210.32 130.982ZM211.559 107.339C205.678 107.032 200.645 111.563 200.339 117.441C200.032 123.322 204.563 128.355 210.441 128.661C216.322 128.968 221.355 124.437 221.661 118.559C221.968 112.678 217.437 107.645 211.559 107.339Z"
            fill="black" />
        <path
            d="M161.773 116.998L58.1061 111.402C57.4629 111.368 56.9689 110.802 57.0015 110.139C57.0342 109.477 57.5841 108.968 58.2273 109.002L161.894 114.598C162.537 114.632 163.031 115.198 162.998 115.861C162.966 116.523 162.416 117.032 161.773 116.998Z"
            fill="black" />
        <path
            d="M61.5 73C62.8807 73 64 71.8807 64 70.5C64 69.1193 62.8807 68 61.5 68C60.1193 68 59 69.1193 59 70.5C59 71.8807 60.1193 73 61.5 73Z"
            fill="black" />
        <path
            d="M70.5 73C71.8807 73 73 71.8807 73 70.5C73 69.1193 71.8807 68 70.5 68C69.1193 68 68 69.1193 68 70.5C68 71.8807 69.1193 73 70.5 73Z"
            fill="black" />
        <path
            d="M78.5 74C79.8807 74 81 72.8807 81 71.5C81 70.1193 79.8807 69 78.5 69C77.1193 69 76 70.1193 76 71.5C76 72.8807 77.1193 74 78.5 74Z"
            fill="black" />
        <path
            d="M87.5 74C88.8807 74 90 72.8807 90 71.5C90 70.1193 88.8807 69 87.5 69C86.1193 69 85 70.1193 85 71.5C85 72.8807 86.1193 74 87.5 74Z"
            fill="black" />
        <path
            d="M100.5 75C101.881 75 103 73.8807 103 72.5C103 71.1193 101.881 70 100.5 70C99.1193 70 98 71.1193 98 72.5C98 73.8807 99.1193 75 100.5 75Z"
            fill="black" />
        <path
            d="M109.5 75C110.881 75 112 73.8807 112 72.5C112 71.1193 110.881 70 109.5 70C108.119 70 107 71.1193 107 72.5C107 73.8807 108.119 75 109.5 75Z"
            fill="black" />
        <path
            d="M117.5 76C118.881 76 120 74.8807 120 73.5C120 72.1193 118.881 71 117.5 71C116.119 71 115 72.1193 115 73.5C115 74.8807 116.119 76 117.5 76Z"
            fill="black" />
        <path
            d="M126.5 76C127.881 76 129 74.8807 129 73.5C129 72.1193 127.881 71 126.5 71C125.119 71 124 72.1193 124 73.5C124 74.8807 125.119 76 126.5 76Z"
            fill="black" />
        <path
            d="M140.5 77C141.881 77 143 75.8807 143 74.5C143 73.1193 141.881 72 140.5 72C139.119 72 138 73.1193 138 74.5C138 75.8807 139.119 77 140.5 77Z"
            fill="black" />
        <path
            d="M149.5 77C150.881 77 152 75.8807 152 74.5C152 73.1193 150.881 72 149.5 72C148.119 72 147 73.1193 147 74.5C147 75.8807 148.119 77 149.5 77Z"
            fill="black" />
        <path
            d="M157.5 78C158.881 78 160 76.8807 160 75.5C160 74.1193 158.881 73 157.5 73C156.119 73 155 74.1193 155 75.5C155 76.8807 156.119 78 157.5 78Z"
            fill="black" />
        <path
            d="M166.5 78C167.881 78 169 76.8807 169 75.5C169 74.1193 167.881 73 166.5 73C165.119 73 164 74.1193 164 75.5C164 76.8807 165.119 78 166.5 78Z"
            fill="black" />
        <path
            d="M179.76 72.8982H179.715L177 74.4776L177.099 72.6413L179.854 71L182 71.1094L181.461 81L179.324 80.8906L179.76 72.8982Z"
            fill="black" />
        <path
            d="M183.085 79.2511L186.538 76.2404C186.959 75.8739 187.277 75.5678 187.496 75.3219C187.716 75.076 187.868 74.8534 187.953 74.6539C188.038 74.4544 188.087 74.2457 188.096 74.023V74.0091C188.11 73.74 188.06 73.5034 187.953 73.2947C187.845 73.0859 187.684 72.9189 187.478 72.789C187.272 72.6591 187.035 72.5896 186.757 72.5756C186.439 72.5571 186.157 72.6081 185.906 72.7287C185.66 72.8493 185.459 73.021 185.311 73.239C185.163 73.457 185.073 73.7122 185.051 74.0044L185.042 74.0647L183.237 73.9673V73.9117C183.269 73.304 183.448 72.7798 183.766 72.3298C184.084 71.8798 184.514 71.5365 185.042 71.3046C185.575 71.068 186.166 70.9706 186.82 71.0077C187.474 71.0448 188.051 71.1932 188.535 71.4623C189.023 71.7313 189.395 72.0839 189.65 72.52C189.91 72.956 190.026 73.4478 189.995 73.9952V74.0091C189.973 74.4034 189.888 74.7606 189.735 75.0853C189.583 75.41 189.341 75.7487 189.014 76.1013C188.687 76.4538 188.24 76.8713 187.675 77.3538L184.85 79.7521L185.665 78.4347L185.597 79.7892L184.885 79.1259L189.847 79.3949L189.767 81L183 80.6335L183.072 79.2511H183.085Z"
            fill="black" />
        <path
            d="M192.599 81.5533C192.102 81.2839 191.717 80.9309 191.441 80.4897C191.169 80.0484 191.022 79.5515 191 78.9941V78.9058L192.798 79.008L192.806 79.0823C192.823 79.3146 192.901 79.5282 193.035 79.714C193.169 79.8998 193.355 80.0577 193.593 80.1738C193.83 80.2899 194.111 80.3596 194.435 80.3782C194.759 80.3968 195.04 80.355 195.282 80.2528C195.524 80.1506 195.714 80.0066 195.857 79.8069C195.999 79.6118 196.073 79.3842 196.086 79.1195V79.1056C196.107 78.6457 195.974 78.2835 195.684 78.0234C195.394 77.7633 194.975 77.6146 194.431 77.5821L193.402 77.5264L193.472 76.0819L194.474 76.1376C194.79 76.1562 195.066 76.1144 195.299 76.0169C195.533 75.9194 195.723 75.7754 195.861 75.5849C195.999 75.3945 196.073 75.1716 196.086 74.9115V74.8975C196.099 74.6328 196.056 74.4052 195.956 74.2148C195.857 74.0197 195.701 73.8711 195.498 73.7596C195.295 73.6481 195.044 73.5877 194.751 73.5692C194.457 73.5506 194.202 73.5877 193.973 73.676C193.744 73.7642 193.558 73.8943 193.415 74.0754C193.273 74.2566 193.182 74.4656 193.139 74.7117L193.13 74.7768L191.398 74.6792L191.411 74.591C191.484 74.0383 191.67 73.5599 191.972 73.1604C192.27 72.761 192.668 72.4591 193.156 72.2594C193.644 72.055 194.202 71.9714 194.828 72.0086C195.455 72.0457 196.03 72.1804 196.496 72.4219C196.963 72.6635 197.317 72.9747 197.559 73.3695C197.801 73.7642 197.909 74.2148 197.888 74.721V74.735C197.866 75.1391 197.767 75.4874 197.585 75.78C197.404 76.0773 197.166 76.3141 196.872 76.4953C196.578 76.6764 196.254 76.7925 195.904 76.8483V76.8901C196.566 76.9969 197.088 77.257 197.473 77.675C197.853 78.093 198.03 78.6318 197.996 79.2867V79.3006C197.966 79.8766 197.797 80.3736 197.486 80.7916C197.175 81.2096 196.751 81.5254 196.215 81.7344C195.68 81.9434 195.062 82.0317 194.362 81.9899C193.662 81.9481 193.091 81.7995 192.594 81.5301L192.599 81.5533Z"
            fill="black" />
        <path
            d="M204.749 80.0957L200 79.8399L200.087 78.1156C200.359 77.7129 200.634 77.3055 200.915 76.8934C201.191 76.486 201.471 76.0739 201.747 75.6712C202.023 75.2639 202.303 74.8565 202.579 74.4491C202.855 74.0417 203.136 73.6343 203.411 73.2222C203.687 72.8148 203.963 72.4074 204.239 72L207.067 72.1516L206.74 78.5467L208 78.613L207.917 80.2662L206.657 80.1999L206.566 82L204.657 81.8958L204.749 80.0957ZM204.869 78.4993L205.122 73.5443H205.076C204.86 73.8569 204.644 74.1743 204.428 74.487C204.211 74.7996 203.995 75.117 203.779 75.4344C203.559 75.7518 203.343 76.0692 203.126 76.3865C202.906 76.7039 202.69 77.0213 202.474 77.334C202.257 77.6466 202.041 77.964 201.825 78.2814V78.3382L204.869 78.504V78.4993Z"
            fill="black" />
    </g>
    <g opacity="0.3">
        <path
            d="M230.972 138.484L50.972 142.997C45.2996 143.137 40.5679 138.652 40.4275 132.996L38.0032 37.03C37.8628 31.3739 42.3605 26.6559 48.0328 26.5159L228.033 22.0032C233.705 21.8632 238.437 26.3479 238.577 32.0039L240.997 127.97C241.137 133.626 236.64 138.344 230.967 138.484H230.972ZM48.0937 28.8446C43.713 28.9566 40.2356 32.5966 40.348 36.9693L42.7676 132.935C42.88 137.303 46.5305 140.771 50.9158 140.663L230.916 136.151C235.296 136.039 238.774 132.394 238.661 128.026L236.242 32.0599C236.129 27.6919 232.479 24.2245 228.094 24.3365L48.0937 28.8446Z"
            fill="black" />
        <path
            d="M201.829 125.996C194.397 126.177 188.192 120.494 188.004 113.325C187.817 106.157 193.713 100.181 201.15 100C201.815 99.9864 202.369 100.492 202.383 101.133C202.398 101.774 201.873 102.308 201.208 102.322C195.1 102.47 190.259 107.378 190.413 113.265C190.567 119.152 195.659 123.818 201.767 123.67C202.431 123.656 202.985 124.162 203 124.803C203.014 125.443 202.489 125.977 201.824 125.991L201.829 125.996Z"
            fill="black" />
        <path
            d="M213.327 124.996C206.164 125.177 200.185 119.495 200.004 112.327C199.823 105.164 205.505 99.1853 212.673 99.0042C219.836 98.8232 225.815 104.505 225.996 111.673C226.177 118.836 220.495 124.815 213.327 124.996ZM212.733 101.33C206.847 101.478 202.181 106.385 202.33 112.272C202.478 118.158 207.385 122.823 213.272 122.675C219.158 122.526 223.823 117.619 223.675 111.733C223.526 105.847 218.619 101.181 212.733 101.33Z"
            fill="black" />
        <path
            d="M164.853 114.359L60.2034 117C59.5549 117.014 59.0144 116.5 59.0003 115.849C58.9862 115.198 59.4985 114.656 60.147 114.641L164.797 112C165.445 111.986 165.986 112.5 166 113.151C166.014 113.802 165.502 114.344 164.853 114.359Z"
            fill="black" />
        <path
            d="M60.5 78C61.8807 78 63 77.1046 63 76C63 74.8954 61.8807 74 60.5 74C59.1193 74 58 74.8954 58 76C58 77.1046 59.1193 78 60.5 78Z"
            fill="black" />
        <path
            d="M69.5 77C70.8807 77 72 76.1046 72 75C72 73.8954 70.8807 73 69.5 73C68.1193 73 67 73.8954 67 75C67 76.1046 68.1193 77 69.5 77Z"
            fill="black" />
        <path
            d="M77.5 77C78.8807 77 80 76.1046 80 75C80 73.8954 78.8807 73 77.5 73C76.1193 73 75 73.8954 75 75C75 76.1046 76.1193 77 77.5 77Z"
            fill="black" />
        <path
            d="M86.5 77C87.8807 77 89 76.1046 89 75C89 73.8954 87.8807 73 86.5 73C85.1193 73 84 73.8954 84 75C84 76.1046 85.1193 77 86.5 77Z"
            fill="black" />
        <path
            d="M99.5 77C100.881 77 102 76.1046 102 75C102 73.8954 100.881 73 99.5 73C98.1193 73 97 73.8954 97 75C97 76.1046 98.1193 77 99.5 77Z"
            fill="black" />
        <path
            d="M108.5 76C109.881 76 111 75.1046 111 74C111 72.8954 109.881 72 108.5 72C107.119 72 106 72.8954 106 74C106 75.1046 107.119 76 108.5 76Z"
            fill="black" />
        <path
            d="M116.5 76C117.881 76 119 75.1046 119 74C119 72.8954 117.881 72 116.5 72C115.119 72 114 72.8954 114 74C114 75.1046 115.119 76 116.5 76Z"
            fill="black" />
        <path
            d="M125.5 76C126.881 76 128 75.1046 128 74C128 72.8954 126.881 72 125.5 72C124.119 72 123 72.8954 123 74C123 75.1046 124.119 76 125.5 76Z"
            fill="black" />
        <path
            d="M139.5 76C140.881 76 142 75.1046 142 74C142 72.8954 140.881 72 139.5 72C138.119 72 137 72.8954 137 74C137 75.1046 138.119 76 139.5 76Z"
            fill="black" />
        <path
            d="M148.5 75C149.881 75 151 74.1046 151 73C151 71.8954 149.881 71 148.5 71C147.119 71 146 71.8954 146 73C146 74.1046 147.119 75 148.5 75Z"
            fill="black" />
        <path
            d="M156.5 75C157.881 75 159 74.1046 159 73C159 71.8954 157.881 71 156.5 71C155.119 71 154 71.8954 154 73C154 74.1046 155.119 75 156.5 75Z"
            fill="black" />
        <path
            d="M165.5 75C166.881 75 168 74.1046 168 73C168 71.8954 166.881 71 165.5 71C164.119 71 163 71.8954 163 73C163 74.1046 164.119 75 165.5 75Z"
            fill="black" />
        <path
            d="M177.665 69.7639H177.621L175.049 71.3728L175 69.7122L177.606 68.0473L179.744 68L180 76.9527L177.867 77L177.66 69.7682L177.665 69.7639Z"
            fill="black" />
        <path
            d="M182.237 75.5958L185.432 72.2912C185.819 71.8887 186.113 71.5564 186.313 71.2896C186.513 71.0228 186.646 70.7887 186.718 70.5781C186.789 70.3722 186.82 70.1569 186.815 69.9322V69.9181C186.807 69.6467 186.744 69.4126 186.62 69.2114C186.495 69.0101 186.326 68.8556 186.113 68.7433C185.899 68.631 185.659 68.5795 185.383 68.5888C185.067 68.5982 184.791 68.6731 184.555 68.8135C184.32 68.9539 184.133 69.1412 184.004 69.3752C183.87 69.6092 183.803 69.8713 183.803 70.1662V70.2271L182.002 70.2739V70.2177C181.984 69.6045 182.122 69.0616 182.406 68.5841C182.691 68.1067 183.087 67.7276 183.594 67.4467C184.106 67.1659 184.684 67.0208 185.334 67.0021C185.983 66.9834 186.566 67.091 187.069 67.3204C187.572 67.5497 187.963 67.8727 188.253 68.2939C188.542 68.7105 188.693 69.1973 188.706 69.7496V69.7637C188.715 70.1615 188.657 70.5266 188.528 70.8636C188.404 71.2006 188.19 71.5611 187.888 71.9449C187.59 72.324 187.18 72.7827 186.655 73.3163L184.035 75.9609L184.747 74.5707L184.778 75.9422L184.026 75.3337L188.96 75.2026L189 76.8221L182.268 77L182.233 75.6005L182.237 75.5958Z"
            fill="black" />
        <path
            d="M192.034 76.6908C191.447 76.4682 190.978 76.1435 190.632 75.7308C190.281 75.3133 190.074 74.831 190.01 74.2791L190 74.191L192.059 74.1446L192.074 74.2188C192.113 74.4507 192.217 74.6548 192.385 74.831C192.553 75.0073 192.78 75.1464 193.056 75.2438C193.338 75.3412 193.664 75.3876 194.034 75.3783C194.404 75.369 194.72 75.3041 194.992 75.1835C195.264 75.0629 195.466 74.9006 195.609 74.6919C195.752 74.4878 195.822 74.2513 195.817 73.9869V73.973C195.802 73.5139 195.619 73.166 195.268 72.9295C194.918 72.693 194.429 72.5817 193.807 72.5956L192.632 72.6234L192.592 71.1764L193.738 71.1486C194.098 71.1393 194.409 71.079 194.671 70.9584C194.933 70.8378 195.13 70.6801 195.273 70.4807C195.417 70.2813 195.481 70.0494 195.476 69.7943V69.7804C195.466 69.516 195.402 69.2934 195.268 69.1079C195.14 68.9224 194.952 68.7833 194.711 68.6905C194.469 68.5977 194.177 68.556 193.842 68.5653C193.506 68.5746 193.214 68.6302 192.963 68.7369C192.711 68.8435 192.508 68.992 192.36 69.1775C192.212 69.363 192.128 69.5856 192.099 69.836V69.901L190.114 69.9474V69.8592C190.158 69.3027 190.331 68.8111 190.637 68.389C190.948 67.967 191.368 67.6331 191.911 67.3919C192.449 67.1507 193.081 67.0209 193.797 67.0023C194.513 66.9838 195.185 67.0765 195.733 67.276C196.281 67.4754 196.71 67.7583 197.021 68.134C197.332 68.5096 197.49 68.9456 197.505 69.4557V69.4697C197.515 69.8732 197.431 70.2256 197.248 70.5364C197.066 70.8471 196.814 71.1022 196.493 71.3062C196.172 71.5103 195.817 71.6541 195.417 71.7376V71.7793C196.182 71.8303 196.799 72.0437 197.268 72.4332C197.737 72.8182 197.979 73.3423 197.999 73.9962V74.0101C198.014 74.5852 197.861 75.0954 197.54 75.536C197.219 75.9766 196.765 76.329 196.172 76.5841C195.58 76.8392 194.883 76.9737 194.083 76.9969C193.284 77.0201 192.622 76.9134 192.034 76.6862V76.6908Z"
            fill="black" />
        <path
            d="M203.815 74.3644L199.042 74.4763L199 72.9053C199.24 72.5179 199.485 72.1306 199.734 71.7389C199.979 71.3472 200.228 70.9598 200.477 70.5681C200.722 70.1808 200.971 69.7891 201.216 69.4017C201.465 69.0143 201.71 68.6227 201.959 68.231C202.208 67.8393 202.453 67.4519 202.693 67.0646L205.537 67L205.694 72.8149L206.958 72.7848L207 74.2869L205.735 74.3171L205.781 75.957L203.866 76L203.819 74.3601L203.815 74.3644ZM203.815 72.9096L203.695 68.4032H203.649C203.455 68.7088 203.265 69.01 203.072 69.307C202.878 69.6083 202.688 69.9096 202.495 70.2109C202.301 70.5122 202.107 70.8178 201.913 71.1191C201.719 71.4204 201.525 71.7217 201.331 72.023C201.137 72.3242 200.943 72.6255 200.754 72.9268V72.9785L203.819 72.9053L203.815 72.9096Z"
            fill="black" />
    </g>
    <g opacity="0.2">
        <path
            d="M232.236 136.911L52.6301 145.987C46.9695 146.273 42.1316 141.885 41.8464 136.213L37.0132 39.8986C36.7281 34.2218 41.0986 29.37 46.7592 29.084L226.365 20.0132C232.026 19.7273 236.864 24.1103 237.149 29.7872L241.987 126.097C242.272 131.774 237.901 136.625 232.241 136.911H232.236ZM46.876 31.4279C42.5008 31.6482 39.126 35.3984 39.3457 39.7814L44.1836 136.091C44.4033 140.479 48.1428 143.863 52.5132 143.643L232.119 134.567C236.494 134.347 239.869 130.597 239.65 126.214L234.812 29.9044C234.592 25.5166 230.853 22.1321 226.482 22.3524L46.876 31.4279Z"
            fill="black" />
        <path
            d="M201.875 124.983C194.599 125.346 188.38 119.808 188.017 112.645C187.649 105.482 193.274 99.3592 200.55 99.0015C201.201 98.969 201.753 99.4614 201.786 100.102C201.819 100.744 201.319 101.287 200.667 101.32C194.689 101.617 190.074 106.643 190.376 112.529C190.678 118.415 195.784 122.958 201.762 122.66C202.413 122.628 202.965 123.12 202.998 123.761C203.031 124.403 202.531 124.946 201.88 124.979L201.875 124.983Z"
            fill="black" />
        <path
            d="M214.652 123.983C207.493 124.345 201.374 118.811 201.016 111.652C200.659 104.493 206.188 98.3739 213.347 98.0164C220.507 97.6589 226.626 103.188 226.983 110.347C227.345 117.507 221.811 123.626 214.652 123.983ZM213.459 100.333C207.577 100.63 203.036 105.654 203.333 111.536C203.63 117.418 208.654 121.959 214.536 121.662C220.418 121.365 224.959 116.341 224.662 110.459C224.365 104.577 219.341 100.036 213.459 100.333Z"
            fill="black" />
        <path
            d="M164.894 114.465L61.2225 119.998C60.5794 120.033 60.0341 119.51 60.0015 118.828C59.9689 118.147 60.4629 117.57 61.106 117.535L164.777 112.002C165.421 111.967 165.966 112.49 165.998 113.172C166.031 113.853 165.537 114.43 164.894 114.465Z"
            fill="black" />
        <path
            d="M60.5 80C61.8807 80 63 78.8807 63 77.5C63 76.1193 61.8807 75 60.5 75C59.1193 75 58 76.1193 58 77.5C58 78.8807 59.1193 80 60.5 80Z"
            fill="black" />
        <path
            d="M69.5 80C70.8807 80 72 78.8807 72 77.5C72 76.1193 70.8807 75 69.5 75C68.1193 75 67 76.1193 67 77.5C67 78.8807 68.1193 80 69.5 80Z"
            fill="black" />
        <path
            d="M77.5 79C78.8807 79 80 77.8807 80 76.5C80 75.1193 78.8807 74 77.5 74C76.1193 74 75 75.1193 75 76.5C75 77.8807 76.1193 79 77.5 79Z"
            fill="black" />
        <path
            d="M86.5 79C87.8807 79 89 77.8807 89 76.5C89 75.1193 87.8807 74 86.5 74C85.1193 74 84 75.1193 84 76.5C84 77.8807 85.1193 79 86.5 79Z"
            fill="black" />
        <path
            d="M99.5 78C100.881 78 102 76.8807 102 75.5C102 74.1193 100.881 73 99.5 73C98.1193 73 97 74.1193 97 75.5C97 76.8807 98.1193 78 99.5 78Z"
            fill="black" />
        <path
            d="M108.5 78C109.881 78 111 76.8807 111 75.5C111 74.1193 109.881 73 108.5 73C107.119 73 106 74.1193 106 75.5C106 76.8807 107.119 78 108.5 78Z"
            fill="black" />
        <path
            d="M116.5 77C117.881 77 119 75.8807 119 74.5C119 73.1193 117.881 72 116.5 72C115.119 72 114 73.1193 114 74.5C114 75.8807 115.119 77 116.5 77Z"
            fill="black" />
        <path
            d="M125.5 77C126.881 77 128 75.8807 128 74.5C128 73.1193 126.881 72 125.5 72C124.119 72 123 73.1193 123 74.5C123 75.8807 124.119 77 125.5 77Z"
            fill="black" />
        <path
            d="M139.5 76C140.881 76 142 74.8807 142 73.5C142 72.1193 140.881 71 139.5 71C138.119 71 137 72.1193 137 73.5C137 74.8807 138.119 76 139.5 76Z"
            fill="black" />
        <path
            d="M148.5 76C149.881 76 151 74.8807 151 73.5C151 72.1193 149.881 71 148.5 71C147.119 71 146 72.1193 146 73.5C146 74.8807 147.119 76 148.5 76Z"
            fill="black" />
        <path
            d="M156.5 75C157.881 75 159 73.8807 159 72.5C159 71.1193 157.881 70 156.5 70C155.119 70 154 71.1193 154 72.5C154 73.8807 155.119 75 156.5 75Z"
            fill="black" />
        <path
            d="M165.5 75C166.881 75 168 73.8807 168 72.5C168 71.1193 166.881 70 165.5 70C164.119 70 163 71.1193 163 72.5C163 73.8807 164.119 75 165.5 75Z"
            fill="black" />
        <path
            d="M177.552 68.0038H177.509L175.09 69.8458L175 68.0086L177.453 66.1047L179.504 66L180 75.8953L177.958 76L177.557 68.0038H177.552Z"
            fill="black" />
        <path
            d="M182.413 74.6163L185.896 71.2547C186.319 70.8461 186.637 70.5072 186.856 70.2379C187.07 69.9686 187.214 69.7318 187.289 69.5228C187.363 69.3139 187.393 69.1003 187.378 68.8774V68.8635C187.363 68.5942 187.284 68.3621 187.139 68.167C186.995 67.972 186.801 67.8188 186.562 67.7167C186.324 67.6145 186.05 67.5681 185.742 67.582C185.388 67.6006 185.08 67.6795 184.821 67.8281C184.562 67.972 184.358 68.167 184.219 68.3992C184.08 68.636 184.01 68.896 184.015 69.1885V69.2489L182.005 69.3418V69.286C181.971 68.6778 182.105 68.1345 182.408 67.6517C182.712 67.1688 183.145 66.7834 183.707 66.4955C184.269 66.203 184.911 66.0451 185.637 66.008C186.363 65.9708 187.015 66.0637 187.587 66.2773C188.154 66.4909 188.602 66.802 188.935 67.2106C189.269 67.6192 189.453 68.0928 189.483 68.6453V68.6592C189.503 69.0539 189.448 69.416 189.313 69.755C189.179 70.0939 188.95 70.4561 188.627 70.8415C188.304 71.2269 187.856 71.6912 187.289 72.2344L184.428 74.9228L185.184 73.5252L185.259 74.8857L184.403 74.3006L189.915 74.0406L190 75.6471L182.483 76L182.408 74.6163H182.413Z"
            fill="black" />
        <path
            d="M192.104 74.7411C191.511 74.5323 191.032 74.2213 190.672 73.8129C190.311 73.4045 190.094 72.9265 190.01 72.3742L190 72.286L192.055 72.1886L192.074 72.2628C192.119 72.4949 192.227 72.6944 192.405 72.8662C192.583 73.0379 192.805 73.1725 193.092 73.2653C193.373 73.3581 193.699 73.3952 194.07 73.3767C194.44 73.3581 194.756 73.2885 195.023 73.1585C195.29 73.0286 195.487 72.8662 195.625 72.6527C195.764 72.4438 195.828 72.2071 195.813 71.9426V71.9287C195.788 71.4692 195.596 71.1258 195.235 70.8984C194.875 70.671 194.386 70.5689 193.763 70.6014L192.588 70.657L192.509 69.2137L193.655 69.158C194.015 69.1394 194.326 69.0698 194.583 68.9445C194.84 68.8192 195.038 68.6568 195.176 68.4526C195.314 68.2484 195.374 68.0163 195.359 67.7611V67.7471C195.344 67.4826 195.27 67.2598 195.132 67.0835C194.998 66.9025 194.806 66.7679 194.559 66.6797C194.317 66.5915 194.025 66.559 193.684 66.573C193.344 66.5869 193.062 66.6519 192.81 66.7632C192.558 66.8746 192.366 67.0278 192.223 67.2181C192.079 67.4083 192 67.6311 191.981 67.8817V67.9513L190 68.0442V67.956C190.025 67.3944 190.183 66.9025 190.484 66.4709C190.78 66.0393 191.195 65.7005 191.729 65.4452C192.262 65.1899 192.889 65.0461 193.605 65.0089C194.322 64.9718 194.993 65.0507 195.546 65.2364C196.1 65.422 196.539 65.6958 196.855 66.0625C197.171 66.4291 197.349 66.8654 197.374 67.3712V67.3851C197.398 67.7889 197.319 68.1463 197.147 68.4572C196.974 68.7728 196.732 69.0327 196.416 69.2462C196.1 69.4597 195.749 69.6128 195.354 69.7056V69.7474C196.124 69.7799 196.747 69.9795 197.226 70.3554C197.705 70.7313 197.962 71.2465 197.996 71.9008V71.9148C198.026 72.4902 197.887 73.0007 197.581 73.4509C197.27 73.9011 196.826 74.2631 196.243 74.5323C195.66 74.8015 194.964 74.9546 194.163 74.9917C193.363 75.0289 192.702 74.9407 192.104 74.7318V74.7411Z"
            fill="black" />
        <path
            d="M203.829 73.1905L199.083 73.4381L199 71.7048C199.23 71.2714 199.464 70.8333 199.698 70.3952C199.933 69.9571 200.167 69.519 200.406 69.081C200.64 68.6429 200.875 68.2095 201.114 67.7714C201.348 67.3333 201.587 66.8952 201.821 66.4571C202.056 66.019 202.29 65.581 202.52 65.1476L205.346 65L205.658 71.4286L206.917 71.3619L207 73.0238L205.741 73.0905L205.828 74.9L203.921 75L203.834 73.1905H203.829ZM203.793 71.581L203.549 66.6H203.503C203.319 66.9429 203.14 67.281 202.956 67.619C202.773 67.9571 202.589 68.2952 202.405 68.6333C202.221 68.9714 202.033 69.3143 201.849 69.6524C201.665 69.9905 201.477 70.3333 201.293 70.6667C201.109 71 200.925 71.3429 200.742 71.681V71.7381L203.788 71.581H203.793Z"
            fill="black" />
    </g>
</svg>