<svg width="280" height="197" viewBox="0 0 280 197" fill="none" xmlns="http://www.w3.org/2000/svg">
    <path
        d="M153 175.5C153 182.956 146.956 189 139.5 189C132.045 189 126 182.956 126 175.5C126 168.044 132.045 162 139.5 162C146.956 162 153 168.044 153 175.5Z"
        fill="#F43F5E" />
    <path
        d="M141.103 175.501L143.666 172.937C143.771 172.831 143.855 172.707 143.912 172.569C143.97 172.431 143.999 172.284 143.999 172.135C143.999 171.986 143.97 171.838 143.912 171.7C143.855 171.563 143.771 171.438 143.666 171.333C143.561 171.227 143.436 171.144 143.298 171.086C143.161 171.029 143.013 171 142.864 171C142.715 171 142.568 171.029 142.43 171.086C142.293 171.144 142.168 171.227 142.063 171.333L139.5 173.897L136.937 171.333C136.832 171.227 136.707 171.144 136.57 171.086C136.432 171.029 136.285 171 136.136 171C135.987 171 135.839 171.029 135.702 171.086C135.564 171.144 135.439 171.227 135.334 171.333C135.229 171.438 135.145 171.563 135.088 171.7C135.03 171.838 135.001 171.986 135.001 172.135C135.001 172.284 135.03 172.431 135.088 172.569C135.145 172.707 135.229 172.831 135.334 172.937L137.897 175.501L135.334 178.066C135.175 178.224 135.066 178.426 135.022 178.646C134.978 178.866 135 179.095 135.086 179.302C135.172 179.51 135.318 179.687 135.505 179.811C135.692 179.935 135.911 180.001 136.136 180C136.425 180 136.715 179.891 136.937 179.67L139.5 177.105L142.063 179.67C142.285 179.891 142.575 180 142.864 180C143.089 180.001 143.308 179.935 143.495 179.811C143.682 179.687 143.828 179.51 143.914 179.302C144 179.095 144.022 178.866 143.978 178.646C143.934 178.426 143.825 178.224 143.666 178.066L141.103 175.501Z"
        fill="white" />
    <path opacity="0.3"
        d="M222.871 26H94.1287C87.9825 26 83 30.9709 83 37.1029V101.897C83 108.029 87.9825 113 94.1287 113H222.871C229.018 113 234 108.029 234 101.897V37.1029C234 30.9709 229.018 26 222.871 26Z"
        fill="#142641" />
    <path
        d="M225.871 22H97.1287C90.9825 22 86 26.9709 86 33.1029V97.8971C86 104.029 90.9825 109 97.1287 109H225.871C232.018 109 237 104.029 237 97.8971V33.1029C237 26.9709 232.018 22 225.871 22Z"
        fill="white" />
    <path
        d="M102 61C103.105 61 104 60.1046 104 59C104 57.8954 103.105 57 102 57C100.895 57 100 57.8954 100 59C100 60.1046 100.895 61 102 61Z"
        fill="#142641" />
    <path
        d="M109 61C110.105 61 111 60.1046 111 59C111 57.8954 110.105 57 109 57C107.895 57 107 57.8954 107 59C107 60.1046 107.895 61 109 61Z"
        fill="#142641" />
    <path
        d="M115 61C116.105 61 117 60.1046 117 59C117 57.8954 116.105 57 115 57C113.895 57 113 57.8954 113 59C113 60.1046 113.895 61 115 61Z"
        fill="#142641" />
    <path
        d="M122 61C123.105 61 124 60.1046 124 59C124 57.8954 123.105 57 122 57C120.895 57 120 57.8954 120 59C120 60.1046 120.895 61 122 61Z"
        fill="#142641" />
    <path
        d="M132 61C133.105 61 134 60.1046 134 59C134 57.8954 133.105 57 132 57C130.895 57 130 57.8954 130 59C130 60.1046 130.895 61 132 61Z"
        fill="#142641" />
    <path
        d="M139 61C140.105 61 141 60.1046 141 59C141 57.8954 140.105 57 139 57C137.895 57 137 57.8954 137 59C137 60.1046 137.895 61 139 61Z"
        fill="#142641" />
    <path
        d="M145 61C146.105 61 147 60.1046 147 59C147 57.8954 146.105 57 145 57C143.895 57 143 57.8954 143 59C143 60.1046 143.895 61 145 61Z"
        fill="#142641" />
    <path
        d="M152 61C153.105 61 154 60.1046 154 59C154 57.8954 153.105 57 152 57C150.895 57 150 57.8954 150 59C150 60.1046 150.895 61 152 61Z"
        fill="#142641" />
    <path
        d="M162 61C163.105 61 164 60.1046 164 59C164 57.8954 163.105 57 162 57C160.895 57 160 57.8954 160 59C160 60.1046 160.895 61 162 61Z"
        fill="#142641" />
    <path
        d="M169 61C170.105 61 171 60.1046 171 59C171 57.8954 170.105 57 169 57C167.895 57 167 57.8954 167 59C167 60.1046 167.895 61 169 61Z"
        fill="#142641" />
    <path
        d="M175 61C176.105 61 177 60.1046 177 59C177 57.8954 176.105 57 175 57C173.895 57 173 57.8954 173 59C173 60.1046 173.895 61 175 61Z"
        fill="#142641" />
    <path
        d="M182 61C183.105 61 184 60.1046 184 59C184 57.8954 183.105 57 182 57C180.895 57 180 57.8954 180 59C180 60.1046 180.895 61 182 61Z"
        fill="#142641" />
    <path
        d="M191.009 56.7921H190.967L189 58.1286V56.3857L191.003 55H193V63H191.003V56.7921H191.009Z"
        fill="#142641" />
    <path
        d="M194.113 61.6274L196.846 59.1844C197.172 58.8942 197.416 58.6523 197.576 58.4588C197.737 58.2653 197.85 58.0899 197.909 57.9388C197.968 57.7876 197.998 57.6304 197.998 57.4732V57.4611C197.998 57.2736 197.956 57.1043 197.867 56.9652C197.778 56.8201 197.659 56.7113 197.505 56.6266C197.35 56.542 197.172 56.5057 196.97 56.5057C196.739 56.5057 196.537 56.554 196.364 56.6447C196.192 56.7354 196.055 56.8685 195.96 57.0257C195.865 57.189 195.812 57.3764 195.8 57.5881V57.6485H194V57.6002C194 57.0862 194.125 56.6387 194.38 56.2457C194.636 55.8526 194.986 55.5503 195.432 55.3265C195.877 55.1088 196.394 55 196.97 55C197.547 55 198.069 55.0968 198.509 55.2963C198.949 55.4958 199.287 55.768 199.531 56.1187C199.774 56.4694 199.899 56.8806 199.899 57.3462V57.3583C199.899 57.6909 199.84 57.9932 199.727 58.2653C199.614 58.5374 199.43 58.8156 199.168 59.0998C198.913 59.384 198.568 59.7166 198.141 60.0915L195.842 62.0869L196.638 60.7143V62.0869L195.848 61.458H200V63H194.113V61.6395V61.6274Z"
        fill="#142641" />
    <path
        d="M202.463 62.709C202.03 62.513 201.687 62.2398 201.433 61.8894C201.18 61.539 201.034 61.1351 201 60.6719V60.6006H202.767L202.779 60.6659C202.801 60.8144 202.863 60.9451 202.964 61.0638C203.066 61.1826 203.201 61.2777 203.375 61.3489C203.544 61.4202 203.747 61.4558 203.983 61.4558C204.22 61.4558 204.411 61.4143 204.58 61.3371C204.749 61.2598 204.878 61.1529 204.968 61.0163C205.058 60.8797 205.103 60.7194 205.103 60.5412V60.5293C205.103 60.2146 204.991 59.977 204.777 59.8107C204.557 59.6444 204.242 59.5672 203.837 59.5672H203.049V58.2368H203.831C204.073 58.2368 204.276 58.2012 204.445 58.124C204.614 58.0468 204.749 57.9458 204.839 57.8092C204.934 57.6726 204.979 57.5182 204.979 57.34V57.3281C204.979 57.15 204.94 56.9956 204.861 56.8708C204.782 56.7402 204.664 56.6451 204.518 56.5739C204.366 56.5085 204.186 56.4729 203.977 56.4729C203.769 56.4729 203.578 56.5085 203.415 56.5739C203.251 56.6392 203.128 56.7402 203.038 56.8708C202.942 56.9956 202.886 57.144 202.869 57.3103V57.3578H201.174V57.2806C201.214 56.8233 201.349 56.4195 201.585 56.0809C201.822 55.7424 202.143 55.4751 202.553 55.2851C202.959 55.095 203.437 55 203.977 55C204.518 55 205.013 55.0832 205.424 55.2554C205.835 55.4276 206.15 55.6652 206.375 55.9681C206.6 56.2769 206.707 56.6333 206.707 57.049V57.0609C206.707 57.3875 206.64 57.6667 206.505 57.9102C206.37 58.1537 206.184 58.3497 205.953 58.5041C205.722 58.6585 205.469 58.7654 205.199 58.8248V58.8604C205.745 58.9198 206.184 59.1039 206.51 59.4128C206.837 59.7216 207 60.1314 207 60.6422V60.654C207 61.1292 206.876 61.539 206.629 61.8894C206.381 62.2398 206.032 62.513 205.582 62.709C205.131 62.905 204.602 63 203.983 63C203.403 63 202.902 62.899 202.469 62.703L202.463 62.709Z"
        fill="#142641" />
    <path
        d="M211.439 61.6451H208V59.9885C208.171 59.6559 208.348 59.3233 208.53 58.9908C208.707 58.6582 208.884 58.3256 209.061 57.9931C209.237 57.6605 209.414 57.3279 209.591 56.9954C209.768 56.6628 209.945 56.3303 210.121 55.9977C210.298 55.6651 210.475 55.3326 210.646 55H213.116V60.05H214V61.6389H213.116V63H211.439V61.6389V61.6451ZM211.487 60.1301V56.4103H211.45C211.316 56.6567 211.188 56.8968 211.059 57.1432C210.93 57.3895 210.796 57.6297 210.668 57.8761C210.539 58.1224 210.405 58.3626 210.271 58.6089C210.137 58.8553 210.004 59.1016 209.875 59.3418C209.746 59.5881 209.612 59.8283 209.484 60.0747V60.1301H211.493H211.487Z"
        fill="#142641" />
    <path fill-rule="evenodd" clip-rule="evenodd"
        d="M100 90C100 89.4477 100.456 89 101.019 89H179.981C180.544 89 181 89.4477 181 90C181 90.5523 180.544 91 179.981 91H101.019C100.456 91 100 90.5523 100 90Z"
        fill="#F43F5E" />
    <path fill-rule="evenodd" clip-rule="evenodd"
        d="M217.5 81C212.806 81 209 84.8056 209 89.5C209 94.1944 212.806 98 217.5 98C222.194 98 226 94.1944 226 89.5C226 84.8056 222.194 81 217.5 81ZM207 89.5C207 83.701 211.701 79 217.5 79C223.299 79 228 83.701 228 89.5C228 95.299 223.299 100 217.5 100C211.701 100 207 95.299 207 89.5Z"
        fill="#142641" />
    <path fill-rule="evenodd" clip-rule="evenodd"
        d="M206.957 81C202.058 81 198.087 84.8056 198.087 89.5C198.087 94.1944 202.058 98 206.957 98C207.533 98 208 98.4477 208 99C208 99.5523 207.533 100 206.957 100C200.905 100 196 95.299 196 89.5C196 83.701 200.905 79 206.957 79C207.533 79 208 79.4477 208 80C208 80.5523 207.533 81 206.957 81Z"
        fill="#142641" />
    <path fill-rule="evenodd" clip-rule="evenodd"
        d="M93.8523 24.0013C90.6153 24.0013 87.9964 26.623 87.9964 29.8506V102.149C87.9964 105.377 90.6153 107.999 93.8523 107.999H229.148C232.385 107.999 235.004 105.377 235.004 102.149V29.8506C235.004 26.623 232.385 24.0013 229.148 24.0013H93.8523ZM86 29.8506C86 25.512 89.5185 22 93.8523 22H229.148C233.482 22 237 25.512 237 29.8506V102.149C237 106.488 233.482 110 229.148 110H93.8523C89.5185 110 86 106.488 86 102.149V29.8506Z"
        fill="#142641" />
    <path opacity="0.3"
        d="M89.2036 114.895C89.1367 114.798 89.0713 114.696 89.0072 114.591C88.7204 114.118 88.428 113.666 88.1329 113.211C85.2963 108.829 82.2253 104.086 81.7733 77.0558C81.637 68.9075 81.692 57.5728 81.7369 48.3035C81.756 44.3606 81.7733 40.7913 81.7733 38C64.1781 49.7777 63.6997 51.0166 57.4557 67.1861C56.375 69.9848 55.1216 73.2306 53.5768 77.0558C44.3059 100.013 44.5047 115.47 45.409 125.36C45.9874 131.685 47.1099 137.986 48.7619 144.121L52.1352 156.647C52.9856 159.805 55.8684 162 59.1501 162H93.2216C97.3896 162 101.162 159.493 102.479 155.553C103.501 152.498 104.448 149.343 105.377 146.25C106.125 143.757 106.861 141.304 107.616 138.973C108.443 136.417 109.147 134.15 109.742 132.132L133.086 106.273C137.492 101.394 136.82 93.8002 131.625 89.7619C127.325 86.419 121.254 86.6063 117.174 90.2078L89.2036 114.895Z"
        fill="#142641" />
    <path fill-rule="evenodd" clip-rule="evenodd"
        d="M93.0613 105.73C91.8393 104.969 90.6842 103.824 89.6801 102.175C89.0452 101.133 88.5697 100.384 88.2103 99.5832C86.8408 96.5329 87.1581 92.7367 86.7614 69.0933C86.6241 60.9131 86.6801 49.0116 86.7253 39.4194C86.7443 35.3897 86.7614 31.7675 86.7614 29C66.0449 42.8189 60.7818 53.0985 50.2733 79.0296C40.0985 104.137 43.0058 117.756 44.8333 126.318C44.8591 126.438 44.8847 126.558 44.91 126.677C45.4265 129.101 45.7742 131.558 46.1218 134.015C46.3407 135.562 46.5595 137.109 46.8205 138.648L49.2512 152.975C49.8412 156.453 52.8864 159 56.4403 159H90.0628C94.2466 159 98.0333 156.493 99.3551 152.553C100.381 149.497 101.331 146.341 102.263 143.247C103.015 140.753 103.754 138.299 104.511 135.968C105.336 133.427 106.04 131.171 106.635 129.161L130.077 103.285C134.497 98.4058 133.822 90.8122 128.609 86.7738C124.294 83.4307 118.202 83.6177 114.107 87.2191L93.0613 105.73Z"
        fill="white" />
    <path fill-rule="evenodd" clip-rule="evenodd"
        d="M87.7653 26L86.2014 27.0443C75.774 34.0076 69.1745 40.1212 63.8639 47.8006C58.5738 55.4504 54.5947 64.6118 49.3451 77.5798C44.2214 90.2371 42.3751 100.04 42.0532 107.79C41.7315 115.536 42.9362 121.186 43.8528 125.484L43.9315 125.853C44.4397 128.241 44.7828 130.666 45.1312 133.131L45.1322 133.138C45.3504 134.682 45.5708 136.242 45.8341 137.795L48.2645 152.137C48.9362 156.101 52.4011 159 56.443 159H90.0626C94.6433 159 98.8376 156.248 100.307 151.865C101.337 148.79 102.291 145.619 103.222 142.526L103.224 142.519C103.976 140.021 104.712 137.575 105.465 135.254C106.263 132.795 106.948 130.599 107.532 128.633L130.819 102.899C135.629 97.5844 134.894 89.3157 129.223 84.9177C124.527 81.2756 117.896 81.479 113.439 85.4032L92.9853 103.413C92.126 102.756 91.2944 101.847 90.5391 100.605C90.4628 100.479 90.3894 100.359 90.3189 100.244C89.7866 99.3713 89.4161 98.7642 89.1273 98.1202C88.5312 96.7911 88.2661 95.2582 88.1245 90.9634C88.0441 88.5274 88.0032 85.2634 87.9463 80.7178C87.9032 77.2755 87.8508 73.0983 87.7652 67.9891C87.6282 59.8137 87.6841 47.9126 87.7293 38.3067L87.7293 38.3041C87.7483 34.2722 87.7653 30.6447 87.7653 27.8722V26ZM85.7553 29.7594C85.7502 32.207 85.7364 35.125 85.7215 38.2974L85.7215 38.3063C85.6763 47.9025 85.6202 59.8233 85.7577 68.0223C85.8427 73.0963 85.895 77.2633 85.9382 80.707C85.9955 85.2792 86.0369 88.5764 86.1177 91.0287C86.259 95.3141 86.52 97.2079 87.2933 98.9321C87.6373 99.6992 88.0798 100.423 88.6005 101.276C88.6725 101.393 88.7459 101.514 88.8208 101.637C89.8963 103.405 91.1576 104.671 92.5276 105.524L93.1642 105.921L114.771 86.8961C118.503 83.6104 124.054 83.4394 127.988 86.4902C132.742 90.1771 133.357 97.1109 129.326 101.565L105.734 127.635L105.67 127.853C105.078 129.854 104.377 132.104 103.554 134.642C102.794 136.985 102.052 139.45 101.302 141.942L101.3 141.948C100.367 145.048 99.4214 148.192 98.4016 151.234C97.2272 154.739 93.8488 157.005 90.0626 157.005H56.443C53.3777 157.005 50.7528 154.806 50.2444 151.806L47.814 137.464C47.5557 135.94 47.3387 134.405 47.1195 132.854L47.1172 132.837C46.7712 130.389 46.4195 127.901 45.8959 125.441L45.8191 125.081C44.9085 120.81 43.7482 115.362 44.0593 107.872C44.3705 100.379 46.1577 90.7997 51.2079 78.3241C56.466 65.335 60.372 56.3729 65.5188 48.9302C70.3798 41.9009 76.3764 36.189 85.7553 29.7594Z"
        fill="#142641" />
    <path fill-rule="evenodd" clip-rule="evenodd"
        d="M95.209 102.843C94.7107 102.602 94.1097 102.807 93.8666 103.302C93.561 103.925 92.8694 104.662 91.8227 105.427C90.7963 106.178 89.5125 106.895 88.1409 107.505C86.7708 108.114 85.3378 108.605 84.0221 108.914C82.6906 109.227 81.5469 109.337 80.7295 109.239C80.179 109.174 79.679 109.563 79.6126 110.11C79.5463 110.657 79.9387 111.154 80.4891 111.22C81.6418 111.358 83.0478 111.193 84.4841 110.856C85.9361 110.514 87.4889 109.98 88.961 109.326C90.4315 108.672 91.8462 107.887 93.013 107.034C94.1595 106.195 95.1558 105.227 95.6711 104.177C95.9142 103.682 95.7073 103.085 95.209 102.843Z"
        fill="#142641" />
</svg>