<svg width="280" height="197" viewBox="0 0 280 197" fill="none" xmlns="http://www.w3.org/2000/svg">
    <g clip-path="url(#clip0_5953_21071)">
        <rect width="280" height="197" fill="white" />
        <path
            d="M250.018 148.033V36.8987C250.018 30.4762 244.679 25.2696 238.094 25.2695H41.9061C35.3208 25.2696 29.9825 30.4762 29.9823 36.8987V148.033C29.9823 148.567 29.5385 149 28.9912 149C28.4438 149 28 148.567 28 148.033V36.8987C28.0002 29.4084 34.226 23.3363 41.9061 23.3362H238.094C245.774 23.3363 252 29.4084 252 36.8987V148.033C252 148.567 251.556 149 251.009 149C250.461 149 250.018 148.567 250.018 148.033Z"
            fill="#142641" />
        <path
            d="M39.8936 148.033V89.5C39.8936 88.9661 40.4526 88.5 41 88.5C41.5474 88.5 41.8759 88.9661 41.8759 89.5V148.033C41.8759 148.567 41.4321 149 40.8847 149C40.3373 149 39.8936 148.567 39.8936 148.033ZM238.124 148.033V49.4362C238.124 47.8846 236.874 46.6176 235.303 46.54L235.15 46.5362H46.8316C45.1894 46.5362 43.8582 47.8346 43.8582 49.4362V59.4351C43.8582 59.969 43.4144 60.4018 42.867 60.4018C42.3196 60.4018 41.8759 59.969 41.8759 59.4351V49.4362C41.8759 46.7668 44.0946 44.6028 46.8316 44.6028H235.15L235.405 44.6095C238.023 44.7387 240.106 46.8501 240.106 49.4362V148.033C240.106 148.567 239.662 149 239.115 149C238.567 149 238.124 148.567 238.124 148.033Z"
            fill="#142641" />
        <path opacity="0.95"
            d="M142.058 46.5362L90.4424 148.035H160.888L206.684 46.5362H142.058ZM217.648 46.5362L169.997 148.036L178.347 148.035L225.239 46.5362H217.648Z"
            fill="#F9FAFB" />
        <circle cx="142.477" cy="35.5685" r="4.40022" fill="#142641" />
        <path
            d="M170.726 34.45C170.726 18.7007 157.635 5.93333 141.487 5.93333C125.339 5.93333 112.248 18.7007 112.248 34.45C112.248 50.1993 125.339 62.9667 141.487 62.9667C157.635 62.9667 170.726 50.1993 170.726 34.45ZM172.708 34.45C172.708 51.2671 158.73 64.9 141.487 64.9C124.244 64.9 110.266 51.2671 110.266 34.45C110.266 17.6329 124.244 4 141.487 4C158.73 4 172.708 17.6329 172.708 34.45Z"
            fill="#10B990" />
        <path opacity="0.3"
            d="M108.755 118.085L56.0535 116.099C50.3317 115.884 45.7325 111.3 45.4895 105.57L45.1082 96.5793C44.9827 93.6186 41.4362 92.1785 39.2906 94.2171L37.4058 96.0079C35.8846 97.4533 33.4366 97.2129 32.2218 95.4989L24.1238 84.0726C20.5271 78.9976 21.8449 71.9509 27.0305 68.531L94.0228 24.3485C106.862 15.8805 123.885 25.5865 123.179 40.9731L120.123 107.613C119.847 113.639 114.774 118.312 108.755 118.085Z"
            fill="#142641" />
        <path
            d="M102.732 112.197L59.8938 111.487C54.4983 111.398 49.9917 107.331 49.326 101.951L46.2501 77.0913C45.8563 73.9083 42.9291 71.6768 39.7718 72.1527C36.7899 72.6022 34.6775 75.3147 34.9606 78.3307L36.2394 91.9578C36.3403 93.0326 34.9424 93.5266 34.3513 92.6251L22.2376 74.1463C18.9685 69.1595 20.3108 62.4575 25.2452 59.1291L87.85 16.9011C100.493 8.37292 117.416 17.924 116.744 33.2089L113.729 101.799C113.47 107.685 108.595 112.294 102.732 112.197Z"
            fill="white" />
        <path
            d="M47.8911 83.9595C47.5603 83.5219 46.9358 83.4338 46.496 83.7629L35.856 91.7256C35.4163 92.0547 35.328 92.6761 35.6585 93.1138C35.9893 93.5514 36.6146 93.64 37.0544 93.3108L47.6935 85.3477C48.1333 85.0185 48.2218 84.3971 47.8911 83.9595Z"
            fill="#142641" />
        <path
            d="M118.73 33.251C119.426 17.1552 101.441 7.10263 87.9882 16.0677L24.7577 58.2059C19.3025 61.8412 17.8192 69.1757 21.4367 74.6276L33.6904 93.0945C34.8609 94.8586 37.6235 93.8883 37.4217 91.7842L36.1144 78.1857C35.8742 75.6867 37.6431 73.4378 40.1386 73.0687C42.7705 72.6797 45.209 74.5214 45.5409 77.1483L48.6838 102.029C49.4249 107.893 54.3844 112.324 60.3232 112.429L103.624 113.192C110.101 113.306 115.489 108.26 115.768 101.819L118.73 33.251ZM35.4384 92.0011C35.4368 92.0029 35.4278 92.0128 35.4072 92.0201C35.3885 92.0266 35.3761 92.025 35.372 92.0245L35.3683 92.0212C35.3652 92.0178 35.3597 92.0121 35.3533 92.0025L23.0996 73.5356C20.0857 68.9936 21.3215 62.8822 25.866 59.8534L89.0978 17.7149C101.194 9.65442 117.364 18.6935 116.739 33.1659L113.776 101.734C113.544 107.1 109.055 111.303 103.659 111.208L60.3578 110.446C55.41 110.359 51.2788 106.666 50.6616 101.781L47.5182 76.9011C47.0469 73.1701 43.583 70.5548 39.8449 71.1076C36.3008 71.6319 33.7895 74.8253 34.1305 78.3744L35.4379 91.9729C35.439 91.9844 35.439 91.9922 35.4387 91.9968L35.4384 92.0011Z"
            fill="#142641" />
        <path
            d="M97.5781 28.9516C97.2523 28.5103 96.6279 28.415 96.1844 28.7391L36.3743 72.4598C35.9308 72.784 35.8349 73.4052 36.1607 73.8465C36.4866 74.2876 37.1106 74.3819 37.5541 74.0577L97.3645 30.3384C97.808 30.0142 97.9038 29.3929 97.5781 28.9516Z"
            fill="#142641" />
        <path
            d="M102.021 47.6093C102.094 47.0665 101.711 46.5673 101.165 46.4949C100.62 46.4226 100.119 46.8042 100.046 47.3469L92.1855 106.02C92.1128 106.563 92.4963 107.062 93.0418 107.134C93.5874 107.206 94.0891 106.825 94.1618 106.282L102.021 47.6093Z"
            fill="#142641" />
        <path
            d="M139.5 189C146.956 189 153 182.956 153 175.5C153 168.044 146.956 162 139.5 162C132.044 162 126 168.044 126 175.5C126 182.956 132.044 189 139.5 189Z"
            fill="#10B981" />
        <path
            d="M145.536 171.523C145.088 171.075 144.365 171.075 143.916 171.523L137.894 177.546L135.272 174.923C134.823 174.475 134.1 174.475 133.652 174.923C133.203 175.372 133.203 176.095 133.652 176.543L137.047 179.944C137.272 180.168 137.565 180.278 137.857 180.278C137.871 180.278 137.88 180.278 137.894 180.278C137.908 180.278 137.917 180.278 137.931 180.278C138.223 180.278 138.516 180.168 138.741 179.944L145.536 173.148C145.985 172.699 145.985 171.976 145.536 171.528V171.523Z"
            fill="white" />
    </g>
    <defs>
        <clipPath id="clip0_5953_21071">
            <rect width="280" height="197" fill="white" />
        </clipPath>
    </defs>
</svg>