<svg width="200" height="141" viewBox="0 0 200 141" fill="none" xmlns="http://www.w3.org/2000/svg">
    <path
        d="M108.572 125.612C108.572 130.948 104.255 135.274 98.9293 135.274C93.6038 135.274 89.2861 130.948 89.2861 125.612C89.2861 120.275 93.6038 115.949 98.9293 115.949C104.255 115.949 108.572 120.275 108.572 125.612Z"
        fill="#F43F5E" />
    <path opacity="0.3"
        d="M162.781 20.7571H34.3636C33.5092 20.757 32.6632 20.925 31.8738 21.2516C31.0845 21.5781 30.3672 22.0568 29.7631 22.6603C29.1589 23.2638 28.6797 23.9802 28.3527 24.7687C28.0257 25.5573 27.8574 26.4024 27.8574 27.2559V95.8514C27.8574 96.7049 28.0257 97.5501 28.3527 98.3386C28.6797 99.1271 29.1589 99.8436 29.7631 100.447C30.3672 101.051 31.0845 101.529 31.8738 101.856C32.6632 102.182 33.5092 102.35 34.3636 102.35H162.781C164.506 102.35 166.161 101.666 167.381 100.447C168.601 99.228 169.286 97.575 169.286 95.8514V27.2559C169.286 26.4024 169.118 25.5572 168.791 24.7687C168.464 23.9801 167.985 23.2636 167.381 22.6601C166.777 22.0565 166.06 21.5778 165.27 21.2511C164.481 20.9245 163.635 20.7563 162.781 20.7563L162.781 20.7571Z"
        fill="#142641" />
    <path
        d="M166.352 17.1777H37.9341C36.2088 17.1777 34.5541 17.8624 33.3341 19.0812C32.1141 20.3 31.4287 21.953 31.4287 23.6766V92.2721C31.4286 93.1256 31.5968 93.9707 31.9237 94.7593C32.2506 95.5479 32.7298 96.2644 33.3339 96.8679C33.9379 97.4715 34.6551 97.9502 35.4445 98.2769C36.2338 98.6035 37.0798 98.7716 37.9341 98.7716H166.352C167.206 98.7716 168.052 98.6035 168.842 98.2769C169.631 97.9502 170.348 97.4715 170.952 96.8679C171.556 96.2644 172.035 95.5479 172.362 94.7593C172.689 93.9707 172.857 93.1256 172.857 92.2721V23.6766C172.857 21.953 172.172 20.3 170.952 19.0812C169.732 17.8624 168.077 17.1777 166.352 17.1777Z"
        fill="white" />
    <g opacity="0.4">
        <path
            d="M165.529 99.4872H37.3277C33.2889 99.4872 30 96.1806 30 92.1122V23.1211C30 19.0563 33.2854 15.7461 37.3277 15.7461H165.529C169.568 15.7461 172.857 19.0527 172.857 23.1211V92.1122C172.857 96.177 169.572 99.4872 165.529 99.4872ZM37.3277 17.4263C34.2051 17.4263 31.6659 19.9819 31.6659 23.1247V92.1158C31.6659 95.2578 34.2051 97.8134 37.3277 97.8134H165.529C168.652 97.8134 171.191 95.2578 171.191 92.1158V23.1211C171.191 19.9784 168.652 17.4228 165.529 17.4228H37.3277V17.4263Z"
            fill="black" />
        <path
            d="M59.9995 58.6902C53.6985 58.6902 48.5713 53.5525 48.5713 47.2388C48.5713 40.925 53.6985 35.7866 59.9995 35.7866C66.3005 35.7866 71.4284 40.9243 71.4284 47.238C71.4284 53.5518 66.3005 58.6902 59.9995 58.6902ZM59.9995 37.461C54.6187 37.461 50.238 41.847 50.238 47.2423C50.238 52.637 54.6158 57.0237 59.9995 57.0237C65.3839 57.0237 69.761 52.637 69.761 47.2423C69.761 41.847 65.3839 37.461 59.9995 37.461Z"
            fill="black" />
        <path
            d="M78.5903 72.8552C78.3697 72.8552 78.1582 72.7671 78.0022 72.6103C77.8461 72.4535 77.7584 72.2407 77.7582 72.0189C77.7582 64.5603 69.9892 58.4947 60.4391 58.4947C50.8898 58.4947 43.1201 64.5603 43.1201 72.0189C43.1201 72.2408 43.0325 72.4536 42.8765 72.6105C42.7205 72.7674 42.5089 72.8556 42.2884 72.8556C42.0678 72.8556 41.8562 72.7674 41.7002 72.6105C41.5443 72.4536 41.4566 72.2408 41.4566 72.0189C41.4566 63.6399 49.9714 56.8212 60.4391 56.8212C70.9076 56.8212 79.4224 63.6399 79.4224 72.0189C79.4224 72.4808 79.0494 72.8552 78.5903 72.8552ZM150.888 41.8315H89.5136C89.2929 41.8315 89.0813 41.7434 88.9252 41.5864C88.7692 41.4294 88.6815 41.2165 88.6815 40.9944C88.6815 40.7724 88.7692 40.5595 88.9252 40.4025C89.0813 40.2455 89.2929 40.1573 89.5136 40.1573H150.888C151.108 40.1573 151.32 40.2455 151.476 40.4025C151.632 40.5595 151.72 40.7724 151.72 40.9944C151.72 41.2165 151.632 41.4294 151.476 41.5864C151.32 41.7434 151.108 41.8315 150.888 41.8315ZM151.017 53.6313H89.6441C89.4234 53.6313 89.2118 53.5431 89.0557 53.3861C88.8997 53.2291 88.812 53.0162 88.812 52.7942C88.812 52.5722 88.8997 52.3593 89.0557 52.2023C89.2118 52.0453 89.4234 51.9571 89.6441 51.9571H151.017C151.238 51.9571 151.45 52.0453 151.606 52.2023C151.762 52.3593 151.849 52.5722 151.849 52.7942C151.849 53.0162 151.762 53.2291 151.606 53.3861C151.45 53.5431 151.238 53.6313 151.017 53.6313ZM134.101 65.3306H89.6534C89.4327 65.3306 89.221 65.2425 89.065 65.0855C88.9089 64.9285 88.8213 64.7156 88.8213 64.4935C88.8213 64.2715 88.9089 64.0586 89.065 63.9016C89.221 63.7446 89.4327 63.6564 89.6534 63.6564H134.098C134.318 63.6564 134.53 63.7446 134.686 63.9016C134.842 64.0586 134.93 64.2715 134.93 64.4935C134.93 64.7156 134.842 64.9285 134.686 65.0855C134.53 65.2425 134.318 65.3306 134.098 65.3306H134.101ZM134.117 87.3098C133.782 87.3098 133.462 87.1025 133.339 86.7639C133.263 86.5557 133.271 86.3256 133.363 86.1238C133.454 85.922 133.622 85.7648 133.828 85.6865C135.291 85.1334 136.617 84.2675 137.715 83.1487C137.176 83.0016 136.617 82.7405 136.187 82.2922C135.678 81.7564 135.439 81.0469 135.501 80.24C135.548 79.6037 135.811 78.961 136.257 78.3821C136.343 78.2681 136.43 78.1547 136.517 78.0371C136.939 77.4647 137.422 76.8155 138.127 76.3801C138.865 75.9253 139.731 75.8213 140.446 76.0961C141.109 76.35 141.601 76.9159 141.83 77.6928C142.03 78.362 142 79.0987 141.74 79.8182C141.541 80.3805 141.298 80.9228 141.019 81.4486C142.086 81.2159 143.107 80.8062 144.04 80.2364C144.225 80.1226 144.442 80.0737 144.658 80.0973C144.873 80.121 145.075 80.2158 145.231 80.3669C145.551 80.6754 145.627 81.1674 145.411 81.5591C145.228 81.8934 145.054 82.3424 145.268 82.5863C145.427 82.7706 145.74 82.767 145.963 82.6702C146.402 82.4758 146.721 82.0813 147.068 81.308C147.147 81.1327 147.265 80.9786 147.415 80.8582C147.564 80.7378 147.739 80.6545 147.926 80.6151C148.117 80.576 148.314 80.5823 148.501 80.6333C148.689 80.6844 148.862 80.7789 149.007 80.9092C149.853 81.676 151.027 82.0813 152.139 81.9974C153.423 81.9034 154.657 81.1638 155.356 80.0757C155.479 79.8959 155.666 79.7712 155.879 79.7282C156.091 79.6852 156.312 79.7271 156.494 79.8452C156.677 79.9633 156.806 80.1481 156.855 80.3605C156.904 80.573 156.869 80.7963 156.757 80.9831C155.782 82.5059 154.062 83.5374 152.265 83.668C150.86 83.7655 149.467 83.356 148.336 82.5131C147.986 83.1623 147.474 83.8315 146.639 84.2031C145.697 84.622 144.645 84.414 144.016 83.6881C143.705 83.3299 143.526 82.8745 143.511 82.3991C142.334 82.9115 141.08 83.2217 139.801 83.3165C138.403 85.0804 136.533 86.4698 134.413 87.266C134.317 87.3033 134.221 87.3198 134.124 87.3198L134.117 87.3098ZM139.618 77.6153C139.397 77.6217 139.182 77.6876 138.995 77.8061C138.563 78.0708 138.217 78.5392 137.851 79.0349C137.759 79.1599 137.666 79.2838 137.571 79.4064C137.398 79.631 137.188 79.9789 137.158 80.3669C137.126 80.8059 137.272 81.0168 137.385 81.1337C137.671 81.435 138.25 81.6258 138.942 81.6559C139.454 80.9099 139.869 80.1012 140.177 79.2493C140.31 78.8742 140.333 78.489 140.237 78.1712C140.113 77.7595 139.917 77.6827 139.851 77.6555C139.776 77.6282 139.697 77.6146 139.618 77.6153ZM161.335 26.7243H42.2851C42.0688 26.7179 41.8634 26.6269 41.7126 26.4707C41.5618 26.3145 41.4774 26.1053 41.4774 25.8875C41.4774 25.6698 41.5618 25.4606 41.7126 25.3043C41.8634 25.1481 42.0688 25.0572 42.2851 25.0508H161.335C161.552 25.0572 161.757 25.1481 161.908 25.3043C162.059 25.4606 162.143 25.6698 162.143 25.8875C162.143 26.1053 162.059 26.3145 161.908 26.4707C161.757 26.6269 161.552 26.7179 161.335 26.7243ZM78.5903 85.3278H42.2851C42.1739 85.3311 42.0631 85.3119 41.9593 85.2713C41.8556 85.2308 41.761 85.1696 41.6811 85.0916C41.6012 85.0136 41.5378 84.9202 41.4944 84.8171C41.451 84.7139 41.4287 84.6031 41.4287 84.4911C41.4287 84.3791 41.451 84.2682 41.4944 84.1651C41.5378 84.0619 41.6012 83.9686 41.6811 83.8906C41.761 83.8126 41.8556 83.7514 41.9593 83.7109C42.0631 83.6703 42.1739 83.6511 42.2851 83.6544H78.5867C78.8 83.6652 79.001 83.7581 79.1481 83.9139C79.2953 84.0696 79.3773 84.2762 79.3773 84.4911C79.3773 84.7059 79.2953 84.9126 79.1481 85.0683C79.001 85.2241 78.8 85.317 78.5867 85.3278H78.5903Z"
            fill="black" />
    </g>
    <g opacity="0.3">
        <path
            d="M166.422 97.8711L38.3914 100.917C34.3577 101.014 30.9988 97.7907 30.9017 93.7339L29.2882 24.8943C29.192 20.8375 32.3975 17.4599 36.432 17.363L164.462 14.3168C168.497 14.22 171.856 17.4441 171.952 21.5002L173.57 90.3362C173.666 94.3931 170.461 97.7707 166.426 97.8675L166.423 97.8711H166.422ZM36.4712 19.0364C33.3555 19.1103 30.8789 21.7212 30.9524 24.8542L32.5694 93.6901C32.6429 96.8232 35.2393 99.3135 38.3551 99.2396L166.385 96.1941C169.501 96.1202 171.978 93.5094 171.905 90.3764L170.287 21.5404C170.214 18.4074 167.617 15.917 164.502 15.9909L36.4705 19.0364H36.4712Z"
            fill="black" />
        <path
            d="M60.2709 59.4027C53.9696 59.553 48.7256 54.5384 48.5756 48.2245C48.4255 41.9105 53.4294 36.6561 59.7308 36.5057C66.0321 36.3554 71.2761 41.3693 71.4261 47.6833C71.5762 53.9972 66.5722 59.2524 60.2709 59.4027ZM59.7708 38.1759C54.3896 38.3026 50.1152 42.7932 50.2423 48.1844C50.3688 53.5763 54.8497 57.8593 60.2309 57.7319C65.612 57.6052 69.8865 53.1153 69.7593 47.7234C69.6329 42.3314 65.1519 38.0484 59.7708 38.1759Z"
            fill="black" />
        <path
            d="M78.9629 73.2937C78.7421 73.2989 78.5284 73.2159 78.3685 73.0629C78.2087 72.91 78.1158 72.6996 78.1104 72.478C77.9342 65.0361 70.0209 59.1639 60.4696 59.3909C50.9191 59.6187 43.2889 65.8575 43.4651 73.3001C43.4607 73.5154 43.3737 73.7207 43.2222 73.8733C43.0708 74.0258 42.8665 74.1138 42.6521 74.119C42.4376 74.1242 42.2294 74.0461 42.0708 73.901C41.9123 73.756 41.8155 73.5551 41.8008 73.3402C41.6039 64.9759 49.9596 57.9709 60.4297 57.7202C70.8997 57.4732 79.5785 64.0729 79.7747 72.4379C79.7801 72.6594 79.6976 72.8741 79.5453 73.0345C79.3931 73.195 79.1836 73.2882 78.9629 73.2937ZM150.55 40.6129L89.1626 42.0702C88.9481 42.0657 88.7436 41.9784 88.5916 41.8264C88.4397 41.6743 88.352 41.4693 88.3468 41.254C88.3417 41.0387 88.4195 40.8297 88.564 40.6705C88.7085 40.5113 88.9086 40.4142 89.1227 40.3995L150.51 38.9422C150.724 38.9466 150.929 39.034 151.081 39.186C151.233 39.338 151.321 39.543 151.326 39.7584C151.331 39.9737 151.253 40.1827 151.109 40.3418C150.964 40.501 150.764 40.5981 150.55 40.6129ZM150.956 52.3866L89.5685 53.8439C89.3477 53.8492 89.1339 53.7663 88.974 53.6133C88.8141 53.4603 88.7213 53.2499 88.716 53.0282C88.7107 52.8066 88.7934 52.5919 88.9457 52.4314C89.0981 52.2709 89.3078 52.1778 89.5285 52.1725L150.917 50.7159C151.135 50.7143 151.345 50.7989 151.502 50.9515C151.659 51.104 151.75 51.3124 151.755 51.5315C151.76 51.7507 151.679 51.9631 151.53 52.1231C151.381 52.283 151.175 52.3776 150.956 52.3866ZM134.308 64.4675L89.8553 65.5238C89.6392 65.5217 89.4323 65.4353 89.2784 65.283C89.1245 65.1307 89.0356 64.9243 89.0304 64.7075C89.0252 64.4906 89.1042 64.2801 89.2506 64.1206C89.3971 63.9611 89.5996 63.8649 89.8153 63.8524L134.268 62.7968C134.486 62.7952 134.697 62.8798 134.853 63.0324C135.01 63.185 135.101 63.3933 135.106 63.6124C135.112 63.8316 135.031 64.044 134.881 64.204C134.732 64.3639 134.526 64.4586 134.308 64.4675ZM134.844 86.4036C134.649 86.407 134.46 86.3421 134.308 86.2201C134.157 86.0981 134.052 85.9267 134.013 85.7356C133.974 85.5446 134.003 85.3458 134.094 85.1736C134.186 85.0015 134.334 84.8669 134.514 84.7931C135.965 84.2058 137.271 83.3096 138.343 82.1664C137.8 82.0325 137.234 81.7854 136.795 81.3443C136.272 80.8229 136.019 80.1211 136.059 79.3119C136.092 78.6774 136.339 78.0286 136.771 77.4407C136.855 77.3268 136.938 77.2101 137.021 77.0898C137.43 76.5083 137.897 75.8466 138.592 75.3991C139.318 74.9278 140.184 74.8004 140.906 75.0582C141.575 75.2952 142.081 75.8502 142.331 76.6186C142.547 77.2839 142.534 78.0158 142.291 78.744C142.104 79.3087 141.875 79.8583 141.605 80.3882C142.667 80.1315 143.678 79.699 144.598 79.1085C144.781 78.9912 144.997 78.9374 145.213 78.9555C145.429 78.9737 145.633 79.0627 145.793 79.2088C146.123 79.5096 146.206 79.9972 146.003 80.3947C145.83 80.7327 145.667 81.1839 145.883 81.4209C146.049 81.6013 146.359 81.5913 146.582 81.4875C147.015 81.2841 147.328 80.8795 147.657 80.1011C147.732 79.9244 147.847 79.768 147.994 79.6443C148.14 79.5207 148.313 79.4333 148.5 79.3893C148.689 79.3451 148.887 79.3462 149.076 79.3926C149.265 79.439 149.44 79.5294 149.588 79.6564C150.451 80.3983 151.636 80.7792 152.744 80.669C154.029 80.5422 155.245 79.7803 155.917 78.6739C156.033 78.4883 156.218 78.3564 156.431 78.3065C156.644 78.2567 156.868 78.2929 157.055 78.4074C157.242 78.5219 157.376 78.7055 157.429 78.9185C157.482 79.1316 157.449 79.357 157.338 79.5461C156.399 81.09 154.702 82.1592 152.908 82.3332C151.505 82.4643 150.101 82.0888 148.949 81.2741C148.613 81.9286 148.12 82.6104 147.291 83.0014C146.359 83.4396 145.3 83.2592 144.658 82.5502C144.338 82.2008 144.147 81.7511 144.119 81.2769C142.954 81.8174 141.707 82.1564 140.43 82.2795C139.072 84.0741 137.238 85.5049 135.137 86.3499C135.041 86.3872 134.944 86.4072 134.847 86.4101L134.844 86.4036ZM140.117 76.5985C139.896 76.6094 139.682 76.6799 139.498 76.8026C139.072 77.0762 138.739 77.551 138.383 78.0559C138.293 78.1826 138.203 78.3094 138.113 78.4332C137.947 78.6603 137.744 79.0112 137.724 79.3993C137.7 79.8368 137.853 80.0438 137.97 80.1612C138.263 80.4548 138.849 80.6324 139.541 80.6453C140.037 79.8893 140.432 79.0715 140.716 78.2127C140.843 77.8353 140.856 77.4507 140.753 77.1335C140.62 76.7224 140.42 76.6523 140.354 76.6286C140.277 76.6033 140.197 76.5919 140.117 76.595V76.5985ZM160.644 25.2908L41.5676 28.118C41.3468 28.1234 41.1329 28.0404 40.973 27.8874C40.8132 27.7345 40.7204 27.524 40.7151 27.3024C40.7098 27.0807 40.7924 26.8661 40.9448 26.7056C41.0972 26.5451 41.3068 26.4519 41.5276 26.4466L160.604 23.6194C160.82 23.6215 161.027 23.7078 161.181 23.8601C161.335 24.0124 161.424 24.2188 161.429 24.4357C161.434 24.6526 161.355 24.863 161.209 25.0226C161.062 25.1821 160.86 25.2783 160.644 25.2908ZM79.2554 85.7419L42.9458 86.6042C42.7313 86.5997 42.5268 86.5124 42.3748 86.3603C42.2228 86.2083 42.1352 86.0033 42.13 85.788C42.1249 85.5727 42.2026 85.3637 42.3472 85.2045C42.4917 85.0453 42.6918 84.9482 42.9058 84.9334L79.2154 84.0712C79.3258 84.0667 79.436 84.0843 79.5396 84.123C79.6432 84.1617 79.738 84.2207 79.8186 84.2965C79.8993 84.3724 79.964 84.4636 80.0092 84.5648C80.0543 84.6661 80.079 84.7753 80.0816 84.8862C80.0843 84.9971 80.0649 85.1074 80.0246 85.2107C79.9844 85.314 79.924 85.4082 79.8471 85.4879C79.7702 85.5676 79.6783 85.631 79.5767 85.6747C79.4751 85.7183 79.3659 85.7411 79.2554 85.7419Z"
            fill="black" />
    </g>
    <g opacity="0.2">
        <path
            d="M168.027 95.1621L39.7482 101.625C35.7054 101.828 32.25 98.7163 32.0461 94.6864L28.5807 26.3175C28.3775 22.2869 31.4988 18.8425 35.5416 18.64L163.819 12.1769C167.863 11.9737 171.318 15.0857 171.522 19.1156L174.99 87.4881C175.194 91.518 172.073 94.9624 168.029 95.1656L168.027 95.1621ZM35.6253 20.3001C32.5004 20.457 30.0902 23.1191 30.2469 26.2305L33.7159 94.603C33.8725 97.7143 36.5432 100.12 39.6652 99.9643L167.943 93.5012C171.068 93.345 173.478 90.6829 173.321 87.5708L169.852 19.1991C169.696 16.087 167.024 13.6809 163.903 13.8378L35.6253 20.3001Z"
            fill="black" />
        <path
            d="M60.5772 60.1072C54.2814 60.4244 48.9024 55.5534 48.5859 49.2475C48.2694 42.9424 53.1303 37.5495 59.4232 37.233C65.7154 36.9151 71.0972 41.7868 71.4137 48.0919C71.731 54.3999 66.8693 59.79 60.5772 60.1072ZM59.5061 38.8991C54.1314 39.1705 49.9764 43.778 50.2501 49.1645C50.523 54.5503 55.1182 58.7138 60.4936 58.4396C65.8683 58.1661 70.0233 53.5615 69.7496 48.175C69.4767 42.7892 64.8815 38.6256 59.5068 38.8998L59.5061 38.8991Z"
            fill="black" />
        <path
            d="M79.4945 73.1051C79.3853 73.1106 79.2761 73.0947 79.1731 73.058C79.0701 73.0214 78.9753 72.9648 78.8942 72.8916C78.8132 72.8184 78.7473 72.7299 78.7005 72.6312C78.6537 72.5325 78.6268 72.4256 78.6214 72.3165C78.2487 64.9138 70.1728 59.2841 60.6234 59.7668C51.0754 60.2488 43.6092 66.6641 43.9862 74.0669C43.9972 74.2872 43.9202 74.5028 43.7721 74.6664C43.6239 74.83 43.4168 74.9281 43.1962 74.9392C42.9756 74.9502 42.7597 74.8733 42.5959 74.7254C42.4321 74.5774 42.3338 74.3706 42.3227 74.1503C41.9037 65.8321 50.0759 58.6353 60.5442 58.1063C71.0124 57.5773 79.8708 63.9156 80.2906 72.2338C80.2962 72.3429 80.2803 72.4519 80.2436 72.5548C80.207 72.6577 80.1503 72.7523 80.077 72.8332C80.0036 72.9142 79.915 72.9799 79.8161 73.0265C79.7173 73.0732 79.6102 73.0999 79.501 73.1051H79.4945ZM150.235 38.6558L88.8598 41.7529C88.7506 41.7584 88.6415 41.7424 88.5386 41.7057C88.4357 41.6691 88.341 41.6125 88.2599 41.5394C88.1789 41.4662 88.1131 41.3777 88.0662 41.2792C88.0194 41.1806 87.9925 41.0737 87.987 40.9647C87.9815 40.8558 87.9976 40.7468 88.0343 40.644C88.071 40.5412 88.1276 40.4466 88.2009 40.3657C88.2742 40.2848 88.3627 40.219 88.4614 40.1723C88.5601 40.1255 88.6671 40.0986 88.7762 40.0931L150.152 36.9953C150.261 36.9897 150.371 37.0057 150.473 37.0423C150.576 37.079 150.671 37.1355 150.752 37.2088C150.833 37.282 150.899 37.3705 150.946 37.4692C150.993 37.5679 151.019 37.6748 151.025 37.7838C151.03 37.8929 151.014 38.002 150.978 38.1049C150.941 38.2078 150.884 38.3025 150.811 38.3835C150.738 38.4645 150.649 38.5303 150.55 38.577C150.451 38.6237 150.344 38.6505 150.235 38.6558ZM150.958 50.3642L89.583 53.4613C89.4739 53.4668 89.3647 53.4508 89.2618 53.4141C89.1589 53.3775 89.0642 53.3209 88.9831 53.2477C88.9021 53.1746 88.8363 53.0861 88.7894 52.9875C88.7426 52.889 88.7157 52.7821 88.7102 52.6731C88.7047 52.5642 88.7208 52.4552 88.7575 52.3524C88.7942 52.2496 88.8508 52.155 88.9241 52.0741C88.9974 51.9932 89.0859 51.9274 89.1846 51.8807C89.2833 51.8339 89.3903 51.807 89.4995 51.8015L150.875 48.7037C150.984 48.6982 151.093 48.7143 151.196 48.7509C151.299 48.7876 151.394 48.8441 151.475 48.9174C151.556 48.9906 151.622 49.079 151.669 49.1777C151.715 49.2763 151.742 49.3832 151.748 49.4922C151.753 49.6012 151.737 49.7103 151.7 49.8131C151.664 49.9159 151.607 50.0105 151.534 50.0915C151.461 50.1725 151.372 50.2382 151.273 50.285C151.174 50.3318 151.067 50.3587 150.958 50.3642ZM134.63 62.834L90.1855 65.077C90.0764 65.0826 89.9672 65.0666 89.8642 65.03C89.7613 64.9933 89.6665 64.9368 89.5855 64.8635C89.5045 64.7903 89.4387 64.7018 89.3919 64.6031C89.3452 64.5044 89.3184 64.3975 89.3131 64.2885C89.3074 64.1794 89.3234 64.0703 89.36 63.9674C89.3967 63.8645 89.4533 63.7698 89.5267 63.6888C89.6 63.6078 89.6887 63.542 89.7875 63.4953C89.8864 63.4486 89.9935 63.4218 90.1027 63.4165L134.547 61.1742C134.656 61.1688 134.765 61.1848 134.868 61.2214C134.971 61.2581 135.065 61.3146 135.146 61.3878C135.227 61.461 135.293 61.5494 135.34 61.648C135.387 61.7466 135.414 61.8534 135.419 61.9624C135.425 62.0714 135.409 62.1804 135.372 62.2832C135.335 62.386 135.279 62.4805 135.205 62.5615C135.132 62.6424 135.044 62.7081 134.945 62.7549C134.846 62.8017 134.739 62.8285 134.63 62.834ZM135.753 84.6509C135.558 84.6596 135.367 84.6 135.211 84.4825C135.056 84.3649 134.947 84.1968 134.902 84.0072C134.858 83.8177 134.881 83.6186 134.969 83.4445C135.056 83.2703 135.201 83.1322 135.38 83.0538C136.814 82.4309 138.096 81.5046 139.138 80.3389C138.588 80.2191 138.018 79.9895 137.569 79.5632C137.032 79.0577 136.759 78.3654 136.779 77.5604C136.795 76.928 137.025 76.2764 137.442 75.6775C137.522 75.5605 137.602 75.4408 137.685 75.321C138.082 74.7321 138.528 74.0633 139.211 73.5942C139.927 73.1051 140.787 72.9553 141.517 73.1921C142.193 73.4116 142.712 73.9506 142.982 74.7057C143.216 75.3609 143.222 76.0931 142.999 76.8218C142.828 77.3885 142.612 77.9412 142.356 78.4752C143.411 78.1917 144.411 77.7341 145.315 77.1212C145.494 76.9983 145.709 76.9382 145.926 76.9503C146.144 76.9625 146.351 77.0462 146.515 77.1884C146.68 77.3306 146.792 77.5233 146.836 77.7362C146.879 77.9492 146.85 78.1704 146.754 78.3654C146.588 78.7047 146.438 79.161 146.66 79.3906C146.83 79.5667 147.14 79.5468 147.36 79.437C147.79 79.2209 148.09 78.8117 148.397 78.0296C148.539 77.6702 148.846 77.3943 149.223 77.2973C149.411 77.2485 149.609 77.2447 149.799 77.2864C149.99 77.328 150.168 77.4138 150.319 77.5369C151.202 78.2527 152.397 78.5985 153.504 78.4623C154.147 78.3763 154.763 78.1448 155.303 77.7855C155.844 77.4262 156.295 76.9486 156.622 76.389C156.677 76.2943 156.749 76.2112 156.836 76.1446C156.922 76.0779 157.021 76.0289 157.127 76.0005C157.232 75.9721 157.342 75.9648 157.451 75.979C157.559 75.9931 157.664 76.0285 157.758 76.0831C158.158 76.3127 158.294 76.8218 158.065 77.2175C157.165 78.7782 155.496 79.8897 153.707 80.1121C152.307 80.2809 150.892 79.9446 149.719 79.1639C149.403 79.8262 148.923 80.515 148.107 80.9278C147.187 81.3898 146.124 81.2372 145.458 80.5485C145.128 80.2086 144.926 79.7654 144.885 79.2937C143.734 79.8633 142.495 80.2345 141.22 80.3916C139.911 82.2118 138.112 83.6891 136.033 84.5839C135.942 84.6237 135.845 84.6464 135.746 84.6509H135.753ZM140.767 74.7492C140.546 74.7658 140.335 74.8417 140.154 74.9688C139.734 75.2547 139.414 75.7374 139.071 76.2464C138.984 76.3762 138.898 76.5059 138.812 76.6286C138.652 76.8581 138.458 77.2146 138.448 77.6003C138.438 78.036 138.594 78.2392 138.715 78.3525C139.018 78.6384 139.605 78.7981 140.297 78.7917C140.772 78.0252 141.146 77.2009 141.41 76.3391C141.527 75.9598 141.527 75.5777 141.417 75.2647C141.273 74.8618 141.07 74.7955 141.003 74.772C140.927 74.7493 140.847 74.7404 140.767 74.7456V74.7492ZM159.924 23.1344L40.8742 29.1426C40.765 29.1481 40.6558 29.1321 40.5528 29.0954C40.4499 29.0587 40.3552 29.0022 40.2741 28.9289C40.193 28.8557 40.1272 28.7673 40.0803 28.6686C40.0335 28.57 40.0065 28.4631 40.001 28.3541C39.9956 28.2451 40.0116 28.136 40.0484 28.0332C40.0851 27.9304 40.1417 27.8358 40.215 27.7548C40.2883 27.6738 40.3769 27.6081 40.4757 27.5613C40.5744 27.5145 40.6815 27.4876 40.7906 27.4821L159.84 21.4732C159.949 21.4677 160.058 21.4838 160.161 21.5205C160.264 21.5571 160.359 21.6137 160.44 21.6869C160.521 21.7601 160.587 21.8486 160.634 21.9472C160.681 22.0458 160.708 22.1527 160.713 22.2618C160.719 22.3708 160.703 22.4798 160.666 22.5827C160.629 22.6855 160.573 22.7801 160.499 22.8611C160.426 22.942 160.337 23.0078 160.239 23.0546C160.14 23.1013 160.033 23.129 159.924 23.1344ZM80.1207 85.4858L43.8191 87.3188C43.71 87.3243 43.6008 87.3083 43.4979 87.2716C43.395 87.235 43.3003 87.1785 43.2193 87.1053C43.1382 87.0321 43.0724 86.9436 43.0256 86.8451C42.9787 86.7465 42.9518 86.6396 42.9463 86.5306C42.9409 86.4217 42.9569 86.3127 42.9936 86.2099C43.0303 86.1071 43.0869 86.0125 43.1602 85.9316C43.2335 85.8507 43.322 85.7849 43.4207 85.7382C43.5195 85.6914 43.6265 85.6645 43.7356 85.659L80.0371 83.8253C80.1463 83.8198 80.2555 83.8359 80.3584 83.8725C80.4614 83.9092 80.5561 83.9657 80.6372 84.039C80.7183 84.1122 80.7841 84.2006 80.831 84.2993C80.8778 84.3979 80.9048 84.5048 80.9102 84.6138C80.9157 84.7229 80.8997 84.8319 80.8629 84.9347C80.8262 85.0376 80.7696 85.1322 80.6963 85.2131C80.623 85.2941 80.5344 85.3598 80.4356 85.4066C80.3368 85.4534 80.2298 85.4803 80.1207 85.4858Z"
            fill="black" />
    </g>
    <g opacity="0.2">
        <path
            d="M163.691 102.34L35.5232 95.6117C31.4836 95.4009 28.3712 91.9306 28.5813 87.8788L32.1706 19.1412C32.3807 15.0886 35.8406 11.9668 39.8802 12.1776L168.047 18.9067C172.088 19.1175 175.2 22.5871 174.99 26.6397L171.403 95.3773C171.193 99.4291 167.734 102.551 163.694 102.34H163.691ZM39.7901 13.8511C36.6713 13.6861 33.9992 16.0996 33.8355 19.2315L30.2491 87.9691C30.0861 91.0974 32.4908 93.7776 35.6133 93.9418L163.781 100.671C166.9 100.834 169.572 98.4224 169.736 95.2905L173.321 26.5522C173.485 23.4239 171.08 20.7437 167.957 20.5795L39.7901 13.8511Z"
            fill="black" />
        <path
            d="M60.1175 55.8115C53.8262 55.4807 48.9716 50.0821 49.301 43.7778C49.6318 37.4735 55.0193 32.6096 61.3106 32.9397C67.602 33.2704 72.4558 38.6698 72.1265 44.9741C71.7964 51.2783 66.4089 56.1422 60.1175 55.8115ZM61.2242 34.607C55.8495 34.3264 51.2485 38.4794 50.9649 43.8644C50.682 49.2502 54.83 53.8606 60.204 54.1448C65.5787 54.4255 70.1796 50.2725 70.4633 44.8867C70.7426 39.5017 66.5982 34.8912 61.2242 34.607Z"
            fill="black" />
        <path
            d="M77.6595 71.3227C77.439 71.3108 77.2322 71.2111 77.0844 71.0454C76.9366 70.8798 76.8598 70.6617 76.8709 70.439C77.2574 62.961 69.8131 56.4705 60.2768 55.9627C50.7398 55.4557 42.6639 61.1324 42.2781 68.6075C42.261 68.8263 42.1601 69.0297 41.9968 69.1744C41.8334 69.3191 41.6206 69.3936 41.4036 69.3822C41.1867 69.3707 40.9827 69.2742 40.8352 69.113C40.6877 68.9519 40.6082 68.739 40.6139 68.5196C41.0502 60.1176 49.9077 53.7315 60.3631 54.2825C70.815 54.8341 78.9672 62.1205 78.5316 70.5233C78.52 70.746 78.4213 70.955 78.2573 71.1044C78.0932 71.2537 77.8772 71.3312 77.6567 71.3198L77.6595 71.3227ZM151.475 44.0317L90.1813 40.7914C89.9607 40.7799 89.7537 40.6803 89.6058 40.5145C89.4579 40.3488 89.3813 40.1305 89.3927 39.9077C89.4042 39.6849 89.5028 39.4758 89.6668 39.3264C89.8309 39.177 90.047 39.0996 90.2676 39.1112L151.561 42.3514C151.776 42.3713 151.974 42.4743 152.115 42.6387C152.256 42.8031 152.328 43.0162 152.317 43.2334C152.306 43.4506 152.212 43.655 152.055 43.8038C151.898 43.9526 151.69 44.0342 151.475 44.0317ZM150.993 55.8691L89.6993 52.6288C89.4787 52.6173 89.2717 52.5177 89.1238 52.352C88.9759 52.1862 88.8992 51.968 88.9107 51.7451C88.9221 51.5223 89.0207 51.3132 89.1848 51.1638C89.3489 51.0145 89.565 50.937 89.7856 50.9486L151.079 54.1888C151.3 54.2004 151.507 54.3 151.655 54.4657C151.803 54.6314 151.879 54.8497 151.868 55.0725C151.856 55.2953 151.758 55.5044 151.594 55.6538C151.43 55.8032 151.213 55.8806 150.993 55.8691ZM133.489 66.7083L89.1032 64.3626C88.8825 64.351 88.6754 64.2514 88.5274 64.0856C88.3795 63.9198 88.3028 63.7014 88.3142 63.4785C88.3257 63.2556 88.4243 63.0464 88.5885 62.8969C88.7526 62.7475 88.9688 62.67 89.1895 62.6816L133.576 65.028C133.788 65.0515 133.983 65.1559 134.121 65.3198C134.259 65.4838 134.329 65.6948 134.318 65.9097C134.307 66.1245 134.215 66.327 134.061 66.4755C133.907 66.624 133.702 66.7073 133.489 66.7083ZM132.365 88.7461C132.17 88.7351 131.986 88.6557 131.844 88.5217C131.702 88.3878 131.61 88.2077 131.586 88.0128C131.561 87.8179 131.605 87.6205 131.71 87.4549C131.814 87.2892 131.973 87.1659 132.158 87.1062C133.648 86.6281 135.017 85.8301 136.171 84.7669C135.639 84.5891 135.097 84.2995 134.69 83.8256C134.208 83.261 134.009 82.5386 134.111 81.732C134.191 81.0967 134.488 80.468 134.964 79.9105C135.057 79.8025 135.147 79.6916 135.24 79.5778C135.692 79.0261 136.205 78.401 136.934 78.0013C137.692 77.5842 138.567 77.5238 139.266 77.8363C139.915 78.1259 140.378 78.7207 140.567 79.5101C140.734 80.1929 140.664 80.9289 140.368 81.6376C140.138 82.1893 139.869 82.7237 139.559 83.2343C140.636 83.0586 141.676 82.7019 142.637 82.1792C142.827 82.0757 143.046 82.0383 143.26 82.0729C143.473 82.1076 143.669 82.2122 143.818 82.3708C144.121 82.6963 144.171 83.194 143.938 83.5735C143.738 83.8998 143.542 84.3399 143.742 84.5955C143.892 84.7907 144.201 84.8037 144.434 84.7165C144.883 84.5451 145.222 84.1656 145.609 83.4093C145.697 83.2377 145.824 83.0894 145.98 82.9761C146.135 82.8628 146.314 82.7877 146.504 82.7568C146.696 82.7274 146.892 82.744 147.077 82.8053C147.262 82.8666 147.43 82.9709 147.568 83.1097C148.374 83.9236 149.525 84.3903 150.636 84.3672C151.924 84.3399 153.195 83.6643 153.947 82.6092C154.076 82.4286 154.271 82.3072 154.489 82.2713C154.706 82.2354 154.929 82.288 155.109 82.4176C155.287 82.5481 155.408 82.7448 155.443 82.9647C155.479 83.1845 155.427 83.4097 155.298 83.5908C154.247 85.0658 152.473 86.0071 150.673 86.0475C149.265 86.0714 147.895 85.5863 146.809 84.6798C146.427 85.3114 145.881 85.9567 145.026 86.2859C144.064 86.6561 143.023 86.3939 142.434 85.6341C142.141 85.258 141.986 84.7915 141.995 84.3132C140.793 84.7657 139.524 85.0099 138.241 85.0356C136.754 86.7295 134.814 88.0273 132.658 88.713C132.561 88.7432 132.461 88.7562 132.365 88.7497V88.7461ZM138.361 79.3156C138.14 79.3095 137.922 79.364 137.729 79.4734C137.283 79.7154 136.914 80.1655 136.524 80.643C136.425 80.764 136.325 80.885 136.225 81.0024C136.042 81.2177 135.812 81.5541 135.762 81.9437C135.706 82.3809 135.842 82.5991 135.948 82.7266C136.221 83.0428 136.787 83.2646 137.476 83.3352C138.027 82.6146 138.483 81.8249 138.833 80.9858C138.987 80.6164 139.03 80.2332 138.95 79.9069C138.847 79.4871 138.654 79.3992 138.591 79.3725C138.517 79.3411 138.438 79.324 138.358 79.3221L138.361 79.3156ZM162.695 29.438L43.8019 23.1534C43.5855 23.136 43.3844 23.0341 43.2413 22.8693C43.0982 22.7045 43.0244 22.4898 43.0355 22.2709C43.0467 22.0519 43.1419 21.846 43.301 21.6969C43.4601 21.5478 43.6705 21.4673 43.8875 21.4724L162.782 27.7577C162.891 27.7634 162.998 27.7908 163.097 27.8383C163.195 27.8858 163.284 27.9525 163.357 28.0346C163.43 28.1166 163.487 28.2125 163.524 28.3166C163.56 28.4207 163.576 28.5311 163.57 28.6414C163.565 28.7517 163.538 28.8599 163.49 28.9596C163.443 29.0593 163.377 29.1487 163.296 29.2227C163.215 29.2967 163.12 29.3538 163.017 29.3907C162.914 29.4276 162.805 29.4437 162.695 29.438ZM77.0106 83.8292L40.7572 81.9135C40.5428 81.8935 40.3443 81.7906 40.2034 81.6262C40.0625 81.4618 39.99 81.2486 40.0011 81.0315C40.0123 80.8143 40.1062 80.6099 40.2632 80.4611C40.4202 80.3123 40.6282 80.2306 40.8435 80.2332L77.0976 82.149C77.2069 82.1547 77.3139 82.1822 77.4126 82.2297C77.5114 82.2773 77.5998 82.344 77.673 82.4261C77.7462 82.5082 77.8027 82.604 77.8392 82.7082C77.8758 82.8123 77.8916 82.9227 77.8859 83.033C77.8802 83.1434 77.853 83.2515 77.806 83.3512C77.7589 83.4509 77.6928 83.5403 77.6115 83.6142C77.5303 83.6882 77.4354 83.7452 77.3323 83.7821C77.2292 83.819 77.1199 83.835 77.0106 83.8292Z"
            fill="black" />
    </g>
    <g opacity="0.3">
        <path
            d="M164.356 100.916L36.4167 97.6899C32.3849 97.5897 29.1886 94.2128 29.2884 90.1645L31.0078 21.4744C31.1076 17.4262 34.4707 14.2168 38.5025 14.317L166.441 17.5428C170.473 17.6431 173.669 21.0199 173.57 25.0682L171.85 93.7583C171.75 97.8066 168.387 101.017 164.356 100.916ZM38.4625 15.9832C35.3489 15.9031 32.7506 18.3846 32.6708 21.5145L30.9507 90.2046C30.8709 93.331 33.343 95.9399 36.4595 96.0201L164.398 99.2466C167.512 99.3268 170.11 96.8446 170.19 93.7154L171.91 25.0253C171.99 21.8989 169.518 19.29 166.401 19.2098L38.4625 15.9832Z"
            fill="black" />
        <path
            d="M60.4279 57.2559C54.1305 57.0984 49.1333 51.8339 49.2897 45.5199C49.4462 39.2095 54.7006 34.202 61.0015 34.3588C67.2989 34.5156 72.2962 39.7808 72.1397 46.0948C71.9825 52.4087 66.7289 57.4134 60.4279 57.2559ZM60.9615 36.0325C55.5807 35.8951 51.0929 40.1717 50.96 45.5636C50.8228 50.9555 55.0906 55.4519 60.4715 55.5858C65.8523 55.7189 70.3394 51.4466 70.473 46.0547C70.6095 40.6627 66.3424 36.1657 60.9615 36.0325Z"
            fill="black" />
        <path
            d="M78.1501 72.2202C77.9294 72.2149 77.7199 72.122 77.5676 71.9617C77.4153 71.8014 77.3326 71.587 77.3378 71.3656C77.5246 63.9271 69.9066 57.6809 60.358 57.4404C50.8094 57.1999 42.889 63.0553 42.7021 70.4939C42.6932 70.7128 42.599 70.9194 42.4397 71.0692C42.2804 71.2191 42.0688 71.3001 41.8506 71.2948C41.6323 71.2896 41.4249 71.1985 41.2729 71.0411C41.121 70.8838 41.0367 70.6729 41.0383 70.4538C41.248 62.0934 49.9343 55.5094 60.3979 55.7742C70.8651 56.0376 79.2084 63.0517 78.9987 71.4121C78.9933 71.6336 78.9005 71.8439 78.7407 71.9967C78.5809 72.1496 78.3672 72.2325 78.1465 72.2273L78.1501 72.2202ZM151.219 43.0951L89.8517 41.5491C89.6309 41.5438 89.4214 41.4507 89.269 41.2903C89.1167 41.1299 89.0341 40.9153 89.0394 40.6938C89.0447 40.4723 89.1374 40.2619 89.2973 40.1091C89.4571 39.9562 89.6709 39.8733 89.8916 39.8786L151.259 41.4246C151.475 41.4371 151.677 41.5332 151.823 41.6927C151.97 41.8521 152.049 42.0624 152.044 42.2792C152.038 42.496 151.949 42.7022 151.796 42.8545C151.642 43.0067 151.435 43.093 151.219 43.0951ZM151.053 54.8688L89.6855 53.3228C89.4698 53.3103 89.2674 53.2142 89.121 53.0547C88.9746 52.8953 88.8956 52.685 88.9008 52.4682C88.906 52.2514 88.9949 52.0452 89.1488 51.8929C89.3026 51.7407 89.5094 51.6544 89.7254 51.6523L151.093 53.1983C151.313 53.2036 151.523 53.2967 151.675 53.4571C151.828 53.6175 151.91 53.8321 151.905 54.0536C151.9 54.2751 151.807 54.4855 151.647 54.6383C151.487 54.7912 151.273 54.8741 151.053 54.8688ZM133.846 66.115L89.4059 64.9928C89.2967 64.9901 89.1889 64.9659 89.089 64.9215C88.989 64.8771 88.8987 64.8134 88.8233 64.734C88.7479 64.6545 88.6888 64.561 88.6494 64.4586C88.61 64.3563 88.591 64.2472 88.5937 64.1375C88.5963 64.0278 88.6204 63.9197 88.6646 63.8194C88.7089 63.719 88.7724 63.6284 88.8515 63.5527C88.9307 63.477 89.0239 63.4177 89.1259 63.3782C89.2279 63.3386 89.3366 63.3196 89.4459 63.3223L133.886 64.4445C134.102 64.457 134.304 64.5532 134.451 64.7126C134.597 64.8721 134.676 65.0824 134.671 65.2992C134.666 65.5159 134.577 65.7222 134.423 65.8744C134.269 66.0266 134.062 66.1129 133.846 66.115ZM133.313 88.0356C133.119 88.0292 132.933 87.9548 132.787 87.8252C132.642 87.6957 132.546 87.5191 132.516 87.3261C132.487 87.1331 132.525 86.9358 132.625 86.7683C132.725 86.6008 132.88 86.4736 133.064 86.4088C134.541 85.8935 135.889 85.0627 137.015 83.9739C136.478 83.8136 135.926 83.5401 135.51 83.0792C135.014 82.531 134.795 81.8195 134.875 81.0151C134.938 80.3838 135.218 79.7489 135.677 79.1814C135.767 79.0711 135.857 78.9573 135.946 78.8435C136.386 78.2824 136.881 77.6483 137.597 77.2303C138.346 76.7966 139.214 76.7128 139.923 77.0034C140.578 77.2739 141.058 77.8515 141.268 78.6302C141.451 79.3045 141.401 80.0359 141.125 80.7509C140.91 81.3053 140.654 81.8424 140.359 82.3578C141.432 82.153 142.463 81.7704 143.411 81.2255C143.599 81.1159 143.818 81.072 144.033 81.1005C144.248 81.129 144.448 81.2284 144.601 81.3831C144.754 81.5378 144.851 81.739 144.878 81.9553C144.905 82.1715 144.86 82.3906 144.749 82.5782C144.559 82.9053 144.373 83.3498 144.579 83.5967C144.736 83.7871 145.045 83.7906 145.272 83.6969C145.714 83.5129 146.043 83.1293 146.413 82.3642C146.583 82.0135 146.909 81.763 147.292 81.6928C147.483 81.6584 147.679 81.6695 147.865 81.7252C148.052 81.7809 148.222 81.8796 148.363 82.0135C149.189 82.7986 150.354 83.2324 151.465 83.1794C152.753 83.1157 154.005 82.4143 154.73 81.3421C154.791 81.2516 154.87 81.174 154.961 81.114C155.052 81.0539 155.154 81.0124 155.262 80.9919C155.369 80.9715 155.479 80.9724 155.586 80.9947C155.693 81.0169 155.794 81.0601 155.884 81.1217C155.975 81.1833 156.052 81.2622 156.112 81.3537C156.172 81.4453 156.213 81.5478 156.233 81.6554C156.254 81.763 156.253 81.8736 156.231 81.9809C156.209 82.0881 156.166 82.1899 156.104 82.2805C155.093 83.7771 153.346 84.759 151.545 84.8456C150.151 84.9158 148.756 84.462 147.645 83.5931C147.279 84.2315 146.749 84.8857 145.904 85.2364C144.952 85.6308 143.904 85.3967 143.295 84.6588C142.992 84.2937 142.824 83.8349 142.819 83.3598C141.629 83.8423 140.366 84.1201 139.084 84.1814C137.644 85.9049 135.74 87.244 133.599 87.9855C133.505 88.0173 133.406 88.0331 133.307 88.0321L133.313 88.0356ZM139.054 78.5028C138.833 78.5051 138.617 78.565 138.425 78.6768C137.986 78.9309 137.63 79.3882 137.251 79.8728C137.154 79.9959 137.058 80.1197 136.961 80.2363C136.785 80.4539 136.565 80.7975 136.526 81.1818C136.482 81.6191 136.622 81.8331 136.735 81.9534C137.015 82.2604 137.587 82.4644 138.279 82.5145C138.809 81.7826 139.244 80.9858 139.574 80.1433C139.717 79.7726 139.75 79.3882 139.661 79.0676C139.547 78.6532 139.35 78.5701 139.288 78.5465C139.213 78.5174 139.134 78.5026 139.054 78.5028ZM162.042 28.2917L43.0059 25.2892C42.7878 25.2803 42.5819 25.1857 42.4326 25.0258C42.2833 24.866 42.2026 24.6536 42.2078 24.4346C42.2131 24.2156 42.3038 24.0074 42.4606 23.8549C42.6174 23.7024 42.8276 23.6178 43.0459 23.6194L162.082 26.6219C162.296 26.6366 162.496 26.7337 162.64 26.8928C162.785 27.0519 162.863 27.2608 162.857 27.4759C162.852 27.6911 162.765 27.896 162.613 28.048C162.461 28.1999 162.256 28.2872 162.042 28.2917ZM77.8405 84.6588L41.5411 83.7434C41.4306 83.7426 41.3214 83.7197 41.2199 83.6762C41.1183 83.6326 41.0264 83.5691 40.9495 83.4895C40.8726 83.4099 40.8123 83.3157 40.772 83.2125C40.7318 83.1092 40.7124 82.999 40.7151 82.8881C40.7177 82.7773 40.7423 82.6681 40.7875 82.5669C40.8326 82.4657 40.8974 82.3746 40.978 82.2988C41.0586 82.2229 41.1534 82.164 41.2569 82.1253C41.3605 82.0867 41.4707 82.0691 41.581 82.0736L77.8805 82.989C77.9909 82.9898 78.1001 83.0127 78.2017 83.0563C78.3033 83.0999 78.3952 83.1633 78.4721 83.2429C78.549 83.3226 78.6093 83.4167 78.6495 83.52C78.6898 83.6232 78.7091 83.7335 78.7065 83.8443C78.7038 83.9551 78.6792 84.0643 78.6341 84.1655C78.589 84.2667 78.5242 84.3579 78.4436 84.4337C78.363 84.5095 78.2682 84.5685 78.1646 84.6071C78.0611 84.6458 77.9509 84.6633 77.8405 84.6588Z"
            fill="black" />
    </g>
    <path
        d="M172.655 110.221H27.3451C23.2968 110.221 20 106.946 20 102.92V15.8897C20 11.8658 23.2932 8.58887 27.3451 8.58887H172.655C176.703 8.58887 180 11.8629 180 15.8897V102.923C180 106.946 176.706 110.223 172.655 110.223V110.221ZM27.3451 10.2522C24.2151 10.2522 21.6699 12.7821 21.6699 15.8933V102.923C21.6699 106.034 24.2151 108.564 27.3451 108.564H172.655C175.784 108.564 178.329 106.034 178.329 102.923V15.8897C178.329 12.7793 175.784 10.2494 172.655 10.2494H27.3451V10.2522Z"
        fill="#F43F5E" />
    <path
        d="M100.073 125.612L101.904 123.777C101.979 123.702 102.039 123.612 102.08 123.514C102.121 123.415 102.142 123.31 102.142 123.203C102.142 123.096 102.121 122.991 102.08 122.892C102.039 122.794 101.979 122.704 101.904 122.629C101.829 122.553 101.739 122.494 101.641 122.453C101.543 122.412 101.438 122.391 101.331 122.391C101.225 122.391 101.12 122.412 101.021 122.453C100.923 122.494 100.834 122.553 100.759 122.629L98.9281 124.464L97.0976 122.629C97.0225 122.553 96.9333 122.494 96.835 122.453C96.7368 122.412 96.6315 122.391 96.5251 122.391C96.4188 122.391 96.3135 122.412 96.2152 122.453C96.117 122.494 96.0277 122.553 95.9526 122.629C95.8772 122.704 95.8173 122.794 95.7765 122.892C95.7356 122.991 95.7146 123.096 95.7146 123.203C95.7146 123.31 95.7356 123.415 95.7765 123.514C95.8173 123.612 95.8772 123.702 95.9526 123.777L97.7831 125.612L95.9526 127.448C95.8388 127.561 95.7612 127.706 95.7297 127.864C95.6981 128.021 95.714 128.185 95.7754 128.333C95.8368 128.481 95.9409 128.608 96.0744 128.697C96.208 128.786 96.3648 128.833 96.5251 128.832C96.7317 128.832 96.9389 128.755 97.0976 128.596L98.9281 126.76L100.759 128.596C100.917 128.755 101.125 128.832 101.331 128.832C101.491 128.833 101.648 128.786 101.782 128.697C101.915 128.608 102.019 128.481 102.081 128.333C102.142 128.185 102.158 128.021 102.127 127.864C102.095 127.706 102.017 127.561 101.904 127.448L100.073 125.612Z"
        fill="white" />
</svg>