<svg width="200" height="141" viewBox="0 0 200 141" fill="none" xmlns="http://www.w3.org/2000/svg">
    <path
        d="M109.286 125.612C109.286 130.948 104.969 135.274 99.6432 135.274C94.3176 135.274 90 130.948 90 125.612C90 120.275 94.3176 115.949 99.6432 115.949C104.969 115.949 109.286 120.275 109.286 125.612Z"
        fill="#F43F5E" />
    <path
        d="M100.788 125.612L102.619 123.777C102.694 123.702 102.754 123.612 102.795 123.514C102.836 123.415 102.857 123.31 102.857 123.203C102.857 123.096 102.836 122.991 102.795 122.892C102.754 122.794 102.694 122.704 102.619 122.629C102.543 122.553 102.454 122.494 102.356 122.453C102.258 122.412 102.152 122.391 102.046 122.391C101.94 122.391 101.834 122.412 101.736 122.453C101.638 122.494 101.549 122.553 101.474 122.629L99.643 124.464L97.8125 122.629C97.7374 122.553 97.6481 122.494 97.5499 122.453C97.4516 122.412 97.3463 122.391 97.24 122.391C97.1336 122.391 97.0283 122.412 96.9301 122.453C96.8318 122.494 96.7426 122.553 96.6675 122.629C96.592 122.704 96.5321 122.794 96.4913 122.892C96.4504 122.991 96.4294 123.096 96.4294 123.203C96.4294 123.31 96.4504 123.415 96.4913 123.514C96.5321 123.612 96.592 123.702 96.6675 123.777L98.498 125.612L96.6675 127.448C96.5537 127.561 96.4761 127.706 96.4445 127.864C96.413 128.021 96.4289 128.185 96.4903 128.333C96.5517 128.481 96.6558 128.608 96.7893 128.697C96.9228 128.786 97.0797 128.833 97.24 128.832C97.4465 128.832 97.6538 128.755 97.8125 128.596L99.643 126.76L101.474 128.596C101.632 128.755 101.839 128.832 102.046 128.832C102.206 128.833 102.363 128.786 102.497 128.697C102.63 128.608 102.734 128.481 102.796 128.333C102.857 128.185 102.873 128.021 102.841 127.864C102.81 127.706 102.732 127.561 102.619 127.448L100.788 125.612Z"
        fill="white" />
    <path opacity="0.3"
        d="M161.5 20.0405H64.2145C61.4926 20.0405 59.2861 22.2358 59.2861 24.9433V76.691C59.2861 79.3986 61.4926 81.5938 64.2145 81.5938H161.5C164.222 81.5938 166.429 79.3986 166.429 76.691V24.9433C166.429 22.2358 164.222 20.0405 161.5 20.0405Z"
        fill="#142641" />
    <path
        d="M163.643 16.4619H66.3576C63.6352 16.4619 61.4287 18.6566 61.4287 21.3647V73.1124C61.4287 75.8205 63.6352 78.0152 66.3576 78.0152H163.643C166.365 78.0152 168.572 75.8205 168.572 73.1124V21.3647C168.572 18.6572 166.365 16.4619 163.643 16.4619Z"
        fill="white" />
    <path fill-rule="evenodd" clip-rule="evenodd"
        d="M69.2861 67.995C69.2861 67.5997 69.6079 67.2793 70.0048 67.2793H116.425C116.822 67.2793 117.143 67.5997 117.143 67.995C117.143 68.3903 116.822 68.7108 116.425 68.7108H70.0048C69.6079 68.7108 69.2861 68.3903 69.2861 67.995Z"
        fill="#F43F5E" />
    <path opacity="0.3"
        d="M63.7166 82.2346C63.6688 82.1648 63.622 82.0922 63.5763 82.0166C63.3715 81.6784 63.1625 81.3551 62.9518 81.0289C60.9256 77.8931 58.7321 74.4981 58.4092 55.1517C58.3119 49.3196 58.3511 41.207 58.3832 34.5726C58.3969 31.7505 58.4092 29.1958 58.4092 27.198C45.8412 35.6277 45.4995 36.5145 41.0395 48.0876C40.2676 50.0906 39.3723 52.4138 38.2689 55.1517C31.6468 71.5827 31.7888 82.646 32.4347 89.7248C32.8479 94.252 33.6497 98.7618 34.8297 103.152L37.2391 112.118C37.8466 114.378 39.9057 115.949 42.2498 115.949H66.5866C69.5637 115.949 72.2584 114.155 73.1992 111.335C73.929 109.148 74.6054 106.89 75.2687 104.676C75.8032 102.892 76.3293 101.136 76.8681 99.468C77.4588 97.6388 77.962 96.0159 78.3869 94.5718L95.0615 76.0638C98.2081 72.5713 97.728 67.1362 94.0175 64.2459C90.946 61.8532 86.6099 61.9873 83.6953 64.565L63.7166 82.2346Z"
        fill="#142641" />
    <path fill-rule="evenodd" clip-rule="evenodd"
        d="M67.0375 17.1785C64.7254 17.1785 62.8547 19.0549 62.8547 21.365V73.1119C62.8547 75.422 64.7254 77.2985 67.0375 77.2985H163.677C165.989 77.2985 167.86 75.422 167.86 73.1119V21.365C167.86 19.0549 165.989 17.1785 163.677 17.1785H67.0375ZM61.4287 21.365C61.4287 18.2597 63.9419 15.7461 67.0375 15.7461H163.677C166.773 15.7461 169.286 18.2597 169.286 21.365V73.1119C169.286 76.2172 166.773 78.7309 163.677 78.7309H67.0375C63.9419 78.7309 61.4287 76.2172 61.4287 73.1119V21.365Z"
        fill="#142641" />
    <path fill-rule="evenodd" clip-rule="evenodd"
        d="M66.4724 74.9588C65.5995 74.4146 64.7744 73.5949 64.0572 72.4147C63.6037 71.6684 63.2641 71.1323 63.0074 70.5595C62.0292 68.3763 62.2558 65.6592 61.9724 48.7368C61.8744 42.8819 61.9144 34.3636 61.9467 27.4981C61.9602 24.6139 61.9724 22.0213 61.9724 20.0405C47.175 29.9312 43.4156 37.2887 35.9095 55.8485C28.6418 73.819 30.7184 83.5667 32.0238 89.6943C32.0422 89.7807 32.0605 89.8664 32.0786 89.9514C32.4475 91.6863 32.6959 93.4451 32.9441 95.2036C33.1005 96.311 33.2568 97.4182 33.4432 98.5193L35.1794 108.774C35.6009 111.263 37.776 113.086 40.3145 113.086H64.3306C67.319 113.086 70.0238 111.292 70.9679 108.472C71.7005 106.284 72.3795 104.026 73.0453 101.811C73.5818 100.026 74.1099 98.2701 74.6506 96.6017C75.2401 94.7827 75.7427 93.1677 76.1676 91.7295L92.9119 73.2091C96.0693 69.7168 95.5873 64.2818 91.8637 61.3913C88.7813 58.9985 84.4301 59.1324 81.5053 61.71L66.4724 74.9588Z"
        fill="white" />
    <path fill-rule="evenodd" clip-rule="evenodd"
        d="M62.6895 18.6091L61.5724 19.3566C54.1243 24.3404 49.4104 28.7162 45.6171 34.2126C41.8385 39.6878 38.9962 46.245 35.2465 55.5266C31.5867 64.5859 30.2679 71.6025 30.038 77.149C29.8082 82.6933 30.6687 86.7371 31.3234 89.8134L31.3797 90.0779C31.7426 91.7864 31.9877 93.5225 32.2366 95.2869L32.2373 95.2918C32.3932 96.397 32.5506 97.5134 32.7386 98.6251L34.4746 108.89C34.9544 111.727 37.4294 113.802 40.3164 113.802H64.3304C67.6024 113.802 70.5983 111.832 71.6476 108.695C72.3836 106.494 73.0651 104.225 73.7299 102.011L73.7314 102.006C74.2684 100.218 74.7941 98.4676 75.332 96.8061C75.9018 95.046 76.3913 93.4742 76.8083 92.067L93.4425 73.6484C96.8777 69.8447 96.3531 63.9265 92.3024 60.7786C88.948 58.1719 84.2116 58.3174 81.0281 61.1261L66.4181 74.0162C65.8043 73.5464 65.2103 72.8953 64.6708 72.0066C64.6163 71.9167 64.5639 71.8307 64.5135 71.748C64.1333 71.1236 63.8686 70.6891 63.6623 70.2281C63.2366 69.2769 63.0472 68.1797 62.946 65.1058C62.8887 63.3623 62.8595 61.0261 62.8188 57.7726C62.788 55.3089 62.7506 52.3191 62.6894 48.6622C62.5915 42.8108 62.6315 34.2928 62.6638 27.4175L62.6638 27.4156C62.6773 24.5299 62.6895 21.9335 62.6895 19.9491V18.6091ZM61.2538 21.2998C61.2501 23.0517 61.2403 25.1402 61.2296 27.4108L61.2296 27.4172C61.1974 34.2855 61.1573 42.8177 61.2555 48.686C61.3162 52.3177 61.3536 55.3001 61.3844 57.7649C61.4254 61.0374 61.4549 63.3973 61.5127 65.1525C61.6136 68.2197 61.8 69.5752 62.3524 70.8093C62.5981 71.3583 62.9141 71.8766 63.2861 72.4867C63.3375 72.571 63.3899 72.657 63.4434 72.7451C64.2116 74.0105 65.1126 74.9165 66.0911 75.5273L66.5459 75.8112L81.9793 62.1947C84.6448 59.843 88.6101 59.7205 91.42 61.9041C94.8157 64.543 95.2552 69.5057 92.376 72.6937L75.5243 91.3533L75.4784 91.5088C75.0557 92.9412 74.555 94.5518 73.967 96.3681C73.424 98.0454 72.8942 99.8096 72.3586 101.593L72.3574 101.597C71.691 103.816 71.0153 106.066 70.2869 108.244C69.448 110.752 67.0348 112.374 64.3304 112.374H40.3164C38.1269 112.374 36.252 110.8 35.8889 108.653L34.1529 98.388C33.9684 97.2971 33.8134 96.1984 33.6568 95.0884L33.6551 95.0765C33.408 93.3241 33.1568 91.5432 32.7828 89.7824L32.728 89.5247C32.0775 86.4682 31.2487 82.5685 31.4709 77.2079C31.6932 71.8451 32.9698 64.9886 36.5771 56.0594C40.3329 46.7626 43.1228 40.3481 46.7991 35.0211C50.2713 29.99 54.5546 25.9018 61.2538 21.2998Z"
        fill="#142641" />
    <path fill-rule="evenodd" clip-rule="evenodd"
        d="M68.0064 73.6087C67.6505 73.4358 67.2212 73.5829 67.0475 73.9373C66.8293 74.3826 66.3353 74.9103 65.5877 75.4582C64.8545 75.9955 63.9375 76.5088 62.9578 76.9452C61.9791 77.3812 60.9556 77.7326 60.0158 77.9539C59.0647 78.1778 58.2478 78.2567 57.6639 78.1866C57.2707 78.1394 56.9136 78.4185 56.8662 78.8099C56.8188 79.2014 57.0991 79.5569 57.4922 79.6041C58.3155 79.703 59.3199 79.5848 60.3458 79.3433C61.383 79.0992 62.4921 78.7169 63.5436 78.2485C64.5939 77.7806 65.6044 77.2188 66.4379 76.608C67.2568 76.0079 67.9684 75.3144 68.3365 74.5633C68.5101 74.209 68.3623 73.7816 68.0064 73.6087Z"
        fill="#142641" />
    <path
        d="M83.5721 47.9544C78.8464 47.9544 75.0004 44.1013 75.0004 39.3656C75.0004 34.6299 78.8464 30.7767 83.5721 30.7767C88.2979 30.7767 92.1433 34.6299 92.1433 39.3656C92.1433 44.1008 88.2979 47.9544 83.5721 47.9544ZM83.5721 32.0317C79.5365 32.0317 76.251 35.3212 76.251 39.3677C76.251 43.4143 79.5338 46.7043 83.5721 46.7043C87.6099 46.7043 90.8933 43.4143 90.8933 39.3677C90.8933 35.3212 87.6104 32.0317 83.5721 32.0317Z"
        fill="black" />
    <path fill-rule="evenodd" clip-rule="evenodd"
        d="M105.715 35.0712C105.715 34.6759 106.036 34.3554 106.431 34.3554H152.855C153.251 34.3554 153.572 34.6759 153.572 35.0712C153.572 35.4665 153.251 35.7869 152.855 35.7869H106.431C106.036 35.7869 105.715 35.4665 105.715 35.0712Z"
        fill="#142641" />
    <path fill-rule="evenodd" clip-rule="evenodd"
        d="M105.715 43.66C105.715 43.2647 106.036 42.9443 106.431 42.9443H152.855C153.251 42.9443 153.572 43.2647 153.572 43.66C153.572 44.0553 153.251 44.3757 152.855 44.3757H106.431C106.036 44.3757 105.715 44.0553 105.715 43.66Z"
        fill="#142641" />
    <path fill-rule="evenodd" clip-rule="evenodd"
        d="M69.2861 24.3351C69.2861 23.9398 69.6048 23.6194 69.998 23.6194H159.289C159.682 23.6194 160 23.9398 160 24.3351C160 24.7304 159.682 25.0509 159.289 25.0509H69.998C69.6048 25.0509 69.2861 24.7304 69.2861 24.3351Z"
        fill="#142641" />
    <path fill-rule="evenodd" clip-rule="evenodd"
        d="M105.715 52.9646C105.715 52.5693 106.037 52.2488 106.434 52.2488H139.995C140.393 52.2488 140.715 52.5693 140.715 52.9646C140.715 53.3599 140.393 53.6803 139.995 53.6803H106.434C106.037 53.6803 105.715 53.3599 105.715 52.9646Z"
        fill="#142641" />
    <path fill-rule="evenodd" clip-rule="evenodd"
        d="M83.5718 47.9428C76.2982 47.9428 70.7014 52.5844 70.7014 57.9805C70.7014 58.3726 70.3846 58.6904 69.9938 58.6904C69.603 58.6904 69.2861 58.3726 69.2861 57.9805C69.2861 51.5051 75.8476 46.5229 83.5718 46.5229C91.2961 46.5229 97.8576 51.5051 97.8576 57.9805C97.8576 58.3726 97.5407 58.6904 97.1499 58.6904C96.7591 58.6904 96.4422 58.3726 96.4422 57.9805C96.4422 52.5844 90.8455 47.9428 83.5718 47.9428Z"
        fill="#142641" />
    <path
        d="M142.721 68.7038C142.487 68.7038 142.265 68.5598 142.179 68.326C142.126 68.1818 142.132 68.0226 142.196 67.8828C142.26 67.7431 142.376 67.6342 142.52 67.5798C143.538 67.1974 144.462 66.5982 145.226 65.8237C144.851 65.7219 144.461 65.5412 144.162 65.2304C143.808 64.86 143.641 64.3685 143.685 63.8105C143.717 63.3701 143.901 62.9252 144.211 62.5246C144.272 62.4456 144.332 62.3667 144.392 62.2858C144.686 61.8896 145.022 61.4403 145.514 61.1389C146.028 60.8236 146.63 60.7522 147.129 60.9418C147.59 61.1181 147.933 61.5098 148.093 62.047C148.232 62.5107 148.211 63.0201 148.03 63.5185C147.891 63.9065 147.723 64.2836 147.527 64.6465C148.27 64.4857 148.982 64.2023 149.632 63.808C149.761 63.7302 149.911 63.6971 150.061 63.7137C150.211 63.7304 150.351 63.7958 150.459 63.9C150.568 64.0042 150.639 64.1413 150.662 64.29C150.685 64.4388 150.658 64.591 150.586 64.723C150.459 64.9549 150.338 65.2652 150.487 65.4345C150.598 65.5621 150.815 65.5596 150.971 65.4926C151.277 65.358 151.499 65.0844 151.74 64.5492C151.795 64.428 151.878 64.3215 151.982 64.2382C152.086 64.1548 152.208 64.0971 152.338 64.0696C152.471 64.0426 152.608 64.0469 152.739 64.0824C152.87 64.1178 152.99 64.1833 153.091 64.2737C153.68 64.8044 154.5 65.0844 155.272 65.0269C156.167 64.9618 157.026 64.4499 157.513 63.6968C157.598 63.5723 157.729 63.4861 157.877 63.4563C158.025 63.4265 158.179 63.4555 158.306 63.5373C158.433 63.619 158.523 63.7469 158.557 63.8939C158.591 64.041 158.566 64.1955 158.489 64.3248C157.809 65.3789 156.611 66.0923 155.36 66.1827C154.382 66.2506 153.411 65.9672 152.623 65.3833C152.38 65.8331 152.023 66.2964 151.441 66.5535C150.786 66.843 150.053 66.6995 149.615 66.1966C149.398 65.949 149.274 65.6339 149.263 65.3049C148.443 65.6597 147.57 65.8742 146.679 65.9394C145.698 67.1725 144.402 68.1172 142.927 68.6735C142.863 68.6981 142.795 68.7107 142.726 68.7108L142.721 68.7038ZM146.552 61.9939C146.415 61.9939 146.257 62.04 146.118 62.1259C145.817 62.3091 145.576 62.6333 145.321 62.9764C145.256 63.0643 145.191 63.1502 145.127 63.2336C145.006 63.3885 144.86 63.6298 144.839 63.8984C144.816 64.2017 144.918 64.3477 144.997 64.4291C145.196 64.6376 145.599 64.7697 146.081 64.7905C146.437 64.2739 146.726 63.714 146.941 63.1243C147.034 62.8652 147.05 62.5986 146.983 62.3786C146.897 62.0936 146.76 62.04 146.714 62.0217C146.662 62.0028 146.607 61.9934 146.552 61.9939Z"
        fill="black" />
</svg>