<svg width="200" height="141" viewBox="0 0 200 141" fill="none" xmlns="http://www.w3.org/2000/svg">
    <path
        d="M108.572 125.612C108.572 130.948 104.255 135.274 98.9293 135.274C93.6038 135.274 89.2861 130.948 89.2861 125.612C89.2861 120.275 93.6038 115.949 98.9293 115.949C104.255 115.949 108.572 120.275 108.572 125.612Z"
        fill="#F43F5E" />
    <path
        d="M172.655 110.221H27.3451C23.2968 110.221 20 106.946 20 102.92V15.8897C20 11.8658 23.2932 8.58887 27.3451 8.58887H172.655C176.703 8.58887 180 11.8629 180 15.8897V102.923C180 106.946 176.706 110.223 172.655 110.223V110.221ZM27.3451 10.2522C24.2151 10.2522 21.6699 12.7821 21.6699 15.8933V102.923C21.6699 106.034 24.2151 108.564 27.3451 108.564H172.655C175.784 108.564 178.329 106.034 178.329 102.923V15.8897C178.329 12.7793 175.784 10.2494 172.655 10.2494H27.3451V10.2522Z"
        fill="#F43F5E" />
    <path
        d="M100.073 125.612L101.904 123.777C101.979 123.702 102.039 123.612 102.08 123.514C102.121 123.415 102.142 123.31 102.142 123.203C102.142 123.096 102.121 122.991 102.08 122.892C102.039 122.794 101.979 122.704 101.904 122.629C101.829 122.553 101.739 122.494 101.641 122.453C101.543 122.412 101.438 122.391 101.331 122.391C101.225 122.391 101.12 122.412 101.021 122.453C100.923 122.494 100.834 122.553 100.759 122.629L98.9281 124.464L97.0976 122.629C97.0225 122.553 96.9333 122.494 96.835 122.453C96.7368 122.412 96.6315 122.391 96.5251 122.391C96.4188 122.391 96.3135 122.412 96.2152 122.453C96.117 122.494 96.0277 122.553 95.9526 122.629C95.8772 122.704 95.8173 122.794 95.7765 122.892C95.7356 122.991 95.7146 123.096 95.7146 123.203C95.7146 123.31 95.7356 123.415 95.7765 123.514C95.8173 123.612 95.8772 123.702 95.9526 123.777L97.7831 125.612L95.9526 127.448C95.8388 127.561 95.7612 127.706 95.7297 127.864C95.6981 128.021 95.714 128.185 95.7754 128.333C95.8368 128.481 95.9409 128.608 96.0744 128.697C96.208 128.786 96.3648 128.833 96.5251 128.832C96.7317 128.832 96.9389 128.755 97.0976 128.596L98.9281 126.76L100.759 128.596C100.917 128.755 101.125 128.832 101.331 128.832C101.491 128.833 101.648 128.786 101.782 128.697C101.915 128.608 102.019 128.481 102.081 128.333C102.142 128.185 102.158 128.021 102.127 127.864C102.095 127.706 102.017 127.561 101.904 127.448L100.073 125.612Z"
        fill="white" />
    <path opacity="0.3"
        d="M162.78 21.4722H34.3628C32.6375 21.4722 30.9828 22.1569 29.7628 23.3756C28.5428 24.5944 27.8574 26.2474 27.8574 27.971V96.5665C27.8573 97.42 28.0255 98.2652 28.3524 99.0537C28.6793 99.8423 29.1585 100.559 29.7626 101.162C30.3666 101.766 31.0838 102.245 31.8731 102.571C32.6625 102.898 33.5085 103.066 34.3628 103.066H162.78C163.634 103.066 164.48 102.898 165.27 102.572C166.059 102.245 166.776 101.766 167.381 101.163C167.985 100.559 168.464 99.8425 168.791 99.0539C169.118 98.2653 169.286 97.4201 169.286 96.5665V27.971C169.286 27.1175 169.118 26.2724 168.791 25.4838C168.464 24.6953 167.984 23.9789 167.38 23.3754C166.776 22.7719 166.059 22.2932 165.27 21.9667C164.48 21.6401 163.634 21.4721 162.78 21.4722Z"
        fill="#142641" />
    <path
        d="M165.637 17.1777H37.22C36.3656 17.1776 35.5196 17.3457 34.7303 17.6722C33.9409 17.9988 33.2237 18.4775 32.6195 19.081C32.0154 19.6844 31.5361 20.4009 31.2091 21.1894C30.8822 21.9779 30.7139 22.8231 30.7139 23.6766V92.2721C30.7138 93.1256 30.882 93.9709 31.2089 94.7595C31.5359 95.5481 32.0151 96.2646 32.6193 96.8682C33.2234 97.4717 33.9407 97.9505 34.7301 98.2771C35.5195 98.6037 36.3656 98.7717 37.22 98.7716H165.637C166.491 98.7716 167.337 98.6035 168.127 98.2769C168.916 97.9502 169.633 97.4715 170.237 96.8679C170.841 96.2644 171.321 95.5479 171.647 94.7593C171.974 93.9707 172.143 93.1256 172.142 92.2721V23.6766C172.142 21.953 171.457 20.3 170.237 19.0812C169.017 17.8624 167.362 17.1777 165.637 17.1777Z"
        fill="white" />
    <path
        d="M165.529 100.203H37.3278C33.289 100.203 30 96.8957 30 92.828V23.8369C30 19.7721 33.2862 16.4619 37.3278 16.4619H165.529C169.568 16.4619 172.857 19.7685 172.857 23.8369V92.828C172.857 96.8928 169.572 100.203 165.529 100.203ZM37.3278 18.1422C34.2059 18.1422 31.6666 20.6978 31.6666 23.8398V92.8309C31.6666 95.9736 34.2059 98.5293 37.3278 98.5293H165.529C168.652 98.5293 171.191 95.9736 171.191 92.8309V23.8369C171.191 20.6942 168.652 18.1386 165.529 18.1386H37.3278V18.1422Z"
        fill="black" />
    <path
        d="M59.9999 59.406C53.6987 59.406 48.5713 54.2684 48.5713 47.9546C48.5713 41.6408 53.6987 36.5024 59.9999 36.5024C66.301 36.5024 71.4284 41.6408 71.4284 47.9546C71.4284 54.2684 66.301 59.406 59.9999 59.406ZM59.9999 38.1761C54.6189 38.1761 50.238 42.5628 50.238 47.9574C50.238 53.3528 54.6153 57.7388 59.9999 57.7388C65.3844 57.7388 69.7617 53.3528 69.7617 47.9574C69.7617 42.5628 65.3844 38.1761 59.9999 38.1761Z"
        fill="black" />
    <path
        d="M78.5639 73.5712C78.3433 73.571 78.1318 73.4828 77.9758 73.3258C77.8198 73.1689 77.732 72.9561 77.7318 72.7341C77.7318 65.2763 69.962 59.2108 60.4124 59.2108C50.8628 59.2108 43.0929 65.2763 43.0929 72.7341C43.0866 72.9518 42.9962 73.1584 42.8409 73.3102C42.6856 73.4619 42.4776 73.5467 42.2612 73.5467C42.0447 73.5467 41.8368 73.4619 41.6815 73.3102C41.5262 73.1584 41.4358 72.9518 41.4294 72.7341C41.4294 64.356 49.9444 57.5374 60.4124 57.5374C70.8804 57.5374 79.3953 64.356 79.3953 72.7341C79.3953 73.1961 79.0231 73.5712 78.5639 73.5712ZM150.866 42.5472H89.4911C89.2747 42.5408 89.0693 42.4499 88.9185 42.2936C88.7677 42.1374 88.6834 41.9282 88.6834 41.7104C88.6834 41.4927 88.7677 41.2835 88.9185 41.1273C89.0693 40.971 89.2747 40.8801 89.4911 40.8737H150.866C151.082 40.8801 151.288 40.971 151.438 41.1273C151.589 41.2835 151.673 41.4927 151.673 41.7104C151.673 41.9282 151.589 42.1374 151.438 42.2936C151.288 42.4499 151.082 42.5408 150.866 42.5472ZM150.993 54.3468H89.6173C89.3967 54.3468 89.1852 54.2586 89.0292 54.1017C88.8732 53.9448 88.7856 53.732 88.7856 53.5101C88.7856 53.2882 88.8732 53.0753 89.0292 52.9184C89.1852 52.7615 89.3967 52.6733 89.6173 52.6733H150.993C151.209 52.6797 151.414 52.7707 151.565 52.9269C151.716 53.0831 151.8 53.2923 151.8 53.5101C151.8 53.7278 151.716 53.937 151.565 54.0933C151.414 54.2495 151.209 54.3404 150.993 54.3468ZM134.076 66.046H89.6309C89.4145 66.0396 89.2091 65.9487 89.0583 65.7925C88.9075 65.6362 88.8231 65.427 88.8231 65.2093C88.8231 64.9915 88.9075 64.7823 89.0583 64.6261C89.2091 64.4699 89.4145 64.3789 89.6309 64.3725H134.076C134.292 64.3789 134.498 64.4699 134.649 64.6261C134.799 64.7823 134.884 64.9915 134.884 65.2093C134.884 65.427 134.799 65.6362 134.649 65.7925C134.498 65.9487 134.292 66.0396 134.076 66.046ZM134.096 88.0256C133.759 88.0256 133.44 87.8176 133.317 87.4797C133.241 87.2714 133.25 87.0413 133.342 86.8395C133.433 86.6376 133.6 86.4802 133.807 86.4016C135.269 85.8492 136.595 84.9835 137.693 83.8645C137.153 83.7175 136.594 83.4564 136.165 83.0073C135.656 82.4722 135.417 81.7621 135.48 80.9559C135.526 80.3196 135.789 79.6769 136.235 79.098C136.322 78.984 136.408 78.8699 136.495 78.753C136.917 78.1806 137.4 77.5315 138.105 77.0961C138.844 76.6406 139.709 76.5373 140.425 76.8113C141.087 77.0659 141.579 77.6319 141.809 78.408C142.008 79.078 141.979 79.8139 141.719 80.5341C141.519 81.0946 141.277 81.6393 140.997 82.1638C142.064 81.9314 143.085 81.522 144.019 80.9523C144.204 80.8399 144.42 80.7921 144.635 80.8161C144.85 80.8401 145.051 80.9347 145.207 81.0852C145.363 81.2357 145.465 81.4338 145.498 81.6487C145.531 81.8637 145.493 82.0835 145.389 82.2743C145.206 82.6092 145.033 83.0576 145.246 83.3022C145.406 83.4865 145.718 83.4829 145.942 83.3861C146.381 83.1917 146.7 82.7965 147.046 82.0232C147.125 81.8481 147.244 81.6941 147.393 81.5737C147.542 81.4534 147.717 81.37 147.905 81.3303C148.095 81.2912 148.292 81.2975 148.48 81.3487C148.668 81.3999 148.841 81.4945 148.986 81.6251C149.831 82.3919 151.009 82.7965 152.117 82.7132C153.402 82.6193 154.636 81.8797 155.335 80.7916C155.458 80.6118 155.645 80.4872 155.858 80.4441C156.07 80.4011 156.291 80.4431 156.473 80.5611C156.656 80.6792 156.785 80.864 156.834 81.0765C156.883 81.2889 156.848 81.5122 156.736 81.699C155.761 83.2218 154.041 84.2526 152.244 84.3831C150.839 84.4813 149.445 84.0718 148.314 83.2283C147.964 83.8781 147.452 84.5474 146.617 84.919C145.676 85.3371 144.624 85.1298 143.995 84.4032C143.683 84.0456 143.505 83.5903 143.489 83.1149C142.312 83.6275 141.058 83.9374 139.779 84.0317C138.37 85.8132 136.509 87.1781 134.392 87.9818C134.299 88.0173 134.201 88.0355 134.102 88.0356L134.096 88.0256ZM139.596 78.3312C139.4 78.3312 139.174 78.398 138.974 78.5221C138.541 78.7867 138.195 79.2551 137.829 79.7508C137.736 79.8778 137.643 80.0018 137.55 80.1223C137.377 80.3461 137.167 80.6948 137.137 81.0828C137.104 81.5211 137.25 81.732 137.363 81.8496C137.65 82.1509 138.229 82.3417 138.92 82.3718C139.432 81.6254 139.847 80.8165 140.155 79.9645C140.288 79.5901 140.311 79.2049 140.215 78.8872C140.092 78.4754 139.896 78.398 139.829 78.3714C139.754 78.3442 139.676 78.3306 139.596 78.3312ZM161.311 27.4408H42.2608C42.0401 27.4408 41.8285 27.3526 41.6724 27.1956C41.5164 27.0386 41.4287 26.8257 41.4287 26.6037C41.4287 26.3817 41.5164 26.1688 41.6724 26.0118C41.8285 25.8548 42.0401 25.7666 42.2608 25.7666H161.311C161.532 25.7666 161.743 25.8548 161.899 26.0118C162.055 26.1688 162.143 26.3817 162.143 26.6037C162.143 26.8257 162.055 27.0386 161.899 27.1956C161.743 27.3526 161.532 27.4408 161.311 27.4408ZM78.5639 86.0437H42.2608C42.0444 86.0373 41.839 85.9464 41.6882 85.7901C41.5374 85.6339 41.4531 85.4247 41.4531 85.207C41.4531 84.9892 41.5374 84.78 41.6882 84.6238C41.839 84.4675 42.0444 84.3766 42.2608 84.3702H78.5639C78.7845 84.3702 78.9961 84.4584 79.1521 84.6153C79.3081 84.7722 79.3957 84.985 79.3957 85.207C79.3957 85.4289 79.3081 85.6417 79.1521 85.7986C78.9961 85.9555 78.7845 86.0437 78.5639 86.0437Z"
        fill="black" />
    <path opacity="0.95"
        d="M74.123 16.4619L40 100.202H74.123L104.398 16.4619H74.123ZM114.268 16.4619L80.1447 100.203L85.6646 100.202L119.286 16.4619H114.268Z"
        fill="#F9FAFB" />
</svg>