<svg width="144" height="108" viewBox="0 0 144 108" fill="none" xmlns="http://www.w3.org/2000/svg">
    <g clip-path="url(#clip0_5805_2058)" filter="url(#filter0_dd_5805_2058)">
        <path
            d="M116 22C118.209 22 120 23.7909 120 26V78C120 80.2091 118.209 82 116 82H28C25.7909 82 24 80.2091 24 78V26C24 23.7909 25.7909 22 28 22H116ZM35.9668 64.3525C34.8597 64.3528 33.9619 65.4067 33.9619 66.7061V67.2939C33.9619 68.5933 34.8597 69.6472 35.9668 69.6475H71.8066C72.9138 69.6473 73.8115 68.5933 73.8115 67.2939V66.7061C73.8115 65.4067 72.9138 64.3527 71.8066 64.3525H35.9668ZM35.958 52.8828C34.8558 52.8831 33.9619 53.936 33.9619 55.2354V55.8232C33.9619 57.1226 34.8558 58.1765 35.958 58.1768H105.324C106.427 58.1768 107.32 57.1227 107.32 55.8232V55.2354C107.32 53.9359 106.427 52.8828 105.324 52.8828H35.958ZM35.9746 36.1172C34.8632 36.1173 33.9619 36.9605 33.9619 38V44.8232C33.9619 45.8628 34.8632 46.7059 35.9746 46.7061H50.0625C51.174 46.7061 52.0752 45.8628 52.0752 44.8232V38C52.0752 36.9604 51.174 36.1172 50.0625 36.1172H35.9746Z"
            fill="white" />
        <rect x="24.5" y="22.5" width="95" height="59" rx="5.5" stroke="white" />
    </g>
    <defs>
        <filter id="filter0_dd_5805_2058" x="0" y="0" width="144" height="108"
            filterUnits="userSpaceOnUse" color-interpolation-filters="sRGB">
            <feFlood flood-opacity="0" result="BackgroundImageFix" />
            <feColorMatrix in="SourceAlpha" type="matrix"
                values="0 0 0 0 0 0 0 0 0 0 0 0 0 0 0 0 0 0 127 0" result="hardAlpha" />
            <feOffset dy="2" />
            <feGaussianBlur stdDeviation="12" />
            <feColorMatrix type="matrix" values="0 0 0 0 0 0 0 0 0 0 0 0 0 0 0 0 0 0 0.1 0" />
            <feBlend mode="normal" in2="BackgroundImageFix" result="effect1_dropShadow_5805_2058" />
            <feColorMatrix in="SourceAlpha" type="matrix"
                values="0 0 0 0 0 0 0 0 0 0 0 0 0 0 0 0 0 0 127 0" result="hardAlpha" />
            <feOffset dy="2" />
            <feGaussianBlur stdDeviation="4" />
            <feColorMatrix type="matrix" values="0 0 0 0 0 0 0 0 0 0 0 0 0 0 0 0 0 0 0.05 0" />
            <feBlend mode="normal" in2="effect1_dropShadow_5805_2058"
                result="effect2_dropShadow_5805_2058" />
            <feBlend mode="normal" in="SourceGraphic" in2="effect2_dropShadow_5805_2058"
                result="shape" />
        </filter>
        <clipPath id="clip0_5805_2058">
            <rect width="96" height="60" fill="white" transform="translate(24 22)" />
        </clipPath>
    </defs>
</svg>