<svg width="280" height="197" viewBox="0 0 280 197" fill="none" xmlns="http://www.w3.org/2000/svg">
    <path
        d="M152 175.5C152 182.956 145.956 189 138.5 189C131.045 189 125 182.956 125 175.5C125 168.044 131.045 162 138.5 162C145.956 162 152 168.044 152 175.5Z"
        fill="#10B990" />
    <path
        d="M144.651 171.333C144.541 171.228 144.411 171.144 144.267 171.087C144.123 171.029 143.969 171 143.813 171C143.657 171 143.503 171.029 143.359 171.087C143.215 171.144 143.084 171.228 142.974 171.333L136.74 177.295L134.025 174.699C133.915 174.594 133.784 174.51 133.64 174.453C133.496 174.395 133.342 174.366 133.186 174.366C133.031 174.366 132.876 174.395 132.732 174.453C132.589 174.51 132.458 174.594 132.348 174.699C132.238 174.804 132.15 174.929 132.09 175.067C132.031 175.204 132 175.352 132 175.501C132 175.65 132.031 175.798 132.09 175.935C132.15 176.073 132.238 176.198 132.348 176.303L135.864 179.669C136.095 179.891 136.399 180 136.702 180H136.777C137.081 180 137.384 179.891 137.616 179.669L144.651 172.942C144.762 172.837 144.85 172.712 144.909 172.574C144.969 172.437 145 172.289 145 172.14C145 171.991 144.969 171.843 144.909 171.706C144.85 171.568 144.762 171.443 144.651 171.338V171.333Z"
        fill="white" />
    <path
        d="M251 154V39.0332C251 32.3891 245.614 27.0031 238.97 27.0029H41.0303C34.3862 27.0031 29.0002 32.3891 29 39.0332V154C29 154.552 28.5523 155 28 155C27.4477 155 27 154.552 27 154V39.0332C27.0002 31.2846 33.2816 25.0031 41.0303 25.0029H238.97C246.718 25.0031 253 31.2846 253 39.0332V154C253 154.552 252.552 155 252 155C251.448 155 251 154.552 251 154Z"
        fill="#142641" />
    <path
        d="M238 154V52.0029C238 50.3978 236.74 49.0871 235.154 49.0068L235 49.0029H45.0001C43.3432 49.0029 42.0001 50.3461 42.0001 52.0029L42 154C42 154.552 41.5523 155 41 155C40.4477 155 40 154.552 40 154L40.0001 52.0029C40.0001 49.2415 42.2386 47.0029 45.0001 47.0029H235L235.257 47.0098C237.899 47.1435 240 49.3277 240 52.0029V154C240 154.552 239.552 155 239 155C238.448 155 238 154.552 238 154Z"
        fill="#142641" />
    <circle cx="142.5" cy="37.5" r="4.5" fill="#142641" />
    <path opacity="0.3"
        d="M195.02 68H76.9797C73.6772 68 71 70.6748 71 73.9738V137.026C71 140.325 73.6772 143 76.9797 143H195.02C198.323 143 201 140.325 201 137.026V73.9738C201 70.6748 198.323 68 195.02 68Z"
        fill="#142641" />
    <path
        d="M75 68.6087C75 64.9588 77.9325 62 81.55 62H199.45C203.067 62 206 64.9588 206 68.6087V131.391C206 135.041 203.067 138 199.45 138H81.55C77.9325 138 75 135.041 75 131.391V68.6087Z"
        fill="white" />
    <path
        d="M199.45 135.988V138H81.5498V135.988H199.45ZM204.006 131.392V68.6084C204.006 66.07 201.966 64.0122 199.45 64.0122H81.5498C79.0339 64.0123 76.9945 66.0701 76.9943 68.6084V131.392C76.9944 133.93 79.0339 135.988 81.5498 135.988V138C78.0454 138 75.1842 135.223 75.0088 131.732L75 131.392V68.6084C75.0001 64.9588 77.9325 62.0001 81.5498 62H199.45C203.068 62 206 64.9587 206 68.6084V131.392L205.992 131.732C205.817 135.223 202.955 138 199.45 138V135.988C201.966 135.988 204.006 133.93 204.006 131.392Z"
        fill="#142641" />
    <path
        d="M112.984 90.5326C112.984 85.8236 109.18 82.0062 104.489 82.0062C99.7975 82.0062 95.9943 85.8236 95.9943 90.5326C95.9943 95.2416 99.7975 99.059 104.489 99.059C109.18 99.059 112.984 95.2416 112.984 90.5326ZM172.01 112.419C172.561 112.419 173.009 112.868 173.009 113.422C173.009 113.976 172.561 114.425 172.01 114.425H133.034C132.482 114.425 132.035 113.976 132.035 113.422C132.035 112.868 132.482 112.419 133.034 112.419H172.01ZM186.001 97.3722C186.553 97.3722 187 97.8213 187 98.3753C187 98.9293 186.553 99.3784 186.001 99.3784H133.034C132.482 99.3782 132.035 98.9292 132.035 98.3753C132.035 97.8214 132.482 97.3723 133.034 97.3722H186.001ZM186.001 83.3287C186.553 83.3287 187 83.7778 187 84.3318C187 84.8858 186.553 85.3349 186.001 85.3349H133.034C132.482 85.3347 132.035 84.8857 132.035 84.3318C132.035 83.7779 132.482 83.3288 133.034 83.3287H186.001ZM114.982 90.5326C114.982 94.484 112.813 97.924 109.606 99.7261C116.94 101.478 122.477 107.091 122.477 113.997C122.477 114.551 122.03 115 121.478 115C120.926 115 120.479 114.551 120.479 113.997C120.479 107.082 113.622 101.163 104.739 101.163C95.8556 101.163 88.9988 107.082 88.9987 113.997C88.9987 114.551 88.5513 115 87.9994 115C87.4474 115 87 114.551 87 113.997C87.0001 107.201 92.3624 101.655 99.5223 99.8114C96.2324 98.0335 93.9956 94.5458 93.9956 90.5326C93.9956 84.7156 98.6936 80 104.489 80C110.284 80 114.982 84.7156 114.982 90.5326Z"
        fill="#142641" />
</svg>