<svg width="200" height="141" viewBox="0 0 200 141" fill="none" xmlns="http://www.w3.org/2000/svg">
    <path
        d="M108.571 125.612C108.571 130.948 104.254 135.274 98.9284 135.274C93.6028 135.274 89.2852 130.948 89.2852 125.612C89.2852 120.275 93.6028 115.949 98.9284 115.949C104.254 115.949 108.571 120.275 108.571 125.612Z"
        fill="#10B990" />
    <path
        d="M172.655 110.221H27.3451C23.2968 110.221 20 106.946 20 102.92V15.8897C20 11.8658 23.2932 8.58887 27.3451 8.58887H172.655C176.703 8.58887 180 11.8629 180 15.8897V102.923C180 106.946 176.706 110.223 172.655 110.223V110.221ZM27.3451 10.2522C24.2151 10.2522 21.6699 12.7821 21.6699 15.8933V102.923C21.6699 106.034 24.2151 108.564 27.3451 108.564H172.655C175.784 108.564 178.329 106.034 178.329 102.923V15.8897C178.329 12.7793 175.784 10.2494 172.655 10.2494H27.3451V10.2522Z"
        fill="#10B990" />
    <path
        d="M103.322 122.629C103.243 122.554 103.15 122.494 103.047 122.453C102.944 122.412 102.834 122.391 102.723 122.391C102.612 122.391 102.501 122.412 102.399 122.453C102.296 122.494 102.203 122.554 102.124 122.629L97.6706 126.896L95.7315 125.039C95.6529 124.963 95.5595 124.903 95.4567 124.862C95.3539 124.821 95.2438 124.8 95.1325 124.8C95.0213 124.8 94.9111 124.821 94.8084 124.862C94.7056 124.903 94.6122 124.963 94.5335 125.039C94.4548 125.114 94.3924 125.203 94.3497 125.302C94.3071 125.4 94.2852 125.506 94.2852 125.612C94.2852 125.719 94.3071 125.825 94.3497 125.923C94.3924 126.022 94.4548 126.111 94.5335 126.186L97.0448 128.595C97.2101 128.754 97.427 128.832 97.6438 128.832H97.6975C97.9143 128.832 98.1311 128.754 98.2964 128.595L103.322 123.781C103.401 123.706 103.463 123.616 103.506 123.518C103.549 123.419 103.571 123.314 103.571 123.207C103.571 123.1 103.549 122.994 103.506 122.896C103.463 122.797 103.401 122.708 103.322 122.633V122.629Z"
        fill="white" />
    <path opacity="0.3"
        d="M162.065 21.4722H33.648C30.0552 21.4722 27.1426 24.3821 27.1426 27.9712V96.567C27.1426 100.156 30.0552 103.066 33.648 103.066H162.065C165.659 103.066 168.571 100.156 168.571 96.567V27.9712C168.571 24.3821 165.659 21.4722 162.065 21.4722Z"
        fill="#142641" />
    <path
        d="M164.923 17.1777H36.5061C32.9126 17.1777 30 20.087 30 23.6768V92.2726C30 95.8624 32.9126 98.7716 36.5061 98.7716H164.923C168.516 98.7716 171.429 95.8624 171.429 92.2726V23.6768C171.429 20.0877 168.516 17.1777 164.923 17.1777Z"
        fill="white" />
    <path
        d="M164.814 99.4873H36.613C32.5742 99.4873 29.2852 96.2087 29.2852 92.1757V23.7735C29.2852 19.7434 32.5706 16.4619 36.613 16.4619H164.814C168.853 16.4619 172.142 19.7405 172.142 23.7735V92.1757C172.142 96.2058 168.856 99.4873 164.814 99.4873ZM36.613 18.1273C33.4903 18.1273 30.9511 20.6615 30.9511 23.7771V92.1786C30.9511 95.2948 33.4903 97.8283 36.613 97.8283H164.814C167.936 97.8283 170.476 95.2948 170.476 92.1786V23.7735C170.476 20.6579 167.936 18.1245 164.814 18.1245H36.613V18.1273Z"
        fill="black" />
    <path
        d="M59.2864 58.6904C52.9854 58.6904 47.8574 53.5529 47.8574 47.2386C47.8574 40.9244 52.9854 35.7869 59.2864 35.7869C65.5873 35.7869 70.7146 40.9244 70.7146 47.2386C70.7146 53.5522 65.5873 58.6904 59.2864 58.6904ZM59.2864 37.4601C53.9055 37.4601 49.5248 41.8461 49.5248 47.2415C49.5248 52.6369 53.9019 57.0237 59.2864 57.0237C64.67 57.0237 69.0479 52.6369 69.0479 47.2415C69.0479 41.8461 64.6708 37.4601 59.2864 37.4601Z"
        fill="black" />
    <path
        d="M77.8496 73.5708C77.3904 73.5708 77.0175 73.1965 77.0175 72.7344C77.0175 65.2767 69.2476 59.2104 59.6979 59.2104C50.1483 59.2104 42.3783 65.2759 42.3783 72.7344C42.3783 73.1965 42.0054 73.5708 41.5462 73.5708C41.087 73.5708 40.7148 73.1965 40.7148 72.7344C40.7148 64.3552 49.2299 57.5368 59.6979 57.5368C70.1659 57.5368 78.681 64.356 78.681 72.7344C78.681 73.1965 78.3088 73.5708 77.8496 73.5708ZM150.153 42.5479H88.7775C88.5573 42.5481 88.3459 42.46 88.1899 42.3031C88.0339 42.1461 87.946 41.9331 87.9454 41.7107C87.9454 41.2486 88.3183 40.8735 88.7775 40.8735H150.153C150.612 40.8735 150.985 41.2478 150.985 41.7107C150.985 42.1721 150.612 42.5479 150.153 42.5479ZM150.279 54.3464H88.903C88.4438 54.3464 88.0716 53.972 88.0716 53.5099C88.0716 53.0477 88.4438 52.6734 88.903 52.6734H150.279C150.738 52.6734 151.111 53.0477 151.111 53.5099C151.111 53.972 150.738 54.3464 150.279 54.3464ZM133.362 66.0462H88.9166C88.4574 66.0462 88.0845 65.6719 88.0845 65.209C88.0845 64.7476 88.4574 64.3725 88.9166 64.3725H133.362C133.821 64.3725 134.193 64.7468 134.193 65.209C134.193 65.6711 133.821 66.0462 133.362 66.0462ZM133.382 88.0256C133.045 88.0256 132.726 87.8175 132.603 87.4799C132.444 87.048 132.663 86.5657 133.093 86.4016C134.555 85.8498 135.88 84.984 136.979 83.8641C136.439 83.7172 135.88 83.4559 135.451 83.0074C134.942 82.4719 134.703 81.7621 134.766 80.9558C134.812 80.3195 135.075 79.6767 135.521 79.0979C135.608 78.9842 135.694 78.8704 135.781 78.7531C136.203 78.1808 136.686 77.5308 137.391 77.096C138.13 76.641 138.995 76.5338 139.711 76.8116C140.373 77.0657 140.865 77.6315 141.095 78.4083C141.295 79.0777 141.265 79.8142 141.005 80.534C140.805 81.0962 140.562 81.6383 140.283 82.1638C141.349 81.9314 142.371 81.522 143.305 80.9523C143.49 80.8391 143.707 80.7906 143.922 80.8142C144.137 80.8377 144.338 80.932 144.495 81.0825C144.815 81.3906 144.892 81.883 144.675 82.2746C144.492 82.6094 144.319 83.0578 144.532 83.3019C144.692 83.4861 145.004 83.4825 145.228 83.3861C145.667 83.1917 145.986 82.7965 146.332 82.0234C146.411 81.848 146.53 81.6938 146.679 81.5734C146.829 81.4529 147.004 81.3696 147.191 81.3302C147.381 81.2908 147.578 81.297 147.766 81.3483C147.954 81.3995 148.127 81.4944 148.272 81.6253C149.117 82.3912 150.292 82.7965 151.403 82.713C152.688 82.6194 153.922 81.8794 154.621 80.7917C154.741 80.6045 154.93 80.4729 155.145 80.4258C155.361 80.3787 155.587 80.42 155.773 80.5405C156.158 80.7917 156.272 81.3071 156.022 81.6987C155.047 83.222 153.327 84.2528 151.53 84.3831C150.126 84.4811 148.733 84.0718 147.6 83.2284C147.25 83.8778 146.739 84.5472 145.903 84.9187C144.962 85.3376 143.91 85.1296 143.281 84.4032C142.97 84.0459 142.791 83.5904 142.775 83.1147C141.598 83.6272 140.344 83.9372 139.065 84.0318C137.655 85.8144 135.793 87.1791 133.678 87.9817C133.585 88.0173 133.487 88.0355 133.388 88.0356L133.382 88.0256ZM138.882 78.3313C138.686 78.3313 138.46 78.3982 138.26 78.522C137.827 78.7862 137.481 79.2548 137.115 79.7501C137.022 79.8775 136.929 80.0013 136.836 80.1223C136.663 80.3461 136.453 80.6945 136.423 81.0825C136.39 81.5209 136.536 81.7319 136.649 81.8492C136.936 82.1508 137.515 82.3416 138.206 82.3718C138.718 81.6258 139.133 80.8168 139.441 79.9646C139.574 79.5896 139.598 79.2052 139.501 78.887C139.378 78.4752 139.182 78.3982 139.115 78.3716C139.04 78.3439 138.962 78.3302 138.882 78.3313ZM160.597 27.4403H41.5462C41.087 27.4403 40.7148 27.0659 40.7148 26.6038C40.7148 26.1416 41.087 25.7666 41.5462 25.7666H160.597C161.056 25.7666 161.429 26.1409 161.429 26.6038C161.429 27.0652 161.056 27.4403 160.597 27.4403ZM77.8496 86.0438H41.5462C41.3261 86.044 41.1148 85.9559 40.9589 85.7989C40.803 85.6419 40.7152 85.4289 40.7148 85.2066C40.7148 84.7445 41.087 84.3701 41.5462 84.3701H77.8496C78.3088 84.3701 78.681 84.7445 78.681 85.2066C78.681 85.6688 78.3088 86.0438 77.8496 86.0438Z"
        fill="black" />
</svg>