<svg width="280" height="234" viewBox="0 0 280 234" fill="none" xmlns="http://www.w3.org/2000/svg">
    <path opacity="0.3"
        d="M222 179.909V68.0907C222 64.1746 218.772 61 214.789 61L155.211 61C151.228 61 148 64.1746 148 68.0907V179.909C148 183.825 151.228 187 155.211 187H214.789C218.772 187 222 183.825 222 179.909Z"
        fill="#142641" />
    <path
        d="M223.92 173.795V64.0267C223.92 60.1824 220.849 57.0659 217.062 57.0659L160.399 57.0659C156.611 57.0659 153.54 60.1824 153.54 64.0267V173.795C153.54 177.64 156.611 180.756 160.399 180.756H217.062C220.849 180.756 223.92 177.64 223.92 173.795Z"
        fill="white" />
    <path
        d="M217.065 55.9727C221.438 55.9727 225 59.5837 225 64.0264V173.799C225 178.238 221.442 181.853 217.065 181.853H216.869V181.849H160.402C156.029 181.848 152.467 178.237 152.467 173.795V64.0264C152.467 59.5876 156.025 55.9729 160.402 55.9727H217.065ZM217.065 181.652L217.066 181.651V181.648H217.065V181.652ZM217.85 181.611C217.597 181.637 217.34 181.651 217.08 181.651C217.34 181.651 217.597 181.637 217.85 181.611ZM217.913 181.604C218.019 181.592 218.126 181.579 218.231 181.562C218.126 181.579 218.019 181.592 217.913 181.604ZM218.356 181.54C218.437 181.526 218.519 181.513 218.599 181.496C218.519 181.513 218.437 181.526 218.356 181.54ZM218.736 181.465C218.817 181.447 218.898 181.429 218.978 181.408C218.898 181.429 218.817 181.447 218.736 181.465ZM219.154 181.359C219.208 181.344 219.262 181.329 219.315 181.312C219.262 181.329 219.208 181.344 219.154 181.359ZM219.539 181.238C219.585 181.222 219.631 181.207 219.677 181.19C219.631 181.207 219.585 181.222 219.539 181.238ZM219.902 181.104C219.941 181.088 219.98 181.073 220.019 181.057C219.98 181.073 219.941 181.088 219.902 181.104ZM220.234 180.96C220.278 180.94 220.321 180.92 220.365 180.899C220.321 180.92 220.278 180.94 220.234 180.96ZM220.512 180.826C220.579 180.792 220.646 180.758 220.712 180.722C220.646 180.758 220.579 180.792 220.512 180.826ZM220.841 180.649C220.899 180.617 220.956 180.584 221.012 180.55C220.956 180.584 220.899 180.617 220.841 180.649ZM221.191 180.438C221.237 180.408 221.283 180.378 221.329 180.348C221.283 180.378 221.237 180.408 221.191 180.438ZM221.47 180.25C221.525 180.211 221.579 180.172 221.633 180.132C221.579 180.172 221.525 180.211 221.47 180.25ZM221.774 180.024C221.823 179.986 221.872 179.947 221.92 179.907C221.872 179.947 221.823 179.986 221.774 180.024ZM217.547 179.845C217.388 179.858 217.227 179.866 217.065 179.866H217.066C217.228 179.866 217.388 179.858 217.547 179.845ZM160.402 58.1582C157.214 58.1585 154.621 60.7906 154.621 64.0264V173.799C154.621 177.035 157.214 179.667 160.402 179.667H217.065C220.253 179.667 222.847 177.035 222.847 173.799V64.0264C222.847 60.7904 220.253 58.1582 217.065 58.1582H160.402ZM159.919 179.845C160.079 179.858 160.239 179.866 160.402 179.866C160.239 179.866 160.079 179.858 159.919 179.845ZM222.069 179.781C222.108 179.748 222.147 179.714 222.185 179.68C222.147 179.714 222.108 179.748 222.069 179.781ZM222.341 179.536C222.388 179.492 222.434 179.448 222.479 179.402C222.434 179.448 222.388 179.492 222.341 179.536ZM222.584 179.294C222.63 179.247 222.675 179.2 222.719 179.152C222.675 179.2 222.63 179.247 222.584 179.294ZM222.868 178.987C222.896 178.955 222.923 178.922 222.951 178.89C222.923 178.922 222.896 178.955 222.868 178.987ZM223.085 178.725C223.129 178.67 223.171 178.615 223.213 178.56C223.171 178.615 223.129 178.67 223.085 178.725ZM223.297 178.446C223.343 178.384 223.387 178.32 223.43 178.256C223.387 178.32 223.343 178.384 223.297 178.446ZM223.508 178.14C223.545 178.083 223.582 178.026 223.618 177.969C223.582 178.026 223.545 178.083 223.508 178.14ZM223.713 177.811C223.748 177.752 223.781 177.693 223.814 177.634C223.781 177.693 223.748 177.752 223.713 177.811ZM223.897 177.48C223.927 177.423 223.956 177.366 223.985 177.308C223.956 177.366 223.927 177.423 223.897 177.48ZM224.06 177.151C224.084 177.1 224.107 177.049 224.129 176.997C224.107 177.049 224.084 177.1 224.06 177.151ZM224.213 176.803C224.232 176.758 224.249 176.712 224.266 176.667C224.249 176.712 224.232 176.758 224.213 176.803ZM224.348 176.45C224.367 176.396 224.384 176.341 224.402 176.286C224.384 176.341 224.367 176.396 224.348 176.45ZM224.461 176.104C224.489 176.014 224.514 175.923 224.539 175.831C224.514 175.923 224.489 176.014 224.461 176.104ZM224.564 175.734C224.58 175.671 224.594 175.606 224.609 175.542C224.594 175.606 224.58 175.671 224.564 175.734ZM154.681 175.561C154.543 175.098 154.457 174.612 154.432 174.11C154.457 174.612 154.543 175.098 154.681 175.561ZM224.764 63.2246C224.791 63.4882 224.803 63.7558 224.803 64.0264V173.799C224.803 173.933 224.8 174.066 224.793 174.198L224.804 173.799V64.0264C224.804 63.7557 224.791 63.4882 224.764 63.2246ZM154.49 63.123C154.446 63.4178 154.424 63.7195 154.424 64.0264L154.432 63.7246C154.442 63.5214 154.461 63.3206 154.49 63.123ZM224.333 61.3281H224.333H224.333ZM218.558 58.1504C218.749 58.2003 218.936 58.26 219.119 58.3281C219.485 58.4645 219.835 58.6358 220.164 58.8389C220.328 58.9402 220.487 59.0495 220.64 59.166C220.026 58.6997 219.322 58.3502 218.558 58.1504ZM222.265 58.2148C222.449 58.384 222.624 58.562 222.791 58.748C222.624 58.562 222.449 58.384 222.265 58.2148ZM159.683 58.0039C159.474 58.0294 159.269 58.0654 159.067 58.1123C159.269 58.0654 159.474 58.0294 159.683 58.0039ZM217.065 57.959C217.374 57.959 217.678 57.9832 217.974 58.0293C217.678 57.9833 217.375 57.959 217.066 57.959H217.065ZM217.953 179.799C218.044 179.785 218.134 179.769 218.224 179.751C218.134 179.769 218.044 179.785 217.953 179.799ZM154.528 62.9014C154.514 62.9749 154.501 63.0486 154.49 63.123C154.501 63.0486 154.514 62.9749 154.528 62.9014ZM158.667 58.2188C158.736 58.1976 158.806 58.1779 158.875 58.1592C158.806 58.1779 158.736 58.1975 158.667 58.2188Z"
        fill="#142641" />
    <path
        d="M214.493 172.538H162.718C162.232 172.538 161.838 172.138 161.838 171.645C161.838 171.152 162.232 170.752 162.718 170.752H214.493C214.979 170.752 215.373 171.152 215.373 171.645C215.373 172.138 214.979 172.538 214.493 172.538Z"
        fill="#142641" />
    <path
        d="M201.449 156.723C196.921 156.723 193.237 152.984 193.237 148.387C193.237 147.895 193.631 147.495 194.116 147.495C194.602 147.495 194.996 147.895 194.996 148.387C194.996 151.998 197.892 154.938 201.449 154.938C205.007 154.938 207.903 151.998 207.903 148.387C207.903 147.895 208.297 147.495 208.783 147.495C209.268 147.495 209.662 147.895 209.662 148.387C209.662 152.984 205.978 156.723 201.449 156.723Z"
        fill="#142641" />
    <path
        d="M215.993 145.503C215.507 145.503 215.113 145.103 215.113 144.61C215.113 140.999 212.217 138.06 208.659 138.06C205.098 138.06 202.206 140.999 202.206 144.61C202.206 145.103 201.812 145.503 201.326 145.503C200.841 145.503 200.447 145.103 200.447 144.61C200.447 140.013 204.131 136.274 208.659 136.274C213.188 136.274 216.872 140.013 216.872 144.61C216.872 145.103 216.478 145.503 215.993 145.503Z"
        fill="#142641" />
    <path
        d="M194.833 72.5701C195.807 72.5701 196.598 71.7681 196.598 70.7787C196.598 69.7893 195.807 68.9873 194.833 68.9873C193.858 68.9873 193.068 69.7893 193.068 70.7787C193.068 71.7681 193.858 72.5701 194.833 72.5701Z"
        fill="#10B981" />
    <path
        d="M201.191 72.5701C202.165 72.5701 202.956 71.7681 202.956 70.7787C202.956 69.7893 202.165 68.9873 201.191 68.9873C200.216 68.9873 199.426 69.7893 199.426 70.7787C199.426 71.7681 200.216 72.5701 201.191 72.5701Z"
        fill="#10B981" />
    <path
        d="M207.544 72.5701C208.519 72.5701 209.309 71.7681 209.309 70.7787C209.309 69.7893 208.519 68.9873 207.544 68.9873C206.569 68.9873 205.779 69.7893 205.779 70.7787C205.779 71.7681 206.569 72.5701 207.544 72.5701Z"
        fill="#10B981" />
    <path
        d="M213.897 72.5701C214.872 72.5701 215.662 71.7681 215.662 70.7787C215.662 69.7893 214.872 68.9873 213.897 68.9873C212.923 68.9873 212.132 69.7893 212.132 70.7787C212.132 71.7681 212.923 72.5701 213.897 72.5701Z"
        fill="#10B981" />
    <path
        d="M194.911 83.2972C195.886 83.2972 196.676 82.4951 196.676 81.5058C196.676 80.5164 195.886 79.7144 194.911 79.7144C193.936 79.7144 193.146 80.5164 193.146 81.5058C193.146 82.4951 193.936 83.2972 194.911 83.2972Z"
        fill="#10B981" />
    <path
        d="M201.265 83.2972C202.24 83.2972 203.03 82.4951 203.03 81.5058C203.03 80.5164 202.24 79.7144 201.265 79.7144C200.29 79.7144 199.5 80.5164 199.5 81.5058C199.5 82.4951 200.29 83.2972 201.265 83.2972Z"
        fill="#10B981" />
    <path
        d="M207.619 83.2972C208.593 83.2972 209.384 82.4951 209.384 81.5058C209.384 80.5164 208.593 79.7144 207.619 79.7144C206.644 79.7144 205.854 80.5164 205.854 81.5058C205.854 82.4951 206.644 83.2972 207.619 83.2972Z"
        fill="#10B981" />
    <path
        d="M213.976 83.2972C214.951 83.2972 215.741 82.4951 215.741 81.5058C215.741 80.5164 214.951 79.7144 213.976 79.7144C213.002 79.7144 212.211 80.5164 212.211 81.5058C212.211 82.4951 213.002 83.2972 213.976 83.2972Z"
        fill="#10B981" />
    <path
        d="M194.869 93.949C195.844 93.949 196.634 93.147 196.634 92.1576C196.634 91.1682 195.844 90.3662 194.869 90.3662C193.894 90.3662 193.104 91.1682 193.104 92.1576C193.104 93.147 193.894 93.949 194.869 93.949Z"
        fill="#10B981" />
    <path
        d="M201.227 93.949C202.202 93.949 202.992 93.147 202.992 92.1576C202.992 91.1682 202.202 90.3662 201.227 90.3662C200.252 90.3662 199.462 91.1682 199.462 92.1576C199.462 93.147 200.252 93.949 201.227 93.949Z"
        fill="#10B981" />
    <path
        d="M207.581 93.949C208.555 93.949 209.346 93.147 209.346 92.1576C209.346 91.1682 208.555 90.3662 207.581 90.3662C206.606 90.3662 205.816 91.1682 205.816 92.1576C205.816 93.147 206.606 93.949 207.581 93.949Z"
        fill="#10B981" />
    <path
        d="M213.936 93.949C214.91 93.949 215.701 93.147 215.701 92.1576C215.701 91.1682 214.91 90.3662 213.936 90.3662C212.961 90.3662 212.171 91.1682 212.171 92.1576C212.171 93.147 212.961 93.949 213.936 93.949Z"
        fill="#10B981" />
    <path
        d="M194.829 100.373H194.799L192.997 101.616V100.284L194.824 98.9985H196.299V106.168H194.829V100.373Z"
        fill="#10B981" />
    <path
        d="M197.88 105.14L200.376 102.771C200.679 102.485 200.912 102.245 201.065 102.051C201.219 101.857 201.327 101.688 201.385 101.536C201.443 101.385 201.472 101.229 201.472 101.06V101.052C201.472 100.854 201.427 100.677 201.335 100.529C201.244 100.377 201.119 100.259 200.957 100.175C200.8 100.091 200.613 100.044 200.405 100.044C200.164 100.044 199.952 100.095 199.77 100.192C199.587 100.289 199.442 100.424 199.338 100.596C199.234 100.765 199.176 100.959 199.172 101.174V101.22H197.797V101.182C197.797 100.731 197.909 100.335 198.134 99.9853C198.358 99.6396 198.669 99.3699 199.064 99.1718C199.458 98.9779 199.903 98.8767 200.397 98.8767C200.891 98.8767 201.335 98.9652 201.713 99.1465C202.091 99.3235 202.386 99.5722 202.598 99.8841C202.81 100.196 202.918 100.559 202.918 100.963V100.972C202.918 101.262 202.868 101.532 202.764 101.781C202.66 102.03 202.494 102.287 202.257 102.565C202.021 102.839 201.701 103.168 201.294 103.547L199.246 105.44L199.815 104.432V105.44L199.251 104.976H203.017V106.169H197.88V105.14Z"
        fill="#10B981" />
    <path
        d="M205.153 106.025C204.754 105.848 204.438 105.604 204.206 105.288C203.973 104.972 203.84 104.609 203.803 104.2V104.137H205.215L205.223 104.192C205.244 104.365 205.315 104.516 205.427 104.651C205.539 104.786 205.693 104.891 205.884 104.967C206.075 105.047 206.299 105.085 206.552 105.085C206.806 105.085 207.026 105.043 207.213 104.959C207.399 104.875 207.545 104.757 207.644 104.605C207.748 104.453 207.798 104.28 207.798 104.086V104.078C207.798 103.737 207.678 103.475 207.441 103.294C207.204 103.113 206.868 103.02 206.44 103.02H205.63V101.945H206.419C206.668 101.945 206.88 101.903 207.063 101.823C207.246 101.739 207.387 101.625 207.487 101.481C207.586 101.334 207.64 101.165 207.64 100.976V100.967C207.64 100.773 207.599 100.605 207.512 100.466C207.424 100.327 207.3 100.221 207.134 100.15C206.967 100.078 206.772 100.04 206.54 100.04C206.307 100.04 206.108 100.078 205.933 100.154C205.759 100.23 205.618 100.335 205.514 100.47C205.41 100.609 205.344 100.769 205.323 100.955V101.005H203.957V100.942C203.998 100.529 204.127 100.166 204.347 99.8587C204.567 99.551 204.866 99.3107 205.24 99.1421C205.614 98.9735 206.05 98.885 206.544 98.885C207.038 98.885 207.495 98.9651 207.869 99.1211C208.242 99.277 208.533 99.4962 208.737 99.7786C208.944 100.061 209.044 100.39 209.044 100.769V100.778C209.044 101.077 208.978 101.338 208.849 101.566C208.72 101.793 208.541 101.979 208.317 102.126C208.093 102.274 207.844 102.375 207.57 102.43V102.459C208.097 102.51 208.517 102.683 208.832 102.978C209.148 103.273 209.306 103.665 209.306 104.15V104.158C209.306 104.584 209.189 104.959 208.961 105.283C208.732 105.608 208.413 105.857 208.002 106.038C207.59 106.215 207.109 106.308 206.556 106.308C206.004 106.308 205.551 106.219 205.153 106.042V106.025Z"
        fill="#10B981" />
    <path
        d="M213.608 104.857H210.095V103.601C210.282 103.298 210.468 102.99 210.66 102.682C210.851 102.375 211.037 102.067 211.228 101.759C211.42 101.451 211.606 101.148 211.797 100.84C211.988 100.533 212.175 100.225 212.366 99.9172C212.557 99.6095 212.744 99.3018 212.931 98.9983H215.024V103.656H215.954V104.857H215.024V106.168H213.612V104.857H213.608ZM213.637 103.694V100.086H213.604C213.459 100.326 213.309 100.562 213.164 100.798C213.018 101.034 212.869 101.274 212.719 101.51C212.57 101.747 212.425 101.987 212.275 102.227C212.126 102.467 211.98 102.703 211.831 102.939C211.681 103.175 211.536 103.416 211.386 103.652V103.69H213.637V103.694Z"
        fill="#10B981" />
    <path opacity="0.3"
        d="M173.909 85H62.0908C58.1746 85 55 88.2284 55 92.2109V151.789C55 155.772 58.1746 159 62.0908 159H173.909C177.825 159 181 155.772 181 151.789V92.2109C181 88.2284 177.825 85 173.909 85Z"
        fill="#142641" />
    <path
        d="M175.808 81.5444H67.6577C63.8701 81.5444 60.7996 84.6609 60.7996 88.5052V146.016C60.7996 149.861 63.8701 152.977 67.6577 152.977H175.808C179.596 152.977 182.666 149.861 182.666 146.016V88.5052C182.666 84.6609 179.596 81.5444 175.808 81.5444Z"
        fill="white" />
    <path
        d="M176.21 80.7236C180.616 80.7236 184.204 84.308 184.204 88.7178V145.803C184.204 150.209 180.62 153.797 176.21 153.797H67.2542C62.848 153.797 59.26 150.213 59.26 145.803V88.7178C59.2601 84.3117 62.8444 80.7237 67.2542 80.7236H176.21ZM176.996 153.559C176.738 153.585 176.475 153.599 176.21 153.599H67.2542C66.9895 153.599 66.7279 153.584 66.47 153.559C66.5971 153.571 66.725 153.582 66.8538 153.589L67.2542 153.6H176.21L176.612 153.589C176.741 153.582 176.869 153.571 176.996 153.559ZM177.132 153.542C177.219 153.532 177.306 153.522 177.392 153.509C177.306 153.522 177.219 153.532 177.132 153.542ZM66.0764 153.51C66.1505 153.521 66.2253 153.529 66.3 153.538C66.2253 153.529 66.1505 153.521 66.0764 153.51ZM177.491 153.491C177.58 153.476 177.668 153.462 177.756 153.444C177.668 153.462 177.58 153.476 177.491 153.491ZM65.7083 153.444C65.7803 153.459 65.8532 153.47 65.926 153.482C65.8532 153.47 65.7803 153.459 65.7083 153.444ZM65.3352 153.359C65.3924 153.374 65.4503 153.386 65.5081 153.399C65.4503 153.386 65.3924 153.374 65.3352 153.359ZM177.958 153.398C178.017 153.385 178.075 153.372 178.133 153.357C178.075 153.372 178.017 153.385 177.958 153.398ZM64.97 153.257C65.0278 153.275 65.0864 153.29 65.1448 153.307C65.0864 153.29 65.0278 153.275 64.97 153.257ZM178.351 153.297C178.395 153.284 178.439 153.273 178.483 153.26C178.439 153.273 178.395 153.284 178.351 153.297ZM64.6096 153.136C64.6697 153.157 64.7305 153.177 64.7913 153.197C64.7305 153.177 64.6697 153.157 64.6096 153.136ZM178.692 153.191C178.746 153.173 178.801 153.155 178.855 153.136C178.801 153.155 178.746 153.173 178.692 153.191ZM64.259 152.999C64.3252 153.027 64.3922 153.052 64.4592 153.078C64.3922 153.052 64.3252 153.027 64.259 152.999ZM179.047 153.062C179.096 153.042 179.144 153.024 179.193 153.004C179.144 153.024 179.096 153.042 179.047 153.062ZM63.9163 152.847C63.9794 152.877 64.0436 152.904 64.1077 152.933C64.0436 152.904 63.9794 152.877 63.9163 152.847ZM179.388 152.919C179.438 152.896 179.489 152.875 179.538 152.852C179.489 152.875 179.438 152.896 179.388 152.919ZM63.595 152.684C63.6499 152.713 63.7053 152.741 63.761 152.77C63.7053 152.741 63.6499 152.713 63.595 152.684ZM179.732 152.754C179.777 152.731 179.823 152.708 179.867 152.685C179.823 152.708 179.777 152.731 179.732 152.754ZM63.2561 152.492C63.3133 152.527 63.3718 152.559 63.4299 152.592C63.3718 152.559 63.3133 152.527 63.2561 152.492ZM180.035 152.591C180.092 152.559 180.149 152.527 180.204 152.493C180.149 152.527 180.092 152.559 180.035 152.591ZM62.9514 152.3C63.0121 152.34 63.0741 152.378 63.136 152.417C63.0741 152.378 63.0121 152.34 62.9514 152.3ZM180.363 152.396C180.407 152.367 180.452 152.339 180.496 152.31C180.452 152.339 180.407 152.367 180.363 152.396ZM62.6516 152.09C62.7 152.125 62.7489 152.16 62.7981 152.194C62.7489 152.16 62.7 152.125 62.6516 152.09ZM180.678 152.186C180.722 152.155 180.766 152.124 180.81 152.092C180.766 152.124 180.722 152.155 180.678 152.186ZM62.3577 151.863C62.4092 151.905 62.4613 151.946 62.5139 151.986C62.4613 151.946 62.4092 151.905 62.3577 151.863ZM180.973 151.969C181.018 151.934 181.063 151.897 181.108 151.861C181.063 151.897 181.018 151.934 180.973 151.969ZM67.2542 82.8926C64.0422 82.8926 61.429 85.5058 61.429 88.7178V145.803C61.429 149.015 64.0421 151.628 67.2542 151.628H176.21C179.422 151.628 182.035 149.015 182.035 145.803V88.7178C182.035 85.5058 179.422 82.8926 176.21 82.8926H67.2542ZM181.236 151.755C181.292 151.707 181.348 151.659 181.403 151.61C181.348 151.659 181.292 151.707 181.236 151.755ZM62.0901 151.637C62.1213 151.664 62.1531 151.692 62.1848 151.719C62.1531 151.692 62.1214 151.664 62.0901 151.637ZM181.504 151.518C181.558 151.467 181.613 151.417 181.665 151.365C181.613 151.417 181.558 151.467 181.504 151.518ZM61.7864 151.353C61.8377 151.403 61.8899 151.453 61.9426 151.502C61.8899 151.453 61.8377 151.403 61.7864 151.353ZM61.5588 151.119C61.6006 151.164 61.6429 151.208 61.6858 151.252C61.6429 151.208 61.6007 151.164 61.5588 151.119ZM181.798 151.231C181.841 151.188 181.883 151.143 181.924 151.099C181.883 151.143 181.841 151.188 181.798 151.231ZM182.022 150.99C182.072 150.934 182.121 150.878 182.169 150.821C182.121 150.878 182.072 150.934 182.022 150.99ZM61.3225 150.854C61.351 150.887 61.3794 150.92 61.4084 150.953C61.3794 150.92 61.351 150.887 61.3225 150.854ZM182.272 150.698C182.317 150.643 182.36 150.585 182.404 150.528C182.36 150.585 182.317 150.643 182.272 150.698ZM61.0852 150.562C61.1161 150.602 61.1473 150.641 61.179 150.681C61.1473 150.641 61.1161 150.602 61.0852 150.562ZM182.489 150.416C182.532 150.357 182.574 150.297 182.615 150.237C182.574 150.297 182.532 150.357 182.489 150.416ZM60.8606 150.255C60.8931 150.301 60.9257 150.348 60.9592 150.394C60.9257 150.348 60.8931 150.301 60.8606 150.255ZM60.6536 149.944C60.6871 149.998 60.7214 150.05 60.7561 150.103C60.7214 150.05 60.6871 149.998 60.6536 149.944ZM182.712 150.097C182.746 150.046 182.778 149.995 182.81 149.943C182.778 149.995 182.746 150.046 182.712 150.097ZM182.907 149.785C182.942 149.727 182.977 149.669 183.01 149.609C182.977 149.669 182.942 149.727 182.907 149.785ZM60.4563 149.611C60.4877 149.667 60.5183 149.723 60.551 149.778C60.5183 149.723 60.4877 149.667 60.4563 149.611ZM183.091 149.461C183.119 149.409 183.145 149.356 183.172 149.303C183.145 149.356 183.119 149.409 183.091 149.461ZM60.2834 149.286C60.3127 149.344 60.3417 149.403 60.3723 149.46C60.3417 149.403 60.3127 149.344 60.2834 149.286ZM60.1331 148.971C60.157 149.024 60.1812 149.078 60.2063 149.131C60.1812 149.078 60.157 149.024 60.1331 148.971ZM183.262 149.12C183.283 149.075 183.304 149.029 183.324 148.983C183.304 149.029 183.283 149.075 183.262 149.12ZM183.414 148.778C183.434 148.731 183.452 148.682 183.471 148.634C183.452 148.682 183.434 148.731 183.414 148.778ZM59.9709 148.577C59.9962 148.643 60.0211 148.709 60.0481 148.774C60.0211 148.709 59.9962 148.643 59.9709 148.577ZM59.8635 148.279C59.8811 148.332 59.8986 148.384 59.9172 148.436C59.8986 148.384 59.8811 148.332 59.8635 148.279ZM183.547 148.435C183.565 148.386 183.581 148.336 183.598 148.287C183.581 148.336 183.565 148.386 183.547 148.435ZM59.7395 147.872C59.7576 147.938 59.7754 148.003 59.7952 148.068C59.7754 148.003 59.7576 147.938 59.7395 147.872ZM183.675 148.051C183.693 147.992 183.708 147.932 183.725 147.872C183.708 147.932 183.693 147.992 183.675 148.051ZM59.6506 147.518C59.6656 147.584 59.679 147.65 59.6956 147.716C59.679 147.65 59.6656 147.584 59.6506 147.518ZM183.774 147.691C183.787 147.639 183.798 147.586 183.81 147.533C183.798 147.586 183.787 147.639 183.774 147.691ZM59.5813 147.174C59.5918 147.233 59.6007 147.292 59.6125 147.351C59.6007 147.292 59.5918 147.233 59.5813 147.174ZM183.851 147.35C183.863 147.291 183.872 147.232 183.882 147.173C183.872 147.232 183.863 147.291 183.851 147.35ZM61.3469 146.981C61.3604 147.049 61.3761 147.117 61.3918 147.184C61.3761 147.117 61.3604 147.049 61.3469 146.981ZM59.4583 145.817C59.4587 146.08 59.4724 146.339 59.4983 146.595C59.4724 146.339 59.4587 146.08 59.4583 145.817ZM61.2942 87.8457C61.2527 88.1305 61.2307 88.4217 61.2307 88.7178V145.804C61.2307 146.065 61.2501 146.322 61.2825 146.574C61.263 146.422 61.2474 146.269 61.2395 146.113C61.2343 146.011 61.2317 145.907 61.2317 145.803V88.7178C61.2317 88.4217 61.2527 88.1305 61.2942 87.8457ZM61.4124 87.25C61.3889 87.3432 61.3679 87.4373 61.3489 87.5322C61.3679 87.4373 61.3889 87.3432 61.4124 87.25ZM179.331 83.5684C179 83.367 178.648 83.1968 178.28 83.0615C178.648 83.1968 179 83.367 179.331 83.5684ZM66.345 82.7637C66.1661 82.7909 65.99 82.8265 65.8167 82.8691C65.99 82.8265 66.1661 82.7909 66.345 82.7637ZM67.2542 82.6943C66.9783 82.6943 66.7068 82.7149 66.4407 82.751C66.6067 82.7285 66.7746 82.7118 66.9446 82.7031L67.2542 82.6953H176.21C176.418 82.6953 176.623 82.706 176.825 82.7266V82.7256C176.623 82.705 176.418 82.6943 176.21 82.6943H67.2542ZM61.4153 147.285C61.426 147.327 61.4388 147.369 61.4504 147.411C61.4388 147.369 61.426 147.327 61.4153 147.285ZM61.3 146.712C61.3138 146.802 61.3292 146.892 61.3469 146.981C61.3292 146.892 61.3138 146.802 61.3 146.712ZM61.3372 87.5928C61.3227 87.6691 61.3097 87.7459 61.2981 87.8232C61.3097 87.7459 61.3227 87.6691 61.3372 87.5928ZM61.468 87.0469C61.4486 87.1142 61.4295 87.1817 61.4124 87.25C61.4295 87.1818 61.4486 87.1142 61.468 87.0469Z"
        fill="#142641" />
    <path
        d="M159.112 145.239C154.55 145.239 150.838 141.527 150.838 136.965C150.838 132.403 154.55 128.691 159.112 128.691C159.601 128.691 159.998 129.088 159.998 129.577C159.998 130.066 159.601 130.463 159.112 130.463C155.525 130.463 152.611 133.381 152.611 136.965C152.611 140.549 155.528 143.467 159.112 143.467C159.601 143.467 159.998 143.864 159.998 144.353C159.998 144.842 159.601 145.239 159.112 145.239Z"
        fill="#142641" />
    <path
        d="M166.937 145.239C162.374 145.239 158.663 141.528 158.663 136.965C158.663 132.403 162.374 128.691 166.937 128.691C171.499 128.691 175.211 132.403 175.211 136.965C175.211 141.528 171.499 145.239 166.937 145.239ZM166.937 130.46C163.349 130.46 160.435 133.378 160.435 136.962C160.435 140.546 163.353 143.463 166.937 143.463C170.521 143.463 173.439 140.546 173.439 136.962C173.439 133.378 170.521 130.46 166.937 130.46Z"
        fill="#142641" />
    <path
        d="M136.8 137.731H72.2554C71.7662 137.731 71.3691 137.334 71.3691 136.845C71.3691 136.355 71.7662 135.958 72.2554 135.958H136.8C137.289 135.958 137.686 136.355 137.686 136.845C137.686 137.334 137.289 137.731 136.8 137.731Z"
        fill="#142641" />
    <path
        d="M73.5993 113.12C74.5255 113.12 75.2763 112.358 75.2763 111.418C75.2763 110.478 74.5255 109.716 73.5993 109.716C72.6732 109.716 71.9224 110.478 71.9224 111.418C71.9224 112.358 72.6732 113.12 73.5993 113.12Z"
        fill="#10B981" />
    <path
        d="M79.6362 113.119C80.5623 113.119 81.3131 112.357 81.3131 111.417C81.3131 110.477 80.5623 109.715 79.6362 109.715C78.71 109.715 77.9592 110.477 77.9592 111.417C77.9592 112.357 78.71 113.119 79.6362 113.119Z"
        fill="#10B981" />
    <path
        d="M85.6774 113.119C86.6036 113.119 87.3544 112.357 87.3544 111.417C87.3544 110.477 86.6036 109.715 85.6774 109.715C84.7513 109.715 84.0005 110.477 84.0005 111.417C84.0005 112.357 84.7513 113.119 85.6774 113.119Z"
        fill="#10B981" />
    <path
        d="M91.7141 113.119C92.6402 113.119 93.391 112.357 93.391 111.417C93.391 110.477 92.6402 109.715 91.7141 109.715C90.7879 109.715 90.0371 110.477 90.0371 111.417C90.0371 112.357 90.7879 113.119 91.7141 113.119Z"
        fill="#10B981" />
    <path
        d="M100.769 113.12C101.695 113.12 102.446 112.358 102.446 111.418C102.446 110.478 101.695 109.716 100.769 109.716C99.8431 109.716 99.0923 110.478 99.0923 111.418C99.0923 112.358 99.8431 113.12 100.769 113.12Z"
        fill="#10B981" />
    <path
        d="M106.81 113.119C107.736 113.119 108.487 112.357 108.487 111.417C108.487 110.477 107.736 109.715 106.81 109.715C105.884 109.715 105.133 110.477 105.133 111.417C105.133 112.357 105.884 113.119 106.81 113.119Z"
        fill="#10B981" />
    <path
        d="M112.847 113.119C113.773 113.119 114.524 112.357 114.524 111.417C114.524 110.477 113.773 109.715 112.847 109.715C111.921 109.715 111.17 110.477 111.17 111.417C111.17 112.357 111.921 113.119 112.847 113.119Z"
        fill="#10B981" />
    <path
        d="M118.885 113.119C119.811 113.119 120.562 112.357 120.562 111.417C120.562 110.477 119.811 109.715 118.885 109.715C117.959 109.715 117.208 110.477 117.208 111.417C117.208 112.357 117.959 113.119 118.885 113.119Z"
        fill="#10B981" />
    <path
        d="M127.944 113.12C128.87 113.12 129.621 112.358 129.621 111.418C129.621 110.478 128.87 109.716 127.944 109.716C127.018 109.716 126.267 110.478 126.267 111.418C126.267 112.358 127.018 113.12 127.944 113.12Z"
        fill="#10B981" />
    <path
        d="M133.982 113.119C134.908 113.119 135.659 112.357 135.659 111.417C135.659 110.477 134.908 109.715 133.982 109.715C133.056 109.715 132.305 110.477 132.305 111.417C132.305 112.357 133.056 113.119 133.982 113.119Z"
        fill="#10B981" />
    <path
        d="M140.018 113.119C140.945 113.119 141.695 112.357 141.695 111.417C141.695 110.477 140.945 109.715 140.018 109.715C139.092 109.715 138.342 110.477 138.342 111.417C138.342 112.357 139.092 113.119 140.018 113.119Z"
        fill="#10B981" />
    <path
        d="M146.059 113.119C146.985 113.119 147.736 112.357 147.736 111.417C147.736 110.477 146.985 109.715 146.059 109.715C145.133 109.715 144.382 110.477 144.382 111.417C144.382 112.357 145.133 113.119 146.059 113.119Z"
        fill="#10B981" />
    <path
        d="M154.74 108.999H154.712L153 110.18V108.915L154.736 107.693H156.136V114.505H154.74V108.999Z"
        fill="#10B981" />
    <path
        d="M157.64 113.528L160.011 111.278C160.299 111.005 160.52 110.777 160.666 110.593C160.812 110.409 160.915 110.248 160.97 110.104C161.025 109.96 161.053 109.812 161.053 109.652V109.644C161.053 109.455 161.01 109.287 160.923 109.147C160.836 109.003 160.718 108.891 160.564 108.811C160.414 108.731 160.236 108.686 160.039 108.686C159.81 108.686 159.609 108.735 159.435 108.827C159.262 108.919 159.124 109.047 159.025 109.211C158.926 109.371 158.871 109.556 158.867 109.76V109.804H157.561V109.768C157.561 109.339 157.668 108.963 157.881 108.63C158.094 108.302 158.39 108.046 158.764 107.857C159.139 107.673 159.562 107.577 160.031 107.577C160.501 107.577 160.923 107.661 161.282 107.833C161.641 108.002 161.921 108.238 162.122 108.534C162.324 108.831 162.426 109.175 162.426 109.56V109.568C162.426 109.844 162.379 110.1 162.28 110.336C162.182 110.573 162.024 110.817 161.799 111.081C161.574 111.342 161.27 111.654 160.883 112.014L158.938 113.813L159.479 112.855V113.813L158.942 113.372H162.521V114.505H157.64V113.528Z"
        fill="#10B981" />
    <path
        d="M164.548 114.373C164.17 114.205 163.87 113.973 163.649 113.673C163.428 113.372 163.302 113.028 163.266 112.639V112.579H164.608L164.616 112.631C164.635 112.796 164.702 112.94 164.809 113.068C164.915 113.196 165.061 113.296 165.243 113.368C165.424 113.444 165.638 113.48 165.878 113.48C166.119 113.48 166.328 113.44 166.506 113.36C166.683 113.28 166.821 113.168 166.916 113.024C167.015 112.88 167.062 112.716 167.062 112.531V112.523C167.062 112.199 166.948 111.951 166.723 111.778C166.498 111.606 166.178 111.518 165.772 111.518H165.002V110.497H165.752C165.989 110.497 166.19 110.457 166.364 110.381C166.537 110.301 166.671 110.192 166.766 110.056C166.861 109.916 166.912 109.756 166.912 109.576V109.568C166.912 109.384 166.873 109.223 166.79 109.091C166.707 108.959 166.588 108.859 166.431 108.791C166.273 108.723 166.087 108.687 165.866 108.687C165.645 108.687 165.456 108.723 165.29 108.795C165.125 108.867 164.99 108.967 164.892 109.095C164.793 109.227 164.73 109.38 164.71 109.556V109.604H163.412V109.544C163.452 109.151 163.574 108.807 163.783 108.514C163.992 108.222 164.276 107.994 164.631 107.834C164.986 107.673 165.401 107.589 165.87 107.589C166.34 107.589 166.774 107.665 167.129 107.814C167.484 107.962 167.76 108.17 167.954 108.438C168.151 108.707 168.246 109.019 168.246 109.38V109.388C168.246 109.672 168.183 109.92 168.06 110.136C167.938 110.353 167.768 110.529 167.555 110.669C167.342 110.809 167.105 110.905 166.845 110.957V110.985C167.346 111.033 167.745 111.198 168.044 111.478C168.344 111.758 168.494 112.131 168.494 112.591V112.599C168.494 113.004 168.384 113.36 168.167 113.669C167.95 113.977 167.646 114.213 167.255 114.386C166.865 114.554 166.407 114.642 165.882 114.642C165.357 114.642 164.927 114.558 164.548 114.39V114.373Z"
        fill="#10B981" />
    <path
        d="M172.582 113.26H169.244V112.066C169.422 111.778 169.599 111.485 169.781 111.193C169.962 110.901 170.14 110.608 170.321 110.316C170.503 110.024 170.68 109.735 170.862 109.443C171.043 109.151 171.221 108.858 171.402 108.566C171.584 108.274 171.762 107.981 171.939 107.693H173.928V112.118H174.812V113.26H173.928V114.505H172.586V113.26H172.582ZM172.61 112.154V108.726H172.578C172.44 108.954 172.298 109.179 172.16 109.403C172.022 109.627 171.88 109.855 171.738 110.08C171.596 110.304 171.458 110.532 171.316 110.761C171.174 110.989 171.036 111.213 170.893 111.437C170.751 111.662 170.613 111.89 170.471 112.114V112.15H172.61V112.154Z"
        fill="#10B981" />
    <path
        d="M152.397 211.902C152.397 219.358 146.353 225.402 138.897 225.402C131.442 225.402 125.397 219.358 125.397 211.902C125.397 204.447 131.442 198.402 138.897 198.402C146.353 198.402 152.397 204.447 152.397 211.902Z"
        fill="#10B990" />
    <path
        d="M145.048 207.736C144.938 207.63 144.808 207.546 144.664 207.489C144.52 207.432 144.366 207.402 144.21 207.402C144.054 207.402 143.9 207.432 143.756 207.489C143.612 207.546 143.481 207.63 143.371 207.736L137.137 213.697L134.422 211.102C134.312 210.996 134.181 210.912 134.037 210.855C133.893 210.798 133.739 210.768 133.583 210.768C133.428 210.768 133.273 210.798 133.129 210.855C132.986 210.912 132.855 210.996 132.745 211.102C132.635 211.207 132.547 211.332 132.487 211.469C132.428 211.607 132.397 211.754 132.397 211.903C132.397 212.052 132.428 212.2 132.487 212.338C132.547 212.475 132.635 212.6 132.745 212.705L136.26 216.071C136.492 216.293 136.796 216.402 137.099 216.402H137.174C137.478 216.402 137.781 216.293 138.013 216.071L145.048 209.344C145.159 209.239 145.246 209.114 145.306 208.977C145.366 208.839 145.397 208.691 145.397 208.542C145.397 208.393 145.366 208.246 145.306 208.108C145.246 207.97 145.159 207.845 145.048 207.741V207.736Z"
        fill="white" />
    <path
        d="M261.805 157.554V31.3961C261.805 24.1052 255.895 18.1949 248.604 18.1947H31.3961C24.1052 18.1949 18.1949 24.1052 18.1947 31.3961V157.554C18.1947 158.16 17.7034 158.652 17.0973 158.652C16.4913 158.652 16 158.16 16 157.554V31.3961C16.0002 22.8931 22.8931 16.0002 31.3961 16H248.604C257.107 16.0002 264 22.8931 264 31.3961V157.554C264 158.16 263.509 158.652 262.903 158.652C262.297 158.652 261.805 158.16 261.805 157.554Z"
        fill="#142641" />
    <path
        d="M247.54 157.555V45.6286C247.54 43.8672 246.157 42.429 244.417 42.3408L244.248 42.3365H35.7524C33.9343 42.3365 32.4604 43.8104 32.4604 45.6286L32.4603 157.555C32.4603 158.161 31.969 158.652 31.363 158.652C30.7569 158.652 30.2656 158.161 30.2656 157.555L30.2657 45.6286C30.2657 42.5983 32.7222 40.1418 35.7524 40.1418H244.248L244.53 40.1493C247.429 40.2961 249.735 42.6929 249.735 45.6286V157.555C249.735 158.161 249.243 158.652 248.637 158.652C248.031 158.652 247.54 158.161 247.54 157.555Z"
        fill="#142641" />
    <circle cx="142.744" cy="29.7137" r="4.93805" fill="#142641" />
</svg>