<svg width="280" height="197" viewBox="0 0 280 197" fill="none" xmlns="http://www.w3.org/2000/svg">
    <path
        d="M152 175.5C152 182.956 145.956 189 138.5 189C131.045 189 125 182.956 125 175.5C125 168.044 131.045 162 138.5 162C145.956 162 152 168.044 152 175.5Z"
        fill="#10B990" />
    <path
        d="M144.651 171.333C144.541 171.228 144.411 171.144 144.267 171.087C144.123 171.029 143.969 171 143.813 171C143.657 171 143.503 171.029 143.359 171.087C143.215 171.144 143.084 171.228 142.974 171.333L136.74 177.295L134.025 174.699C133.915 174.594 133.784 174.51 133.64 174.453C133.496 174.395 133.342 174.366 133.186 174.366C133.031 174.366 132.876 174.395 132.732 174.453C132.589 174.51 132.458 174.594 132.348 174.699C132.238 174.804 132.15 174.929 132.09 175.067C132.031 175.204 132 175.352 132 175.501C132 175.65 132.031 175.798 132.09 175.935C132.15 176.073 132.238 176.198 132.348 176.303L135.864 179.669C136.095 179.891 136.399 180 136.702 180H136.777C137.081 180 137.384 179.891 137.616 179.669L144.651 172.942C144.762 172.837 144.85 172.712 144.909 172.574C144.969 172.437 145 172.289 145 172.14C145 171.991 144.969 171.843 144.909 171.706C144.85 171.568 144.762 171.443 144.651 171.338V171.333Z"
        fill="white" />
    <path opacity="0.3"
        d="M234 139.896V12.1037C234 7.62815 230.379 4 225.912 4L159.088 4C154.621 4 151 7.62815 151 12.1037V139.896C151 144.372 154.621 148 159.088 148H225.912C230.379 148 234 144.372 234 139.896Z"
        fill="#142641" />
    <path
        d="M237 136.896V9.10371C237 4.62815 233.379 1 228.912 1L162.088 1C157.621 1 154 4.62815 154 9.10371V136.896C154 141.372 157.621 145 162.088 145H228.912C233.379 145 237 141.372 237 136.896Z"
        fill="white" />
    <path
        d="M228.883 146H162.117C157.092 146 153 141.903 153 136.862V9.13825C153 4.10161 157.088 0 162.117 0H228.883C233.908 0 238 4.09746 238 9.13825V136.862C238 141.898 233.912 146 228.883 146ZM162.117 2.07782C158.232 2.07782 155.073 5.24441 155.073 9.13825V136.862C155.073 140.756 158.232 143.922 162.117 143.922H228.883C232.768 143.922 235.927 140.756 235.927 136.862V9.13825C235.927 5.24441 232.768 2.07782 228.883 2.07782H162.117Z"
        fill="black" />
    <path
        d="M225.965 135H165.035C164.464 135 164 134.552 164 134C164 133.448 164.464 133 165.035 133H225.965C226.536 133 227 133.448 227 134C227 134.552 226.536 135 225.965 135Z"
        fill="black" />
    <path
        d="M210.5 117C205.262 117 201 112.543 201 107.064C201 106.477 201.456 106 202.018 106C202.579 106 203.035 106.477 203.035 107.064C203.035 111.368 206.385 114.872 210.5 114.872C214.615 114.872 217.965 111.368 217.965 107.064C217.965 106.477 218.421 106 218.982 106C219.544 106 220 106.477 220 107.064C220 112.543 215.738 117 210.5 117Z"
        fill="black" />
    <path
        d="M226.982 104C226.421 104 225.965 103.523 225.965 102.936C225.965 98.632 222.615 95.1285 218.5 95.1285C214.381 95.1285 211.035 98.632 211.035 102.936C211.035 103.523 210.579 104 210.018 104C209.456 104 209 103.523 209 102.936C209 97.457 213.262 93 218.5 93C223.738 93 228 97.457 228 102.936C228 103.523 227.544 104 226.982 104Z"
        fill="black" />
    <path
        d="M207 19C208.105 19 209 18.1046 209 17C209 15.8954 208.105 15 207 15C205.895 15 205 15.8954 205 17C205 18.1046 205.895 19 207 19Z"
        fill="#10B990" />
    <path
        d="M213 19C214.105 19 215 18.1046 215 17C215 15.8954 214.105 15 213 15C211.895 15 211 15.8954 211 17C211 18.1046 211.895 19 213 19Z"
        fill="#10B990" />
    <path
        d="M219 19C220.105 19 221 18.1046 221 17C221 15.8954 220.105 15 219 15C217.895 15 217 15.8954 217 17C217 18.1046 217.895 19 219 19Z"
        fill="#10B990" />
    <path
        d="M225 19C226.105 19 227 18.1046 227 17C227 15.8954 226.105 15 225 15C223.895 15 223 15.8954 223 17C223 18.1046 223.895 19 225 19Z"
        fill="#10B990" />
    <path
        d="M207 30C208.105 30 209 29.1046 209 28C209 26.8954 208.105 26 207 26C205.895 26 205 26.8954 205 28C205 29.1046 205.895 30 207 30Z"
        fill="#10B990" />
    <path
        d="M213 30C214.105 30 215 29.1046 215 28C215 26.8954 214.105 26 213 26C211.895 26 211 26.8954 211 28C211 29.1046 211.895 30 213 30Z"
        fill="#10B990" />
    <path
        d="M219 30C220.105 30 221 29.1046 221 28C221 26.8954 220.105 26 219 26C217.895 26 217 26.8954 217 28C217 29.1046 217.895 30 219 30Z"
        fill="#10B990" />
    <path
        d="M225 30C226.105 30 227 29.1046 227 28C227 26.8954 226.105 26 225 26C223.895 26 223 26.8954 223 28C223 29.1046 223.895 30 225 30Z"
        fill="#10B990" />
    <path
        d="M207 40C208.105 40 209 39.1046 209 38C209 36.8954 208.105 36 207 36C205.895 36 205 36.8954 205 38C205 39.1046 205.895 40 207 40Z"
        fill="#10B990" />
    <path
        d="M213 40C214.105 40 215 39.1046 215 38C215 36.8954 214.105 36 213 36C211.895 36 211 36.8954 211 38C211 39.1046 211.895 40 213 40Z"
        fill="#10B990" />
    <path
        d="M219 40C220.105 40 221 39.1046 221 38C221 36.8954 220.105 36 219 36C217.895 36 217 36.8954 217 38C217 39.1046 217.895 40 219 40Z"
        fill="#10B990" />
    <path
        d="M225 40C226.105 40 227 39.1046 227 38C227 36.8954 226.105 36 225 36C223.895 36 223 36.8954 223 38C223 39.1046 223.895 40 225 40Z"
        fill="#10B990" />
    <path d="M206.664 46.3416H206.638L205 47.5556V46.2551L206.66 45H208V52H206.664V46.3416Z"
        fill="#10B990" />
    <path
        d="M210.08 51.0127L212.47 48.7387C212.761 48.4636 212.983 48.2329 213.13 48.0468C213.278 47.8607 213.381 47.6988 213.437 47.5532C213.492 47.4075 213.52 47.2578 213.52 47.096V47.0879C213.52 46.8977 213.477 46.7277 213.389 46.5861C213.302 46.4405 213.182 46.3272 213.027 46.2462C212.876 46.1653 212.697 46.1208 212.498 46.1208C212.267 46.1208 212.064 46.1694 211.889 46.2624C211.714 46.3555 211.575 46.485 211.476 46.6509C211.376 46.8127 211.321 46.9988 211.317 47.2052V47.2497H210V47.2133C210 46.7803 210.107 46.4 210.322 46.0642C210.537 45.7324 210.835 45.4734 211.213 45.2832C211.591 45.0971 212.017 45 212.49 45C212.963 45 213.389 45.085 213.751 45.259C214.113 45.4289 214.395 45.6676 214.598 45.9671C214.801 46.2665 214.905 46.6145 214.905 47.0029V47.011C214.905 47.2902 214.857 47.5491 214.757 47.7879C214.658 48.0266 214.499 48.2734 214.272 48.5405C214.045 48.8035 213.739 49.1191 213.349 49.4832L211.388 51.3L211.933 50.3329V51.3L211.392 50.8549H215V52H210.08V51.0127Z"
        fill="#10B990" />
    <path
        d="M217.226 51.7337C216.864 51.5667 216.577 51.3362 216.366 51.038C216.155 50.7399 216.034 50.3981 216 50.0125V49.9529H217.283L217.291 50.0045C217.309 50.1675 217.374 50.3106 217.475 50.4378C217.577 50.565 217.717 50.6644 217.891 50.7359C218.064 50.8115 218.268 50.8472 218.498 50.8472C218.728 50.8472 218.928 50.8075 219.098 50.728C219.268 50.6485 219.4 50.5372 219.491 50.3941C219.585 50.251 219.63 50.088 219.63 49.9052V49.8972C219.63 49.5752 219.521 49.3288 219.306 49.1579C219.091 48.9869 218.785 48.8995 218.396 48.8995H217.66V47.8859H218.377C218.604 47.8859 218.796 47.8461 218.962 47.7706C219.128 47.6911 219.257 47.5838 219.347 47.4486C219.438 47.3095 219.487 47.1505 219.487 46.9716V46.9637C219.487 46.7808 219.449 46.6218 219.37 46.4906C219.291 46.3595 219.177 46.2601 219.026 46.1925C218.875 46.1249 218.698 46.0892 218.487 46.0892C218.275 46.0892 218.094 46.1249 217.936 46.1965C217.777 46.268 217.649 46.3674 217.555 46.4946C217.46 46.6258 217.4 46.7768 217.381 46.9517V46.9994H216.14V46.9398C216.177 46.5503 216.294 46.2084 216.494 45.9182C216.694 45.6281 216.966 45.4015 217.306 45.2425C217.645 45.0835 218.042 45 218.491 45C218.94 45 219.355 45.0755 219.694 45.2226C220.034 45.3697 220.298 45.5764 220.483 45.8427C220.672 46.109 220.762 46.4191 220.762 46.7768V46.7848C220.762 47.067 220.702 47.3135 220.585 47.5281C220.468 47.7428 220.306 47.9177 220.102 48.0568C219.898 48.1959 219.672 48.2913 219.423 48.343V48.3708C219.902 48.4185 220.283 48.5815 220.57 48.8597C220.857 49.138 221 49.5077 221 49.9648V49.9727C221 50.3742 220.894 50.728 220.687 51.0341C220.479 51.3401 220.189 51.5747 219.815 51.7456C219.442 51.9125 219.004 52 218.502 52C218 52 217.589 51.9165 217.226 51.7496V51.7337Z"
        fill="#10B990" />
    <path
        d="M225.597 50.7202H222V49.4938C222.191 49.1975 222.383 48.8971 222.578 48.5967C222.774 48.2963 222.965 47.9959 223.161 47.6955C223.356 47.3951 223.548 47.0988 223.743 46.7984C223.939 46.4979 224.13 46.1975 224.326 45.8971C224.522 45.5967 224.713 45.2963 224.904 45H227.047V49.5473H228V50.7202H227.047V52H225.602V50.7202H225.597ZM225.627 49.5844V46.0617H225.593C225.444 46.2963 225.291 46.5267 225.142 46.7572C224.994 46.9877 224.841 47.2222 224.687 47.4527C224.534 47.6831 224.386 47.9177 224.232 48.1523C224.079 48.3868 223.931 48.6173 223.777 48.8477C223.624 49.0782 223.476 49.3128 223.322 49.5432V49.5802H225.627V49.5844Z"
        fill="#10B990" />
    <path opacity="0.3"
        d="M176.953 34H50.0474C45.603 34 42 37.6211 42 42.0879V108.912C42 113.379 45.603 117 50.0474 117H176.953C181.397 117 185 113.379 185 108.912V42.0879C185 37.6211 181.397 34 176.953 34Z"
        fill="#142641" />
    <path
        d="M179.953 29H53.0474C48.603 29 45 32.6211 45 37.0879V103.912C45 108.379 48.603 112 53.0474 112H179.953C184.397 112 188 108.379 188 103.912V37.0879C188 32.6211 184.397 29 179.953 29Z"
        fill="white" />
    <path
        d="M179.925 113H53.0754C48.0734 113 44 108.912 44 103.883V37.1174C44 32.0922 48.0693 28 53.0754 28H179.925C184.927 28 189 32.0881 189 37.1174V103.883C189 108.908 184.931 113 179.925 113ZM53.0754 30.0731C49.2083 30.0731 46.0635 33.2324 46.0635 37.1174V103.883C46.0635 107.768 49.2083 110.927 53.0754 110.927H179.925C183.792 110.927 186.936 107.768 186.936 103.883V37.1174C186.936 33.2324 183.792 30.0731 179.925 30.0731H53.0754Z"
        fill="black" />
    <path
        d="M159.936 103C154.457 103 150 98.7384 150 93.5C150 88.2616 154.457 84 159.936 84C160.523 84 161 84.4559 161 85.0176C161 85.5793 160.523 86.0351 159.936 86.0351C155.628 86.0351 152.128 89.385 152.128 93.5C152.128 97.615 155.632 100.965 159.936 100.965C160.523 100.965 161 101.421 161 101.982C161 102.544 160.523 103 159.936 103Z"
        fill="black" />
    <path
        d="M168.5 103C163.262 103 159 98.7384 159 93.5C159 88.2616 163.262 84 168.5 84C173.738 84 178 88.2616 178 93.5C178 98.7384 173.738 103 168.5 103ZM168.5 86.0311C164.381 86.0311 161.035 89.3809 161.035 93.4959C161.035 97.611 164.385 100.961 168.5 100.961C172.615 100.961 175.965 97.611 175.965 93.4959C175.965 89.3809 172.615 86.0311 168.5 86.0311Z"
        fill="black" />
    <path
        d="M133.971 94H59.029C58.461 94 58 93.552 58 93C58 92.448 58.461 92 59.029 92H133.971C134.539 92 135 92.448 135 93C135 93.552 134.539 94 133.971 94Z"
        fill="black" />
    <path
        d="M60 67C61.1046 67 62 66.1046 62 65C62 63.8954 61.1046 63 60 63C58.8954 63 58 63.8954 58 65C58 66.1046 58.8954 67 60 67Z"
        fill="#10B990" />
    <path
        d="M66 67C67.1046 67 68 66.1046 68 65C68 63.8954 67.1046 63 66 63C64.8954 63 64 63.8954 64 65C64 66.1046 64.8954 67 66 67Z"
        fill="#10B990" />
    <path
        d="M73 67C74.1046 67 75 66.1046 75 65C75 63.8954 74.1046 63 73 63C71.8954 63 71 63.8954 71 65C71 66.1046 71.8954 67 73 67Z"
        fill="#10B990" />
    <path
        d="M79 67C80.1046 67 81 66.1046 81 65C81 63.8954 80.1046 63 79 63C77.8954 63 77 63.8954 77 65C77 66.1046 77.8954 67 79 67Z"
        fill="#10B990" />
    <path
        d="M89 67C90.1046 67 91 66.1046 91 65C91 63.8954 90.1046 63 89 63C87.8954 63 87 63.8954 87 65C87 66.1046 87.8954 67 89 67Z"
        fill="#10B990" />
    <path
        d="M95 67C96.1046 67 97 66.1046 97 65C97 63.8954 96.1046 63 95 63C93.8954 63 93 63.8954 93 65C93 66.1046 93.8954 67 95 67Z"
        fill="#10B990" />
    <path
        d="M102 67C103.105 67 104 66.1046 104 65C104 63.8954 103.105 63 102 63C100.895 63 100 63.8954 100 65C100 66.1046 100.895 67 102 67Z"
        fill="#10B990" />
    <path
        d="M108 67C109.105 67 110 66.1046 110 65C110 63.8954 109.105 63 108 63C106.895 63 106 63.8954 106 65C106 66.1046 106.895 67 108 67Z"
        fill="#10B990" />
    <path
        d="M117 67C118.105 67 119 66.1046 119 65C119 63.8954 118.105 63 117 63C115.895 63 115 63.8954 115 65C115 66.1046 115.895 67 117 67Z"
        fill="#10B990" />
    <path
        d="M123 67C124.105 67 125 66.1046 125 65C125 63.8954 124.105 63 123 63C121.895 63 121 63.8954 121 65C121 66.1046 121.895 67 123 67Z"
        fill="#10B990" />
    <path
        d="M130 67C131.105 67 132 66.1046 132 65C132 63.8954 131.105 63 130 63C128.895 63 128 63.8954 128 65C128 66.1046 128.895 67 130 67Z"
        fill="#10B990" />
    <path
        d="M136 67C137.105 67 138 66.1046 138 65C138 63.8954 137.105 63 136 63C134.895 63 134 63.8954 134 65C134 66.1046 134.895 67 136 67Z"
        fill="#10B990" />
    <path d="M144.664 62.3416H144.638L143 63.5556V62.2551L144.66 61H146V68H144.664V62.3416Z"
        fill="#10B990" />
    <path
        d="M148.08 67.0127L150.47 64.7387C150.761 64.4636 150.983 64.2329 151.13 64.0468C151.278 63.8607 151.381 63.6988 151.437 63.5532C151.492 63.4075 151.52 63.2578 151.52 63.096V63.0879C151.52 62.8977 151.477 62.7277 151.389 62.5861C151.302 62.4405 151.182 62.3272 151.027 62.2462C150.876 62.1653 150.697 62.1208 150.498 62.1208C150.267 62.1208 150.064 62.1694 149.889 62.2624C149.714 62.3555 149.575 62.485 149.476 62.6509C149.376 62.8127 149.321 62.9988 149.317 63.2052V63.2497H148V63.2133C148 62.7803 148.107 62.4 148.322 62.0642C148.537 61.7324 148.835 61.4734 149.213 61.2832C149.591 61.0971 150.017 61 150.49 61C150.963 61 151.389 61.085 151.751 61.259C152.113 61.4289 152.395 61.6676 152.598 61.9671C152.801 62.2665 152.905 62.6145 152.905 63.0029V63.011C152.905 63.2902 152.857 63.5491 152.757 63.7879C152.658 64.0266 152.499 64.2734 152.272 64.5405C152.045 64.8035 151.739 65.1191 151.349 65.4832L149.388 67.3L149.933 66.3329V67.3L149.392 66.8549H153V68H148.08V67.0127Z"
        fill="#10B990" />
    <path
        d="M155.226 67.7337C154.864 67.5667 154.577 67.3362 154.366 67.038C154.155 66.7399 154.034 66.3981 154 66.0125V65.9529H155.283L155.291 66.0045C155.309 66.1675 155.374 66.3106 155.475 66.4378C155.577 66.565 155.717 66.6644 155.891 66.7359C156.064 66.8115 156.268 66.8472 156.498 66.8472C156.728 66.8472 156.928 66.8075 157.098 66.728C157.268 66.6485 157.4 66.5372 157.491 66.3941C157.585 66.251 157.63 66.088 157.63 65.9052V65.8972C157.63 65.5752 157.521 65.3288 157.306 65.1579C157.091 64.9869 156.785 64.8995 156.396 64.8995H155.66V63.8859H156.377C156.604 63.8859 156.796 63.8461 156.962 63.7706C157.128 63.6911 157.257 63.5838 157.347 63.4486C157.438 63.3095 157.487 63.1505 157.487 62.9716V62.9637C157.487 62.7808 157.449 62.6218 157.37 62.4906C157.291 62.3595 157.177 62.2601 157.026 62.1925C156.875 62.1249 156.698 62.0892 156.487 62.0892C156.275 62.0892 156.094 62.1249 155.936 62.1965C155.777 62.268 155.649 62.3674 155.555 62.4946C155.46 62.6258 155.4 62.7768 155.381 62.9517V62.9994H154.14V62.9398C154.177 62.5503 154.294 62.2084 154.494 61.9182C154.694 61.6281 154.966 61.4015 155.306 61.2425C155.645 61.0835 156.042 61 156.491 61C156.94 61 157.355 61.0755 157.694 61.2226C158.034 61.3697 158.298 61.5764 158.483 61.8427C158.672 62.109 158.762 62.4191 158.762 62.7768V62.7848C158.762 63.067 158.702 63.3135 158.585 63.5281C158.468 63.7428 158.306 63.9177 158.102 64.0568C157.898 64.1959 157.672 64.2913 157.423 64.343V64.3708C157.902 64.4185 158.283 64.5815 158.57 64.8597C158.857 65.138 159 65.5077 159 65.9648V65.9727C159 66.3742 158.894 66.728 158.687 67.0341C158.479 67.3402 158.189 67.5747 157.815 67.7456C157.442 67.9125 157.004 68 156.502 68C156 68 155.589 67.9165 155.226 67.7496V67.7337Z"
        fill="#10B990" />
    <path
        d="M163.597 66.7202H160V65.4938C160.191 65.1975 160.383 64.8971 160.578 64.5967C160.774 64.2963 160.965 63.9959 161.161 63.6955C161.356 63.3951 161.548 63.0988 161.743 62.7984C161.939 62.4979 162.13 62.1975 162.326 61.8971C162.522 61.5967 162.713 61.2963 162.904 61H165.047V65.5473H166V66.7202H165.047V68H163.602V66.7202H163.597ZM163.627 65.5844V62.0617H163.593C163.444 62.2963 163.291 62.5268 163.142 62.7572C162.994 62.9877 162.841 63.2222 162.687 63.4527C162.534 63.6831 162.386 63.9177 162.232 64.1523C162.079 64.3868 161.931 64.6173 161.777 64.8477C161.624 65.0782 161.476 65.3128 161.322 65.5432V65.5803H163.627V65.5844Z"
        fill="#10B990" />
</svg>