<svg width="280" height="197" viewBox="0 0 280 197" fill="none" xmlns="http://www.w3.org/2000/svg">
    <g>
        <path
            d="M152.321 174.728C152.321 181.845 146.554 187.616 139.441 187.616C132.328 187.616 126.561 181.845 126.561 174.728C126.561 167.61 132.328 161.84 139.441 161.84C146.554 161.84 152.321 167.61 152.321 174.728Z"
            fill="#F43F5E" />
        <path
            d="M241.717 153.283H38.2832C32.6155 153.283 28 148.705 28 143.076V21.4069C28 15.7814 32.6105 11.2002 38.2832 11.2002H241.717C247.384 11.2002 252 15.7774 252 21.4069V143.08C252 148.706 247.388 153.287 241.717 153.287V153.283ZM38.2832 13.5256C33.9012 13.5256 30.3378 17.0624 30.3378 21.4119V143.08C30.3378 147.429 33.9012 150.966 38.2832 150.966H241.717C246.098 150.966 249.661 147.429 249.661 143.08V21.4069C249.661 17.0585 246.098 13.5216 241.717 13.5216H38.2832V13.5256Z"
            fill="#F43F5E" />
        <path
            d="M141.064 174.744L143.627 172.178C143.732 172.073 143.816 171.948 143.873 171.81C143.93 171.672 143.96 171.525 143.96 171.376C143.96 171.226 143.93 171.079 143.873 170.941C143.816 170.803 143.732 170.678 143.627 170.573C143.521 170.468 143.397 170.384 143.259 170.327C143.121 170.27 142.974 170.24 142.825 170.24C142.676 170.24 142.529 170.27 142.391 170.327C142.254 170.384 142.129 170.468 142.024 170.573L139.461 173.139L136.898 170.573C136.793 170.468 136.668 170.384 136.531 170.327C136.393 170.27 136.246 170.24 136.097 170.24C135.948 170.24 135.8 170.27 135.663 170.327C135.525 170.384 135.4 170.468 135.295 170.573C135.19 170.678 135.106 170.803 135.049 170.941C134.991 171.079 134.962 171.226 134.962 171.376C134.962 171.525 134.991 171.672 135.049 171.81C135.106 171.948 135.19 172.073 135.295 172.178L137.858 174.744L135.295 177.31C135.136 177.469 135.027 177.671 134.983 177.891C134.939 178.111 134.961 178.34 135.047 178.547C135.133 178.755 135.279 178.932 135.466 179.057C135.653 179.181 135.872 179.247 136.097 179.246C136.386 179.246 136.676 179.137 136.898 178.915L139.461 176.349L142.024 178.915C142.246 179.137 142.536 179.246 142.825 179.246C143.05 179.247 143.269 179.181 143.456 179.057C143.643 178.932 143.789 178.755 143.875 178.547C143.961 178.34 143.983 178.111 143.939 177.891C143.895 177.671 143.786 177.469 143.627 177.31L141.064 174.744Z"
            fill="white" />
        <path opacity="0.3"
            d="M225.891 30.0186H46.1076C43.6921 30.0186 41.3755 30.9758 39.6675 32.6796C37.9595 34.3835 37 36.6944 37 39.104V135.002C36.9999 136.195 37.2353 137.376 37.693 138.479C38.1506 139.581 38.8215 140.583 39.6672 141.427C40.5129 142.27 41.517 142.94 42.622 143.396C43.7271 143.853 44.9115 144.088 46.1076 144.088H225.891C227.088 144.088 228.272 143.853 229.377 143.397C230.482 142.94 231.487 142.271 232.332 141.427C233.178 140.583 233.849 139.581 234.307 138.479C234.765 137.376 235 136.195 235 135.002V39.104C235 37.9108 234.764 36.7293 234.307 35.6269C233.849 34.5246 233.178 33.523 232.332 32.6793C231.486 31.8356 230.482 31.1664 229.377 30.7099C228.272 30.2533 227.088 30.0184 225.891 30.0186Z"
            fill="#142641" />
        <path
            d="M232.133 24.0146H52.3488C51.1527 24.0145 49.9683 24.2494 48.8632 24.706C47.7581 25.1625 46.754 25.8317 45.9081 26.6754C45.0623 27.519 44.3914 28.5207 43.9336 29.623C43.4758 30.7254 43.2402 31.9069 43.2402 33.1001V128.998C43.2401 130.191 43.4756 131.373 43.9333 132.475C44.391 133.577 45.0619 134.579 45.9078 135.423C46.7536 136.267 47.7578 136.936 48.8629 137.393C49.9681 137.849 51.1526 138.084 52.3488 138.084H232.133C233.329 138.084 234.513 137.849 235.618 137.392C236.723 136.936 237.727 136.266 238.573 135.423C239.419 134.579 240.09 133.577 240.547 132.475C241.005 131.372 241.24 130.191 241.24 128.998V33.1001C241.24 30.6905 240.281 28.3796 238.573 26.6757C236.865 24.9719 234.548 24.0146 232.133 24.0146Z"
            fill="white" />
        <path
            d="M230.061 140.085H50.5792C44.9249 140.085 40.3203 135.461 40.3203 129.775V33.324C40.3203 27.6414 44.9209 23.0137 50.5792 23.0137H230.061C235.716 23.0137 240.32 27.6364 240.32 33.324V129.775C240.32 135.457 235.721 140.085 230.061 140.085ZM50.5792 25.3627C46.2085 25.3627 42.6536 28.9355 42.6536 33.3281V129.779C42.6536 134.172 46.2085 137.745 50.5792 137.745H230.061C234.433 137.745 237.988 134.172 237.988 129.779V33.324C237.988 28.9304 234.433 25.3577 230.061 25.3577H50.5792V25.3627Z"
            fill="black" />
        <path fill-rule="evenodd" clip-rule="evenodd"
            d="M64.1678 67.6279C64.6586 67.6279 65.0564 68.0257 65.0564 68.5165V85.2231C65.0564 85.7138 64.6586 86.1116 64.1678 86.1116C63.6771 86.1116 63.2793 85.7138 63.2793 85.2231V68.5165C63.2793 68.0257 63.6771 67.6279 64.1678 67.6279Z"
            fill="#142641" />
        <path fill-rule="evenodd" clip-rule="evenodd"
            d="M66.3892 67.6279C66.8799 67.6279 67.2777 68.0257 67.2777 68.5165V85.2231C67.2777 85.7138 66.8799 86.1116 66.3892 86.1116C65.8984 86.1116 65.5006 85.7138 65.5006 85.2231V68.5165C65.5006 68.0257 65.8984 67.6279 66.3892 67.6279Z"
            fill="#142641" />
        <path fill-rule="evenodd" clip-rule="evenodd"
            d="M210.109 67.6279C210.6 67.6279 210.998 68.0257 210.998 68.5165V85.2231C210.998 85.7138 210.6 86.1116 210.109 86.1116C209.619 86.1116 209.221 85.7138 209.221 85.2231V68.5165C209.221 68.0257 209.619 67.6279 210.109 67.6279Z"
            fill="#142641" />
        <path fill-rule="evenodd" clip-rule="evenodd"
            d="M73.7196 67.6279C74.2103 67.6279 74.6081 68.0257 74.6081 68.5165V85.2231C74.6081 85.7138 74.2103 86.1116 73.7196 86.1116C73.2288 86.1116 72.831 85.7138 72.831 85.2231V68.5165C72.831 68.0257 73.2288 67.6279 73.7196 67.6279Z"
            fill="#142641" />
        <path fill-rule="evenodd" clip-rule="evenodd"
            d="M78.1622 67.6279C78.653 67.6279 79.0508 68.0257 79.0508 68.5165V85.2231C79.0508 85.7138 78.653 86.1116 78.1622 86.1116C77.6715 86.1116 77.2737 85.7138 77.2737 85.2231V68.5165C77.2737 68.0257 77.6715 67.6279 78.1622 67.6279Z"
            fill="#142641" />
        <path fill-rule="evenodd" clip-rule="evenodd"
            d="M128.809 67.6279C129.299 67.6279 129.697 68.0257 129.697 68.5165V71.1821C129.697 71.6729 129.299 72.0707 128.809 72.0707C128.318 72.0707 127.92 71.6729 127.92 71.1821V68.5165C127.92 68.0257 128.318 67.6279 128.809 67.6279Z"
            fill="#142641" />
        <path fill-rule="evenodd" clip-rule="evenodd"
            d="M128.809 76.9577C129.299 76.9577 129.697 77.3555 129.697 77.8463V79.4012C129.697 79.892 129.299 80.2898 128.809 80.2898C128.318 80.2898 127.92 79.892 127.92 79.4012V77.8463C127.92 77.3555 128.318 76.9577 128.809 76.9577Z"
            fill="#142641" />
        <path fill-rule="evenodd" clip-rule="evenodd"
            d="M128.809 81.1783C129.299 81.1783 129.697 81.5761 129.697 82.0669V85.3989C129.697 85.8897 129.299 86.2875 128.809 86.2875C128.318 86.2875 127.92 85.8897 127.92 85.3989V82.0669C127.92 81.5761 128.318 81.1783 128.809 81.1783Z"
            fill="#142641" />
        <path fill-rule="evenodd" clip-rule="evenodd"
            d="M133.251 67.6279C133.742 67.6279 134.14 68.0257 134.14 68.5165V85.2231C134.14 85.7138 133.742 86.1116 133.251 86.1116C132.761 86.1116 132.363 85.7138 132.363 85.2231V68.5165C132.363 68.0257 132.761 67.6279 133.251 67.6279Z"
            fill="#142641" />
        <path fill-rule="evenodd" clip-rule="evenodd"
            d="M87.9361 67.6279C88.4268 67.6279 88.8246 68.0257 88.8246 68.5165V71.1821C88.8246 71.6729 88.4268 72.0707 87.9361 72.0707C87.4454 72.0707 87.0476 71.6729 87.0476 71.1821V68.5165C87.0476 68.0257 87.4454 67.6279 87.9361 67.6279Z"
            fill="#142641" />
        <path fill-rule="evenodd" clip-rule="evenodd"
            d="M87.9361 73.4035C88.4268 73.4035 88.8246 73.8013 88.8246 74.2921V76.9577C88.8246 77.4484 88.4268 77.8463 87.9361 77.8463C87.4454 77.8463 87.0476 77.4484 87.0476 76.9577V74.2921C87.0476 73.8013 87.4454 73.4035 87.9361 73.4035Z"
            fill="#142641" />
        <path fill-rule="evenodd" clip-rule="evenodd"
            d="M87.9361 79.1791C88.4268 79.1791 88.8246 79.5769 88.8246 80.0676V85.1768C88.8246 85.6675 88.4268 86.0654 87.9361 86.0654C87.4454 86.0654 87.0476 85.6675 87.0476 85.1768V80.0676C87.0476 79.5769 87.4454 79.1791 87.9361 79.1791Z"
            fill="#142641" />
        <path fill-rule="evenodd" clip-rule="evenodd"
            d="M92.3788 67.6279C92.8695 67.6279 93.2673 68.0257 93.2673 68.5165V69.1829C93.2673 69.6736 92.8695 70.0714 92.3788 70.0714C91.888 70.0714 91.4902 69.6736 91.4902 69.1829V68.5165C91.4902 68.0257 91.888 67.6279 92.3788 67.6279Z"
            fill="#142641" />
        <path fill-rule="evenodd" clip-rule="evenodd"
            d="M92.3788 71.1821C92.8695 71.1821 93.2673 71.5799 93.2673 72.0707V81.6226C93.2673 82.1133 92.8695 82.5111 92.3788 82.5111C91.888 82.5111 91.4902 82.1133 91.4902 81.6226V72.0707C91.4902 71.5799 91.888 71.1821 92.3788 71.1821Z"
            fill="#142641" />
        <path fill-rule="evenodd" clip-rule="evenodd"
            d="M96.8214 67.6279C97.3122 67.6279 97.71 68.0257 97.71 68.5165V72.7371C97.71 73.2278 97.3122 73.6256 96.8214 73.6256C96.3307 73.6256 95.9329 73.2278 95.9329 72.7371V68.5165C95.9329 68.0257 96.3307 67.6279 96.8214 67.6279Z"
            fill="#142641" />
        <path fill-rule="evenodd" clip-rule="evenodd"
            d="M99.2649 67.6279C99.7556 67.6279 100.153 68.0257 100.153 68.5165V72.7371C100.153 73.2278 99.7556 73.6256 99.2649 73.6256C98.7742 73.6256 98.3764 73.2278 98.3764 72.7371V68.5165C98.3764 68.0257 98.7742 67.6279 99.2649 67.6279Z"
            fill="#142641" />
        <path fill-rule="evenodd" clip-rule="evenodd"
            d="M96.8214 80.5119C97.3122 80.5119 97.71 80.9097 97.71 81.4005V84.0661C97.71 84.5569 97.3122 84.9547 96.8214 84.9547C96.3307 84.9547 95.9329 84.5569 95.9329 84.0661V81.4005C95.9329 80.9097 96.3307 80.5119 96.8214 80.5119Z"
            fill="#142641" />
        <path fill-rule="evenodd" clip-rule="evenodd"
            d="M101.264 80.5119C101.755 80.5119 102.153 80.9097 102.153 81.4005V84.0661C102.153 84.5569 101.755 84.9547 101.264 84.9547C100.773 84.9547 100.376 84.5569 100.376 84.0661V81.4005C100.376 80.9097 100.773 80.5119 101.264 80.5119Z"
            fill="#142641" />
        <path fill-rule="evenodd" clip-rule="evenodd"
            d="M105.707 67.6279C106.197 67.6279 106.595 68.0257 106.595 68.5165V85.399C106.595 85.8897 106.197 86.2875 105.707 86.2875C105.216 86.2875 104.818 85.8897 104.818 85.399V68.5165C104.818 68.0257 105.216 67.6279 105.707 67.6279Z"
            fill="#142641" />
        <path fill-rule="evenodd" clip-rule="evenodd"
            d="M110.149 76.2913C110.64 76.2913 111.038 76.6891 111.038 77.1799V85.399C111.038 85.8897 110.64 86.2875 110.149 86.2875C109.659 86.2875 109.261 85.8897 109.261 85.399V77.1799C109.261 76.6891 109.659 76.2913 110.149 76.2913Z"
            fill="#142641" />
        <path fill-rule="evenodd" clip-rule="evenodd"
            d="M110.149 70.7379C110.64 70.7379 111.038 71.1357 111.038 71.6264V73.1814C111.038 73.6721 110.64 74.0699 110.149 74.0699C109.659 74.0699 109.261 73.6721 109.261 73.1814V71.6264C109.261 71.1357 109.659 70.7379 110.149 70.7379Z"
            fill="#142641" />
        <path fill-rule="evenodd" clip-rule="evenodd"
            d="M137.472 76.2913C137.963 76.2913 138.36 76.6891 138.36 77.1799V85.399C138.36 85.8897 137.963 86.2875 137.472 86.2875C136.981 86.2875 136.583 85.8897 136.583 85.399V77.1799C136.583 76.6891 136.981 76.2913 137.472 76.2913Z"
            fill="#142641" />
        <path fill-rule="evenodd" clip-rule="evenodd"
            d="M137.472 70.7379C137.963 70.7379 138.36 71.1357 138.36 71.6264V73.1814C138.36 73.6721 137.963 74.0699 137.472 74.0699C136.981 74.0699 136.583 73.6721 136.583 73.1814V71.6264C136.583 71.1357 136.981 70.7379 137.472 70.7379Z"
            fill="#142641" />
        <path fill-rule="evenodd" clip-rule="evenodd"
            d="M114.592 67.6279C115.083 67.6279 115.481 68.0257 115.481 68.5165V75.4028C115.481 75.8935 115.083 76.2913 114.592 76.2913C114.101 76.2913 113.704 75.8935 113.704 75.4028V68.5165C113.704 68.0257 114.101 67.6279 114.592 67.6279Z"
            fill="#142641" />
        <path fill-rule="evenodd" clip-rule="evenodd"
            d="M114.592 79.6234C115.083 79.6234 115.481 80.0212 115.481 80.5119V82.289C115.481 82.7797 115.083 83.1776 114.592 83.1776C114.101 83.1776 113.704 82.7797 113.704 82.289V80.5119C113.704 80.0212 114.101 79.6234 114.592 79.6234Z"
            fill="#142641" />
        <path fill-rule="evenodd" clip-rule="evenodd"
            d="M119.035 67.6279C119.525 67.6279 119.923 68.0257 119.923 68.5165V85.399C119.923 85.8897 119.525 86.2875 119.035 86.2875C118.544 86.2875 118.146 85.8897 118.146 85.399V68.5165C118.146 68.0257 118.544 67.6279 119.035 67.6279Z"
            fill="#142641" />
        <path fill-rule="evenodd" clip-rule="evenodd"
            d="M124.144 72.9592C124.635 72.9592 125.032 73.357 125.032 73.8478V80.5119C125.032 81.0026 124.635 81.4005 124.144 81.4005C123.653 81.4005 123.255 81.0026 123.255 80.5119V73.8478C123.255 73.357 123.653 72.9592 124.144 72.9592Z"
            fill="#142641" />
        <path fill-rule="evenodd" clip-rule="evenodd"
            d="M143.025 70.7379C143.516 70.7379 143.914 71.1357 143.914 71.6264V73.1814C143.914 73.6721 143.516 74.0699 143.025 74.0699C142.534 74.0699 142.137 73.6721 142.137 73.1814V71.6264C142.137 71.1357 142.534 70.7379 143.025 70.7379Z"
            fill="#142641" />
        <path fill-rule="evenodd" clip-rule="evenodd"
            d="M143.025 76.0691C143.516 76.0691 143.914 76.467 143.914 76.9577V82.289C143.914 82.7797 143.516 83.1776 143.025 83.1776C142.534 83.1776 142.137 82.7797 142.137 82.289V76.9577C142.137 76.467 142.534 76.0691 143.025 76.0691Z"
            fill="#142641" />
        <path fill-rule="evenodd" clip-rule="evenodd"
            d="M147.468 67.6279C147.959 67.6279 148.356 68.0257 148.356 68.5165V74.9585C148.356 75.4492 147.959 75.847 147.468 75.847C146.977 75.847 146.579 75.4492 146.579 74.9585V68.5165C146.579 68.0257 146.977 67.6279 147.468 67.6279Z"
            fill="#142641" />
        <path fill-rule="evenodd" clip-rule="evenodd"
            d="M147.468 76.5134C147.959 76.5134 148.356 76.9113 148.356 77.402V83.844C148.356 84.3347 147.959 84.7325 147.468 84.7325C146.977 84.7325 146.579 84.3347 146.579 83.844V77.402C146.579 76.9113 146.977 76.5134 147.468 76.5134Z"
            fill="#142641" />
        <path fill-rule="evenodd" clip-rule="evenodd"
            d="M151.91 73.4035C152.401 73.4035 152.799 73.8013 152.799 74.2921V85.2231C152.799 85.7138 152.401 86.1116 151.91 86.1116C151.42 86.1116 151.022 85.7138 151.022 85.2231V74.2921C151.022 73.8013 151.42 73.4035 151.91 73.4035Z"
            fill="#142641" />
        <path fill-rule="evenodd" clip-rule="evenodd"
            d="M151.91 67.6279C152.401 67.6279 152.799 68.0257 152.799 68.5165V71.0063C152.799 71.497 152.401 71.8948 151.91 71.8948C151.42 71.8948 151.022 71.497 151.022 71.0063V68.5165C151.022 68.0257 151.42 67.6279 151.91 67.6279Z"
            fill="#142641" />
        <path fill-rule="evenodd" clip-rule="evenodd"
            d="M156.353 82.7333C156.844 82.7333 157.242 83.1311 157.242 83.6218V85.2231C157.242 85.7138 156.844 86.1116 156.353 86.1116C155.862 86.1116 155.465 85.7138 155.465 85.2231V83.6218C155.465 83.1311 155.862 82.7333 156.353 82.7333Z"
            fill="#142641" />
        <path fill-rule="evenodd" clip-rule="evenodd"
            d="M156.353 73.8478C156.844 73.8478 157.242 74.2456 157.242 74.7363V76.3376C157.242 76.8283 156.844 77.2261 156.353 77.2261C155.862 77.2261 155.465 76.8283 155.465 76.3376V74.7363C155.465 74.2456 155.862 73.8478 156.353 73.8478Z"
            fill="#142641" />
        <path fill-rule="evenodd" clip-rule="evenodd"
            d="M158.797 73.8478C159.287 73.8478 159.685 74.2456 159.685 74.7363V76.3376C159.685 76.8283 159.287 77.2261 158.797 77.2261C158.306 77.2261 157.908 76.8283 157.908 76.3376V74.7363C157.908 74.2456 158.306 73.8478 158.797 73.8478Z"
            fill="#142641" />
        <path fill-rule="evenodd" clip-rule="evenodd"
            d="M156.353 67.6279C156.844 67.6279 157.242 68.0257 157.242 68.5165V71.8948C157.242 72.3856 156.844 72.7834 156.353 72.7834C155.862 72.7834 155.465 72.3856 155.465 71.8948V68.5165C155.465 68.0257 155.862 67.6279 156.353 67.6279Z"
            fill="#142641" />
        <path fill-rule="evenodd" clip-rule="evenodd"
            d="M160.796 79.6234C161.287 79.6234 161.684 80.0212 161.684 80.5119V85.3989C161.684 85.8897 161.287 86.2875 160.796 86.2875C160.305 86.2875 159.907 85.8897 159.907 85.3989V80.5119C159.907 80.0212 160.305 79.6234 160.796 79.6234Z"
            fill="#142641" />
        <path fill-rule="evenodd" clip-rule="evenodd"
            d="M165.239 67.6279C165.729 67.6279 166.127 68.0257 166.127 68.5165V85.399C166.127 85.8897 165.729 86.2875 165.239 86.2875C164.748 86.2875 164.35 85.8897 164.35 85.399V68.5165C164.35 68.0257 164.748 67.6279 165.239 67.6279Z"
            fill="#142641" />
        <path fill-rule="evenodd" clip-rule="evenodd"
            d="M169.681 77.402C170.172 77.402 170.57 77.7998 170.57 78.2905V85.3989C170.57 85.8897 170.172 86.2875 169.681 86.2875C169.19 86.2875 168.793 85.8897 168.793 85.3989V78.2905C168.793 77.7998 169.19 77.402 169.681 77.402Z"
            fill="#142641" />
        <path fill-rule="evenodd" clip-rule="evenodd"
            d="M169.681 67.6279C170.172 67.6279 170.57 68.0257 170.57 68.5165V74.0699C170.57 74.5607 170.172 74.9585 169.681 74.9585C169.19 74.9585 168.793 74.5607 168.793 74.0699V68.5165C168.793 68.0257 169.19 67.6279 169.681 67.6279Z"
            fill="#142641" />
        <path fill-rule="evenodd" clip-rule="evenodd"
            d="M174.124 80.5119C174.615 80.5119 175.012 80.9097 175.012 81.4005V85.3989C175.012 85.8897 174.615 86.2875 174.124 86.2875C173.633 86.2875 173.235 85.8897 173.235 85.3989V81.4005C173.235 80.9097 173.633 80.5119 174.124 80.5119Z"
            fill="#142641" />
        <path fill-rule="evenodd" clip-rule="evenodd"
            d="M174.124 73.8478C174.615 73.8478 175.012 74.2456 175.012 74.7363V78.7348C175.012 79.2255 174.615 79.6234 174.124 79.6234C173.633 79.6234 173.235 79.2255 173.235 78.7348V74.7363C173.235 74.2456 173.633 73.8478 174.124 73.8478Z"
            fill="#142641" />
        <path fill-rule="evenodd" clip-rule="evenodd"
            d="M187.452 74.7363C187.943 74.7363 188.34 75.1341 188.34 75.6249V85.3989C188.34 85.8897 187.943 86.2875 187.452 86.2875C186.961 86.2875 186.563 85.8897 186.563 85.3989V75.6249C186.563 75.1341 186.961 74.7363 187.452 74.7363Z"
            fill="#142641" />
        <path fill-rule="evenodd" clip-rule="evenodd"
            d="M187.452 67.6279C187.943 67.6279 188.34 68.0257 188.34 68.5165V69.405C188.34 69.8958 187.943 70.2936 187.452 70.2936C186.961 70.2936 186.563 69.8958 186.563 69.405V68.5165C186.563 68.0257 186.961 67.6279 187.452 67.6279Z"
            fill="#142641" />
        <path fill-rule="evenodd" clip-rule="evenodd"
            d="M191.895 72.2928C192.385 72.2928 192.783 72.6906 192.783 73.1814V81.8447C192.783 82.3355 192.385 82.7333 191.895 82.7333C191.404 82.7333 191.006 82.3355 191.006 81.8447V73.1814C191.006 72.6906 191.404 72.2928 191.895 72.2928Z"
            fill="#142641" />
        <path fill-rule="evenodd" clip-rule="evenodd"
            d="M191.895 67.6279C192.385 67.6279 192.783 68.0257 192.783 68.5165V70.7379C192.783 71.2286 192.385 71.6264 191.895 71.6264C191.404 71.6264 191.006 71.2286 191.006 70.7379V68.5165C191.006 68.0257 191.404 67.6279 191.895 67.6279Z"
            fill="#142641" />
        <path fill-rule="evenodd" clip-rule="evenodd"
            d="M196.337 67.6279C196.828 67.6279 197.226 68.0257 197.226 68.5165V85.399C197.226 85.8897 196.828 86.2875 196.337 86.2875C195.846 86.2875 195.449 85.8897 195.449 85.399V68.5165C195.449 68.0257 195.846 67.6279 196.337 67.6279Z"
            fill="#142641" />
        <path fill-rule="evenodd" clip-rule="evenodd"
            d="M198.781 67.6279C199.271 67.6279 199.669 68.0257 199.669 68.5165V85.399C199.669 85.8897 199.271 86.2875 198.781 86.2875C198.29 86.2875 197.892 85.8897 197.892 85.399V68.5165C197.892 68.0257 198.29 67.6279 198.781 67.6279Z"
            fill="#142641" />
        <path fill-rule="evenodd" clip-rule="evenodd"
            d="M201.446 67.6279C201.937 67.6279 202.335 68.0257 202.335 68.5165V85.399C202.335 85.8897 201.937 86.2875 201.446 86.2875C200.956 86.2875 200.558 85.8897 200.558 85.399V68.5165C200.558 68.0257 200.956 67.6279 201.446 67.6279Z"
            fill="#142641" />
        <path fill-rule="evenodd" clip-rule="evenodd"
            d="M214.774 67.6279C215.265 67.6279 215.663 68.0257 215.663 68.5165V85.399C215.663 85.8897 215.265 86.2875 214.774 86.2875C214.284 86.2875 213.886 85.8897 213.886 85.399V68.5165C213.886 68.0257 214.284 67.6279 214.774 67.6279Z"
            fill="#142641" />
        <path fill-rule="evenodd" clip-rule="evenodd"
            d="M219.217 67.6279C219.708 67.6279 220.105 68.0257 220.105 68.5165V85.399C220.105 85.8897 219.708 86.2875 219.217 86.2875C218.726 86.2875 218.328 85.8897 218.328 85.399V68.5165C218.328 68.0257 218.726 67.6279 219.217 67.6279Z"
            fill="#142641" />
        <path fill-rule="evenodd" clip-rule="evenodd"
            d="M178.567 82.0669C179.057 82.0669 179.455 82.4647 179.455 82.9554V85.3989C179.455 85.8897 179.057 86.2875 178.567 86.2875C178.076 86.2875 177.678 85.8897 177.678 85.3989V82.9554C177.678 82.4647 178.076 82.0669 178.567 82.0669Z"
            fill="#142641" />
        <path fill-rule="evenodd" clip-rule="evenodd"
            d="M178.567 72.515C179.057 72.515 179.455 72.9128 179.455 73.4035V75.847C179.455 76.3378 179.057 76.7356 178.567 76.7356C178.076 76.7356 177.678 76.3378 177.678 75.847V73.4035C177.678 72.9128 178.076 72.515 178.567 72.515Z"
            fill="#142641" />
        <path fill-rule="evenodd" clip-rule="evenodd"
            d="M178.567 67.6279C179.057 67.6279 179.455 68.0257 179.455 68.5165V70.96C179.455 71.4507 179.057 71.8485 178.567 71.8485C178.076 71.8485 177.678 71.4507 177.678 70.96V68.5165C177.678 68.0257 178.076 67.6279 178.567 67.6279Z"
            fill="#142641" />
        <path fill-rule="evenodd" clip-rule="evenodd"
            d="M183.009 67.6279C183.5 67.6279 183.898 68.0257 183.898 68.5165V75.847C183.898 76.3378 183.5 76.7356 183.009 76.7356C182.518 76.7356 182.121 76.3378 182.121 75.847V68.5165C182.121 68.0257 182.518 67.6279 183.009 67.6279Z"
            fill="#142641" />
        <path opacity="0.95"
            d="M104.012 23.0137L56.2402 140.084H104.012L146.398 23.0137H104.012ZM160.215 23.0137L112.443 140.085L120.171 140.084L167.24 23.0137H160.215Z"
            fill="#F9FAFB" />
    </g>
</svg>